<?xml version="1.0" encoding="UTF-8" standalone="no"?>
<svg width="200px" height="200px" viewBox="0 0 200 200" version="1.1" xmlns="http://www.w3.org/2000/svg" xmlns:xlink="http://www.w3.org/1999/xlink">
    <!-- Generator: Sketch 3.8.1 (29687) - http://www.bohemiancoding.com/sketch -->
    <title>1step</title>
    <desc>Created with Sketch.</desc>
    <defs></defs>
    <g id="Page-1" stroke="none" stroke-width="1" fill="none" fill-rule="evenodd">
        <circle id="Oval-42" fill="#FFFFFF" cx="100" cy="100" r="100"></circle>
        <g id="analytic-icon" transform="translate(56.000000, 56.000000)">
            <path d="M88.8413886,107.96 L88.8413886,46 L84.4357886,50.404 L80.0301886,46 L75.6241886,50.404 L71.2189886,46 L66.8129886,50.404 L62.4069886,46 L58.0017886,50.404 L53.5961886,46 L49.1901886,50.404 L44.7845886,46 L40.3789886,50.404 L35.9729886,46 L31.5673886,50.404 L27.1617886,46 L22.7561886,50.404 L18.3505886,46 L18.3505886,56.804 L18.3457886,56.804 C18.3461886,56.836 18.3505886,56.864 18.3505886,56.896 L18.3505886,107.96 C18.3505886,111.548 21.2537886,114.448 24.8413886,114.448 L95.3321886,114.448 C91.7445886,114.448 88.8413886,111.548 88.8413886,107.96" id="Fill-252" fill="#9F9381"></path>
            <path d="M24.7457886,114.456 L95.5097886,114.456 C99.0973886,114.456 102.000589,111.556 102.000589,107.968 L102.000589,25.292 C102.000589,21.704 104.903789,18.8 108.491789,18.8 L37.7277886,18.8 C34.1401886,18.8 31.2369886,21.704 31.2369886,25.292 L31.2369886,108.056 C31.2369886,111.556 28.3337886,114.456 24.7457886,114.456 Z" id="Fill-253" fill="#E3DDD4"></path>
            <path d="M114.927789,25.248 L114.927789,25.292 C114.927789,21.704 112.024989,18.8 108.436589,18.8 L37.9457886,18.8 C41.5337886,18.8 44.4369886,21.704 44.4369886,25.292 L44.4369886,25.2 L44.4369886,31.532 C44.4369886,35.12 47.3401886,38.024 50.9277886,38.024 L121.418589,38.024 C117.830989,38.024 114.927789,35.12 114.927789,31.532 L114.927789,25.2 L114.927789,25.248" id="Fill-254" fill="#9F9381"></path>
            <path d="M114.436589,31.544 L114.436589,31.5 C114.436589,35.088 111.533389,37.992 107.945789,37.992 L50.3457886,37.992 C53.9333886,37.992 56.8365886,35.088 56.8365886,31.5 L56.8365886,31.592 L56.8365886,6.892 C56.8365886,3.304 59.7393886,0.4 63.3277886,0.4 L114.436589,0.4 L114.436589,31.592 L114.436589,31.544" id="Fill-255" fill="#C9C2B8"></path>
            <path d="M127.236189,6.444 L127.236189,6.488 C127.236189,2.904 124.332989,0 120.745789,0 L63.1457886,0 C66.7333886,0 69.6365886,2.904 69.6365886,6.488 L69.6365886,6.4 L69.6365886,31.096 C69.6365886,34.684 72.5397886,37.588 76.1277886,37.588 L127.236589,37.588 L127.236189,6.4 L127.236189,6.444" id="Fill-256" fill="#9F9381"></path>
            <polygon id="Fill-257" fill="#FFFFFF" points="69.5457886 32 127.145789 32 127.145789 127.2 69.5457886 127.2"></polygon>
            <path d="M70.3457886,126.4 L126.345789,126.4 L126.345789,32.8 L70.3457886,32.8 L70.3457886,126.4 Z M68.7457886,31.2 L127.945789,31.2 L127.945789,128 L68.7457886,128 L68.7457886,31.2 Z" id="Fill-258" fill="#251F19"></path>
            <polygon id="Fill-259" fill="#E3DDD4" points="75.9457886 44.8 120.745789 44.8 120.745789 51.2 75.9457886 51.2"></polygon>
            <path d="M78.7457886,47.2 L121.945789,47.2 L121.945789,42.4 L78.7457886,42.4 L78.7457886,47.2 Z M77.1457886,40.8 L123.545789,40.8 L123.545789,48.8 L77.1457886,48.8 L77.1457886,40.8 Z" id="Fill-260" fill="#251F19"></path>
            <polygon id="Fill-261" fill="#E3DDD4" points="75.9457886 57.6 82.3457886 57.6 82.3457886 64 75.9457886 64"></polygon>
            <polygon id="Fill-262" fill="#FFA706" points="88.7457886 57.6 95.1457886 57.6 95.1457886 64 88.7457886 64"></polygon>
            <path d="M102.345789,63.2 L107.145789,63.2 L107.145789,58.4 L102.345789,58.4 L102.345789,63.2 Z M100.745789,56.8 L108.745789,56.8 L108.745789,64.8 L100.745789,64.8 L100.745789,56.8 Z" id="Fill-263" fill="#251F19"></path>
            <path d="M115.145789,63.2 L119.945789,63.2 L119.945789,58.4 L115.145789,58.4 L115.145789,63.2 Z M113.545789,56.8 L121.545789,56.8 L121.545789,64.8 L113.545789,64.8 L113.545789,56.8 Z" id="Fill-264" fill="#251F19"></path>
            <path d="M76.7457886,76 L81.5457886,76 L81.5457886,71.2 L76.7457886,71.2 L76.7457886,76 Z M75.1457886,69.6 L83.1457886,69.6 L83.1457886,77.6 L75.1457886,77.6 L75.1457886,69.6 Z" id="Fill-265" fill="#251F19"></path>
            <path d="M89.5457886,76 L94.3457886,76 L94.3457886,71.2 L89.5457886,71.2 L89.5457886,76 Z M87.9457886,69.6 L95.9457886,69.6 L95.9457886,77.6 L87.9457886,77.6 L87.9457886,69.6 Z" id="Fill-266" fill="#251F19"></path>
            <path d="M102.345789,76 L107.145789,76 L107.145789,71.2 L102.345789,71.2 L102.345789,76 Z M100.745789,69.6 L108.745789,69.6 L108.745789,77.6 L100.745789,77.6 L100.745789,69.6 Z" id="Fill-267" fill="#251F19"></path>
            <path d="M115.145789,76 L119.945789,76 L119.945789,71.2 L115.145789,71.2 L115.145789,76 Z M113.545789,69.6 L121.545789,69.6 L121.545789,77.6 L113.545789,77.6 L113.545789,69.6 Z" id="Fill-268" fill="#251F19"></path>
            <path d="M76.7457886,88.8 L81.5457886,88.8 L81.5457886,84 L76.7457886,84 L76.7457886,88.8 Z M75.1457886,82.4 L83.1457886,82.4 L83.1457886,90.4 L75.1457886,90.4 L75.1457886,82.4 Z" id="Fill-269" fill="#251F19"></path>
            <path d="M89.5457886,88.8 L94.3457886,88.8 L94.3457886,84 L89.5457886,84 L89.5457886,88.8 Z M87.9457886,82.4 L95.9457886,82.4 L95.9457886,90.4 L87.9457886,90.4 L87.9457886,82.4 Z" id="Fill-270" fill="#251F19"></path>
            <path d="M102.345789,88.8 L107.145789,88.8 L107.145789,84 L102.345789,84 L102.345789,88.8 Z M100.745789,82.4 L108.745789,82.4 L108.745789,90.4 L100.745789,90.4 L100.745789,82.4 Z" id="Fill-271" fill="#251F19"></path>
            <path d="M76.7457886,101.6 L81.5457886,101.6 L81.5457886,96.8 L76.7457886,96.8 L76.7457886,101.6 Z M75.1457886,95.2 L83.1457886,95.2 L83.1457886,103.2 L75.1457886,103.2 L75.1457886,95.2 Z" id="Fill-272" fill="#251F19"></path>
            <path d="M89.5457886,101.6 L94.3457886,101.6 L94.3457886,96.8 L89.5457886,96.8 L89.5457886,101.6 Z M87.9457886,95.2 L95.9457886,95.2 L95.9457886,103.2 L87.9457886,103.2 L87.9457886,95.2 Z" id="Fill-273" fill="#251F19"></path>
            <path d="M102.345789,101.6 L107.145789,101.6 L107.145789,96.8 L102.345789,96.8 L102.345789,101.6 Z M100.745789,95.2 L108.745789,95.2 L108.745789,103.2 L100.745789,103.2 L100.745789,95.2 Z" id="Fill-274" fill="#251F19"></path>
            <polygon id="Fill-275" fill="#FFA706" points="114.345789 83.2 120.745789 83.2 120.745789 102.4 114.345789 102.4"></polygon>
            <polygon id="Fill-276" fill="#251F19" points="85.5457886 117.6 111.145789 117.6 111.145789 119.2 85.5457886 119.2"></polygon>
            <polygon id="Fill-277" fill="#251F19" points="75.9457886 111.2 120.745789 111.2 120.745789 112.8 75.9457886 112.8"></polygon>
            <polygon id="Fill-278" fill="#251F19" points="37.9457886 107.2 56.9637886 107.2 56.9637886 108.8 37.9457886 108.8"></polygon>
            <polygon id="Fill-279" fill="#251F19" points="37.9457886 100.8 63.3637886 100.8 63.3637886 102.4 37.9457886 102.4"></polygon>
            <polygon id="Fill-280" fill="#251F19" points="0.345788574 94.4 56.8917886 94.4 56.8917886 96 0.345788574 96"></polygon>
            <polygon id="Fill-281" fill="#251F19" points="0.345788574 88 56.8917886 88 56.8917886 89.6 0.345788574 89.6"></polygon>
            <polygon id="Fill-282" fill="#251F19" points="0.345788574 81.6 63.2917886 81.6 63.2917886 83.2 0.345788574 83.2"></polygon>
            <polygon id="Fill-283" fill="#251F19" points="13.1457886 68.8 44.3649886 68.8 44.3649886 70.4 13.1457886 70.4"></polygon>
            <polygon id="Fill-284" fill="#251F19" points="31.9457886 5.6 63.1649886 5.6 63.1649886 7.2 31.9457886 7.2"></polygon>
            <polygon id="Fill-285" fill="#251F19" points="45.1457886 12 62.9925886 12 62.9925886 13.6 45.1457886 13.6"></polygon>
        </g>
        <circle id="Oval-45" fill="#9F9381" cx="32" cy="32" r="32"></circle>
        <text id="1" font-family="Lato-Bold, Lato" font-size="24" font-weight="bold" fill="#FFFFFF">
            <tspan x="25" y="39">1</tspan>
        </text>
    </g>
</svg>