<?xml version="1.0" encoding="UTF-8" standalone="no"?>
<svg width="200px" height="200px" viewBox="0 0 200 200" version="1.1" xmlns="http://www.w3.org/2000/svg" xmlns:xlink="http://www.w3.org/1999/xlink">
    <!-- Generator: Sketch 3.8.1 (29687) - http://www.bohemiancoding.com/sketch -->
    <title>2step</title>
    <desc>Created with Sketch.</desc>
    <defs></defs>
    <g id="Page-1" stroke="none" stroke-width="1" fill="none" fill-rule="evenodd">
        <circle id="Oval-42" fill="#FFFFFF" cx="100" cy="100" r="100"></circle>
        <g id="voronka-icon" transform="translate(58.000000, 56.000000)">
            <path d="M63.6254523,122.872099 C82.5568492,122.872099 100.125932,117.033086 114.650191,107.061728 L12.6030769,107.061728 C27.1277292,117.033086 44.6964185,122.872099 63.6254523,122.872099" id="Fill-287" fill="#E3DDD4"></path>
            <path d="M34.8077292,83.3580247 C34.8077292,92.7802469 27.1919262,100.420741 17.7975138,100.420741 C8.40349538,100.420741 0.787692308,92.7802469 0.787692308,83.3580247 L34.8077292,83.3580247" id="Fill-296" fill="#A09381"></path>
            <path d="M34.0196431,83.4646914 L17.7727015,19.7767901 L1.52615385,83.4646914 L0,83.0735802 L17.0098215,16.3950617 C17.0992246,16.0474074 17.41312,15.8024691 17.7727015,15.8024691 C18.1326769,15.8024691 18.4465723,16.0474074 18.5359754,16.3950617 L35.5457969,83.0735802 L34.0196431,83.4646914" id="Fill-297" fill="#251F19"></path>
            <path d="M126.967729,70.7160494 C126.967729,80.1382716 119.351926,87.7787654 109.958302,87.7787654 C100.563495,87.7787654 92.9476923,80.1382716 92.9476923,70.7160494 L126.967729,70.7160494" id="Fill-298" fill="#FFA706"></path>
            <path d="M93.6869415,70.7279012 L92.16,70.3407407 L109.170215,2.96296296 C109.258831,2.61530864 109.57312,2.37037037 109.933883,2.37037037 C110.294252,2.37037037 110.608542,2.61530864 110.697157,2.96296296 L127.706585,70.3407407 L126.180037,70.7279012 L109.933883,6.3762963 L93.6869415,70.7279012" id="Fill-299" fill="#251F19"></path>
            <polyline id="Fill-300" fill="#251F19" points="1.01454769 19.942716 0.787692308 18.3782716 126.768837 0 126.996086 1.56444444 1.01454769 19.942716"></polyline>
            <path d="M69.6792615,9.86074074 C69.6792615,13.1239506 67.0416738,15.7708642 63.7873231,15.7708642 C60.53376,15.7708642 57.8953846,13.1239506 57.8953846,9.86074074 C57.8953846,6.59753086 60.53376,3.95061728 63.7873231,3.95061728 C67.0416738,3.95061728 69.6792615,6.59753086 69.6792615,9.86074074" id="Fill-301" fill="#FFFFFF"></path>
            <path d="M63.7873231,4.74074074 C60.9728985,4.74074074 58.6830769,7.03604938 58.6830769,9.86074074 C58.6830769,12.6854321 60.9728985,14.9807407 63.7873231,14.9807407 C66.6021415,14.9807407 68.8915692,12.6854321 68.8915692,9.86074074 C68.8915692,7.03604938 66.6021415,4.74074074 63.7873231,4.74074074 L63.7873231,4.74074074 Z M63.7873231,16.5609877 C60.1044677,16.5609877 57.1076923,13.5545679 57.1076923,9.86074074 C57.1076923,6.16691358 60.1044677,3.16049383 63.7873231,3.16049383 C67.4705723,3.16049383 70.4669538,6.16691358 70.4669538,9.86074074 C70.4669538,13.5545679 67.4705723,16.5609877 63.7873231,16.5609877 L63.7873231,16.5609877 Z" id="Fill-302" fill="#251F19"></path>
            <path d="M63.6967385,43.7214815 C57.88672,43.7214815 52.0782769,41.5051852 47.6553846,37.068642 L48.7691815,35.9506173 C56.9997785,44.2074074 70.3929108,44.2074074 78.6246892,35.9506173 L79.7384862,37.068642 C75.3159877,41.5051852 69.5055754,43.7214815 63.6967385,43.7214815" id="Fill-303" fill="#251F19"></path>
            <polygon id="Fill-304" fill="#251F19" points="63.0153846 0.395061728 64.5907692 0.395061728 64.5907692 3.96641975 63.0153846 3.96641975"></polygon>
            <path d="M45.8318736,126.040494 L81.724649,126.040494 L63.7502982,20.4997531 L45.8318736,126.040494 L45.8318736,126.040494 Z M82.6584582,127.620741 L44.8984582,127.620741 C44.6664828,127.620741 44.4463228,127.518025 44.2966613,127.340247 C44.1469998,127.162469 44.0831967,126.929383 44.1217936,126.696296 L62.9728459,15.6681481 C63.0370428,15.2888889 63.3651167,15.0123457 63.7491167,15.0123457 C64.1327228,15.0123457 64.4611905,15.2888889 64.5257813,15.6681481 L83.4351228,126.696296 C83.4737198,126.925432 83.4099167,127.162469 83.2602552,127.340247 C83.1105936,127.518025 82.8904336,127.620741 82.6584582,127.620741 L82.6584582,127.620741 Z" id="Fill-305" fill="#251F19"></path>
            <polygon id="Fill-306" fill="#251F19" points="0.787692308 94.4197531 12.7019323 94.4197531 12.7019323 96 0.787692308 96"></polygon>
            <polygon id="Fill-307" fill="#251F19" points="7.48307692 88.0987654 19.3973169 88.0987654 19.3973169 89.6790123 7.48307692 89.6790123"></polygon>
            <polygon id="Fill-308" fill="#251F19" points="114.609231 81.7777778 126.523865 81.7777778 126.523865 83.3580247 114.609231 83.3580247"></polygon>
            <polygon id="Fill-309" fill="#251F19" points="104.763077 88.0987654 116.677711 88.0987654 116.677711 89.6790123 104.763077 89.6790123"></polygon>
        </g>
        <circle id="Oval-45-Copy" fill="#9F9381" cx="32" cy="32" r="32"></circle>
        <text id="2" font-family="Lato-Bold, Lato" font-size="24" font-weight="bold" fill="#FFFFFF">
            <tspan x="25" y="39">2</tspan>
        </text>
    </g>
</svg>