<?xml version="1.0" encoding="UTF-8" standalone="no"?>
<svg width="200px" height="200px" viewBox="0 0 200 200" version="1.1" xmlns="http://www.w3.org/2000/svg" xmlns:xlink="http://www.w3.org/1999/xlink">
    <!-- Generator: Sketch 3.8.1 (29687) - http://www.bohemiancoding.com/sketch -->
    <title>3step</title>
    <desc>Created with Sketch.</desc>
    <defs></defs>
    <g id="Page-1" stroke="none" stroke-width="1" fill="none" fill-rule="evenodd">
        <circle id="Oval-42-Copy" fill="#FFFFFF" cx="100" cy="100" r="100"></circle>
        <g id="rost-icon" transform="translate(65.000000, 56.000000)">
            <path d="M113.445483,97.6792778 C113.445483,100.319 111.304174,102.457056 108.660436,102.457056 L4.78504673,102.457056 C2.14130841,102.457056 0,100.319 0,97.6792778 L0,30.989463 C0,28.3537222 2.14130841,26.2116852 4.78504673,26.2116852 L108.660436,26.2116852 C111.304174,26.2116852 113.445483,28.3537222 113.445483,30.989463 L113.445483,97.6792778" id="Fill-311" fill="#FFA706"></path>
            <polygon id="Fill-312" fill="#FFFFFF" points="3.19003115 77.1746481 113.445483 77.1746481 113.445483 94.5259444 3.19003115 94.5259444"></polygon>
            <path d="M115.388985,45.2608389 C111.75235,26.1497278 96.7990788,19.7793574 96.7990788,19.7793574 L104.327552,3.85343147 C102.53316,1.16593147 97.5487361,2.26083888 94.8571473,3.15667221 C92.1655585,4.05250554 90.7699199,5.24694999 87.4802003,2.55944999 C84.1904807,-0.128050013 81.6504183,0.668246283 78.9069916,1.66361665 C76.1675523,2.65898702 71.3545928,5.31861665 65.5487361,3.85343147 C57.2745928,1.76315369 60.464624,9.72611665 60.464624,9.72611665 L64.1012595,19.7793574 C64.1012595,19.7793574 48.4023187,26.1497278 44.7616956,45.2608389 C41.1250601,64.37195 33.488923,113.399913 33.488923,113.399913 C33.488923,113.399913 29.4096707,128.075654 39.7772719,128.075654 L76.9092345,128.075654 L83.2414464,128.075654 L120.373409,128.075654 C130.74101,128.075654 126.665745,113.399913 126.665745,113.399913 C126.665745,113.399913 119.029608,64.37195 115.388985,45.2608389 Z" id="Fill-323" fill="#C9C2B8"></path>
            <path id="Fill-324" fill="#D0D8D5"></path>
            <path d="M126.975202,113.399913 C126.975202,113.399913 119.339065,64.37195 115.698442,45.2608389 C112.061807,26.1497278 97.1085358,19.7793574 97.1085358,19.7793574 L104.637009,3.85343147 C102.842617,1.16593147 97.8581931,2.26083888 95.1666044,3.15667221 C92.4750156,4.05250554 91.0793769,5.24694999 87.7896573,2.55944999 C84.4999377,-0.128050013 81.9598754,0.668246283 79.2164486,1.66361665 C78.4747664,1.93435739 77.5815576,2.32454258 76.5607477,2.72269073 C79.3161371,2.00602406 83.0484735,1.60389443 84.5517757,3.85343147 L87.809595,19.7793574 C87.809595,19.7793574 99.4053583,21.901487 103.041994,41.0125981 C106.682617,60.1237092 106.889969,113.399913 106.889969,113.399913 C106.889969,113.399913 108.357383,128.075654 100.597632,128.075654 L120.682866,128.075654 C131.050467,128.075654 126.975202,113.399913 126.975202,113.399913" id="Fill-325" fill="#A09381"></path>
            <path d="M74.9338318,3.15492593 C74.3636137,3.34205556 73.8532087,3.54511111 73.3707165,3.72427778 C74.4792523,3.43761111 75.5000623,3.0752963 76.4132087,2.72094444 C75.8788785,2.8602963 75.3724611,3.00761111 74.9338318,3.15492593" id="Fill-326" fill="#FFFFFF"></path>
            <path d="M98.1173832,20.6376111 L64.1435514,20.6376111 C63.7248598,20.6376111 63.3779439,20.3111296 63.3500312,19.8930741 C63.3221184,19.4750185 63.6211838,19.1087222 64.0358879,19.0529815 L91.6176947,15.3342778 L61.0093458,14.2672407 L61.0651713,12.6746481 L101.076137,14.0681667 C101.490841,14.0840926 101.821807,14.4105741 101.841745,14.8246481 C101.86567,15.2387222 101.562617,15.5970556 101.1519,15.6527963 L76.0064798,19.0450185 L98.1173832,19.0450185 L98.1173832,20.6376111" id="Fill-327" fill="#3C280D"></path>
            <path d="M98.7593769,70.9356667 C98.7593769,81.1242778 90.4852336,89.3818704 80.2811215,89.3818704 C70.0770093,89.3818704 61.8068536,81.1242778 61.8068536,70.9356667 C61.8068536,60.7470556 70.0770093,52.489463 80.2811215,52.489463 C90.4852336,52.489463 98.7593769,60.7470556 98.7593769,70.9356667" id="Fill-328" fill="#FFFFFF"></path>
            <path d="M80.0378816,81.1083519 C77.0233022,81.1083519 74.5669782,78.6597407 74.5669782,75.6457593 L76.1619938,75.6457593 C76.1619938,77.7798333 77.9005607,79.5157593 80.0378816,79.5157593 C82.1752025,79.5157593 83.9137695,77.7798333 83.9137695,75.6457593 C83.9137695,73.5116852 82.1752025,71.7757593 80.0378816,71.7757593 C77.0233022,71.7757593 74.5669782,69.3271481 74.5669782,66.3131667 C74.5669782,63.2991852 77.0233022,60.8505741 80.0378816,60.8505741 C83.0564486,60.8505741 85.508785,63.2991852 85.508785,66.3131667 L83.9137695,66.3131667 C83.9137695,64.1790926 82.1752025,62.4431667 80.0378816,62.4431667 C77.9005607,62.4431667 76.1619938,64.1790926 76.1619938,66.3131667 C76.1619938,68.4472407 77.9005607,70.1831667 80.0378816,70.1831667 C83.0564486,70.1831667 85.508785,72.6317778 85.508785,75.6457593 C85.508785,78.6597407 83.0564486,81.1083519 80.0378816,81.1083519" id="Fill-329" fill="#251F19"></path>
            <polygon id="Fill-330" fill="#251F19" points="79.3520249 59.2579815 80.9470405 59.2579815 80.9470405 82.1515 79.3520249 82.1515"></polygon>
            <polygon id="Fill-331" fill="#251F19" points="12.7601246 38.1561296 38.2803738 38.1561296 38.2803738 39.7487222 12.7601246 39.7487222"></polygon>
            <polygon id="Fill-332" fill="#251F19" points="12.7601246 44.5265 38.2803738 44.5265 38.2803738 46.1190926 12.7601246 46.1190926"></polygon>
            <polygon id="Fill-333" fill="#251F19" points="12.7601246 50.4987222 38.2803738 50.4987222 38.2803738 52.0913148 12.7601246 52.0913148"></polygon>
            <polygon id="Fill-334" fill="#251F19" points="12.7601246 70.0079815 19.2079751 70.0079815 19.2079751 71.6005741 12.7601246 71.6005741"></polygon>
            <polygon id="Fill-335" fill="#251F19" points="21.1339564 70.0079815 27.5778193 70.0079815 27.5778193 71.6005741 21.1339564 71.6005741"></polygon>
            <polygon id="Fill-336" fill="#251F19" points="29.5077882 70.0079815 35.9556386 70.0079815 35.9556386 71.6005741 29.5077882 71.6005741"></polygon>
            <path d="M18.482243,99.8690926 C10.9298442,99.8690926 4.78504673,106.004556 4.78504673,113.545481 C4.78504673,121.086407 10.9298442,127.22187 18.482243,127.22187 C26.0346417,127.22187 32.1794393,121.086407 32.1794393,113.545481 C32.1794393,106.004556 26.0346417,99.8690926 18.482243,99.8690926 L18.482243,99.8690926 Z M18.482243,128.814463 C10.0485981,128.814463 3.19003115,121.966315 3.19003115,113.545481 C3.19003115,105.124648 10.0485981,98.2765 18.482243,98.2765 C26.9119003,98.2765 33.7744548,105.124648 33.7744548,113.545481 C33.7744548,121.966315 26.9119003,128.814463 18.482243,128.814463 L18.482243,128.814463 Z" id="Fill-337" fill="#251F19"></path>
            <path d="M18.2031153,105.841315 C13.8806231,105.841315 10.3676012,109.352981 10.3676012,113.664926 C10.3676012,117.980852 13.8806231,121.488537 18.2031153,121.488537 C22.5216199,121.488537 26.0386293,117.980852 26.0386293,113.664926 C26.0386293,109.352981 22.5216199,105.841315 18.2031153,105.841315 L18.2031153,105.841315 Z M18.2031153,123.08113 C13.0033645,123.08113 8.77258567,118.856778 8.77258567,113.664926 C8.77258567,108.473074 13.0033645,104.248722 18.2031153,104.248722 C23.402866,104.248722 27.6336449,108.473074 27.6336449,113.664926 C27.6336449,118.856778 23.402866,123.08113 18.2031153,123.08113 L18.2031153,123.08113 Z" id="Fill-338" fill="#251F19"></path>
            <polygon id="Fill-339" fill="#251F19" points="17.5451713 99.0727963 19.1401869 99.0727963 19.1401869 101.609 17.5451713 101.609"></polygon>
            <polygon id="Fill-340" fill="#251F19" points="17.5451713 125.748722 19.1401869 125.748722 19.1401869 128.284926 17.5451713 128.284926"></polygon>
            <polygon id="Fill-341" fill="#251F19" points="3.98753894 113.007981 6.52361371 113.007981 6.52361371 114.600574 3.98753894 114.600574"></polygon>
            <polygon id="Fill-342" fill="#251F19" points="30.305296 113.007981 32.8453583 113.007981 32.8453583 114.600574 30.305296 114.600574"></polygon>
            <polyline id="Fill-343" fill="#251F19" points="8.70479751 124.287519 7.57632399 123.160759 9.37071651 121.369093 10.49919 122.495852 8.70479751 124.287519"></polyline>
            <polyline id="Fill-344" fill="#251F19" points="27.442243 105.972704 26.317757 104.845944 28.1121495 103.054278 29.2366355 104.181037 27.442243 105.972704"></polyline>
            <polyline id="Fill-345" fill="#251F19" points="9.37071651 105.972704 7.57632399 104.181037 8.70479751 103.054278 10.49919 104.845944 9.37071651 105.972704"></polyline>
            <polyline id="Fill-346" fill="#251F19" points="28.1161371 124.287519 26.317757 122.495852 27.4462305 121.369093 29.2406231 123.160759 28.1161371 124.287519"></polyline>
            <polyline id="Fill-347" fill="#251F19" points="23.8056075 102.81937 22.3302181 102.214185 23.2952025 99.8690926 24.7705919 100.474278 23.8056075 102.81937"></polyline>
            <polyline id="Fill-348" fill="#251F19" points="13.4380062 127.504556 11.9626168 126.89937 12.9236137 124.554278 14.3990031 125.159463 13.4380062 127.504556"></polyline>
            <polyline id="Fill-349" fill="#251F19" points="7.13370717 109.870574 4.78504673 108.907056 5.39115265 107.433907 7.73981308 108.397426 7.13370717 109.870574"></polyline>
            <polyline id="Fill-350" fill="#251F19" points="31.4576947 119.824278 29.1090343 118.860759 29.7151402 117.387611 32.0638006 118.35113 31.4576947 119.824278"></polyline>
            <polyline id="Fill-351" fill="#251F19" points="5.39912773 119.836222 4.78504673 118.367056 7.12573209 117.387611 7.74380062 118.856778 5.39912773 119.836222"></polyline>
            <polyline id="Fill-352" fill="#251F19" points="29.7231153 109.882519 29.1090343 108.413352 31.4497196 107.433907 32.0677882 108.903074 29.7231153 109.882519"></polyline>
            <polyline id="Fill-353" fill="#251F19" points="12.9435514 102.823352 11.9626168 100.482241 13.4340187 99.8690926 14.4149533 102.206222 12.9435514 102.823352"></polyline>
            <polyline id="Fill-354" fill="#251F19" points="23.3071651 127.508537 22.3302181 125.171407 23.8016199 124.554278 24.778567 126.895389 23.3071651 127.508537"></polyline>
            <path d="M19.5708411,117.78694 L17.9758255,117.78694 L17.9758255,111.743051 L16.6758879,113.041014 L15.5514019,111.914255 L18.2071028,109.258606 C18.4383801,109.031662 18.7813084,108.963977 19.0763863,109.087403 C19.3754517,109.210829 19.5708411,109.501477 19.5708411,109.823977 L19.5708411,117.78694" id="Fill-355" fill="#251F19"></path>
            <path d="M36.9604984,1.92464815 C28.6743925,1.92464815 21.9314642,8.65733333 21.9314642,16.9268704 C21.9314642,25.2003889 28.6743925,31.9330741 36.9604984,31.9330741 C45.2466044,31.9330741 51.9855452,25.2003889 51.9855452,16.9268704 C51.9855452,8.65733333 45.2466044,1.92464815 36.9604984,1.92464815 L36.9604984,1.92464815 Z M36.9604984,33.5256667 C27.7931464,33.5256667 20.3364486,26.0802963 20.3364486,16.9268704 C20.3364486,7.77742593 27.7931464,0.332055556 36.9604984,0.332055556 C46.1238629,0.332055556 53.5805607,7.77742593 53.5805607,16.9268704 C53.5805607,26.0802963 46.1238629,33.5256667 36.9604984,33.5256667 L36.9604984,33.5256667 Z" id="Fill-356" fill="#251F19"></path>
            <path d="M36.9405607,8.29501852 C32.1834268,8.29501852 28.3115265,12.1570556 28.3115265,16.906963 C28.3115265,21.6568704 32.1834268,25.5228889 36.9405607,25.5228889 C41.6976947,25.5228889 45.5656075,21.6568704 45.5656075,16.906963 C45.5656075,12.1570556 41.6976947,8.29501852 36.9405607,8.29501852 L36.9405607,8.29501852 Z M36.9405607,27.1154815 C31.3021807,27.1154815 26.7165109,22.5367778 26.7165109,16.906963 C26.7165109,11.2811296 31.3021807,6.70242593 36.9405607,6.70242593 C42.5749533,6.70242593 47.1606231,11.2811296 47.1606231,16.906963 C47.1606231,22.5367778 42.5749533,27.1154815 36.9405607,27.1154815 L36.9405607,27.1154815 Z" id="Fill-357" fill="#251F19"></path>
            <polygon id="Fill-358" fill="#251F19" points="36.2866044 1.12835185 37.8816199 1.12835185 37.8816199 3.89548148 36.2866044 3.89548148"></polygon>
            <polygon id="Fill-359" fill="#251F19" points="36.2866044 29.7950185 37.8816199 29.7950185 37.8816199 32.5621481 36.2866044 32.5621481"></polygon>
            <polygon id="Fill-360" fill="#251F19" points="21.1339564 15.8598333 23.905296 15.8598333 23.905296 17.4524259 21.1339564 17.4524259"></polygon>
            <polygon id="Fill-361" fill="#251F19" points="49.8442368 15.8598333 52.6155763 15.8598333 52.6155763 17.4524259 49.8442368 17.4524259"></polygon>
            <polyline id="Fill-362" fill="#251F19" points="26.2499688 28.501037 25.1214953 27.3742778 27.0833645 25.4153889 28.211838 26.5421481 26.2499688 28.501037"></polyline>
            <polyline id="Fill-363" fill="#251F19" points="46.5864174 8.1915 45.4579439 7.06474074 47.4158255 5.10983333 48.5442991 6.23659259 46.5864174 8.1915"></polyline>
            <polyline id="Fill-364" fill="#251F19" points="27.0833645 8.1915 25.1214953 6.23659259 26.2499688 5.10983333 28.211838 7.06474074 27.0833645 8.1915"></polyline>
            <polyline id="Fill-365" fill="#251F19" points="47.4158255 28.4970556 45.4579439 26.5381667 46.5864174 25.4153889 48.5442991 27.3702963 47.4158255 28.4970556"></polyline>
            <polyline id="Fill-366" fill="#251F19" points="42.5470405 5.08992593 41.0716511 4.48474074 42.1243614 1.92464815 43.5997508 2.52983333 42.5470405 5.08992593"></polyline>
            <polyline id="Fill-367" fill="#251F19" points="31.7806854 31.7618704 30.305296 31.1606667 31.3580062 28.6005741 32.8333956 29.2057593 31.7806854 31.7618704"></polyline>
            <polyline id="Fill-368" fill="#251F19" points="24.4954517 12.4118704 21.9314642 11.3607593 22.5375701 9.88761111 25.1015576 10.9387222 24.4954517 12.4118704"></polyline>
            <polyline id="Fill-369" fill="#251F19" points="51.2119626 23.5600185 48.6479751 22.5089074 49.254081 21.0357593 51.8180685 22.0868704 51.2119626 23.5600185"></polyline>
            <polyline id="Fill-370" fill="#251F19" points="22.5495327 23.5759444 21.9314642 22.1027963 24.4914642 21.0357593 25.1055452 22.5089074 22.5495327 23.5759444"></polyline>
            <polyline id="Fill-371" fill="#251F19" points="49.2620561 12.4238148 48.6479751 10.9546481 51.2039875 9.88761111 51.8180685 11.3567778 49.2620561 12.4238148"></polyline>
            <polyline id="Fill-372" fill="#251F19" points="31.3779439 5.08992593 30.305296 2.5377963 31.7766978 1.92464815 32.8493458 4.47677778 31.3779439 5.08992593"></polyline>
            <polyline id="Fill-373" fill="#251F19" points="42.1403115 31.7698333 41.0716511 29.2177037 42.543053 28.6005741 43.6117134 31.1527037 42.1403115 31.7698333"></polyline>
            <path d="M39.788297,21.2905741 L34.2934683,21.2905741 C33.958515,21.2905741 33.6594496,21.0795556 33.543811,20.7650185 C33.4281724,20.4504815 33.5238733,20.0961296 33.7830633,19.8851111 C33.8269263,19.8452963 34.8836241,18.9733519 36.7657425,17.7231667 C38.9828141,16.246037 38.9828141,15.0834444 38.9828141,15.0715 C38.9788266,15.0396481 38.9828141,15.0515926 38.9828141,15.0157593 C38.9788266,14.6972407 38.8631879,13.0727963 37.0368951,13.0727963 C35.1468017,13.0727963 35.0909761,14.8166852 35.0909761,15.0157593 L33.4959605,15.0157593 C33.4959605,13.5943704 34.4370197,11.4802037 37.0368951,11.4802037 C39.6168328,11.4802037 40.5658671,13.5704815 40.5778297,14.9918704 C40.5977674,15.3820556 40.5100415,17.1418704 37.6509761,19.0450185 C37.3040602,19.2799259 36.9810696,19.4989074 36.6939668,19.6979815 L39.788297,19.6979815 L39.788297,21.2905741" id="Fill-374" fill="#251F19"></path>
            <path d="M66.6038629,118.148074 C66.5320872,118.148074 66.4642991,118.140111 66.3925234,118.120204 L47.0529595,112.860667 L47.4756386,111.323815 L66.4244237,116.479833 L87.0838629,100.139833 C87.2633022,99.9965 87.498567,99.9367778 87.7218692,99.9805741 L106.977695,103.547981 L124.231776,76.7765 L125.571589,77.6365 L108.026417,104.857889 C107.850966,105.12863 107.527975,105.267981 107.21296,105.208259 L87.7896573,101.612981 L67.0983178,117.97687 C66.9547664,118.088352 66.7833022,118.148074 66.6038629,118.148074" id="Fill-375" fill="#251F19"></path>
            <path d="M50.0037383,112.092241 C50.0037383,110.619093 48.8074766,109.424648 47.3320872,109.424648 C45.8566978,109.424648 44.6604361,110.619093 44.6604361,112.092241 C44.6604361,113.565389 45.8566978,114.759833 47.3320872,114.759833 C48.8074766,114.759833 50.0037383,113.565389 50.0037383,112.092241" id="Fill-376" fill="#3C280D"></path>
            <path d="M69.5426791,117.268167 C69.5426791,115.795019 68.3464174,114.600574 66.871028,114.600574 C65.3956386,114.600574 64.1993769,115.795019 64.1993769,117.268167 C64.1993769,118.741315 65.3956386,119.935759 66.871028,119.935759 C68.3464174,119.935759 69.5426791,118.741315 69.5426791,117.268167" id="Fill-377" fill="#3C280D"></path>
            <path d="M91.4741433,100.745019 C91.4741433,98.7184444 89.8312773,97.0820556 87.8056075,97.0820556 C85.7799377,97.0820556 84.1370717,98.7184444 84.1370717,100.745019 C84.1370717,102.767611 85.7799377,104.407981 87.8056075,104.407981 C89.8312773,104.407981 91.4741433,102.767611 91.4741433,100.745019" id="Fill-378" fill="#3C280D"></path>
            <path d="M110.135826,104.487611 C110.135826,103.03437 108.955514,101.859833 107.50405,101.859833 C106.048598,101.859833 104.872274,103.03437 104.872274,104.487611 C104.872274,105.93687 106.048598,107.115389 107.50405,107.115389 C108.955514,107.115389 110.135826,105.93687 110.135826,104.487611" id="Fill-379" fill="#3C280D"></path>
            <path d="M127.680997,77.0153889 C127.680997,75.5621481 126.500685,74.3876111 125.049221,74.3876111 C123.593769,74.3876111 122.417445,75.5621481 122.417445,77.0153889 C122.417445,78.4686296 123.593769,79.6431667 125.049221,79.6431667 C126.500685,79.6431667 127.680997,78.4686296 127.680997,77.0153889" id="Fill-380" fill="#3C280D"></path>
        </g>
        <circle id="Oval-45-Copy-2" fill="#9F9381" cx="32" cy="32" r="32"></circle>
        <text id="3" font-family="Lato-Bold, Lato" font-size="24" font-weight="bold" fill="#FFFFFF">
            <tspan x="25" y="39">3</tspan>
        </text>
    </g>
</svg>