<?xml version="1.0" encoding="UTF-8" standalone="no"?>
<svg width="208px" height="200px" viewBox="0 0 208 200" version="1.1" xmlns="http://www.w3.org/2000/svg" xmlns:xlink="http://www.w3.org/1999/xlink">
    <!-- Generator: Sketch 3.8.1 (29687) - http://www.bohemiancoding.com/sketch -->
    <title>4step</title>
    <desc>Created with Sketch.</desc>
    <defs></defs>
    <g id="Page-1" stroke="none" stroke-width="1" fill="none" fill-rule="evenodd">
        <circle id="Oval-42-Copy-2" fill="#FFFFFF" cx="100" cy="100" r="100"></circle>
        <g transform="translate(68.000000, 52.000000)">
            <polygon id="Fill-1" fill="#C9C2B8" points="108.606061 27.200425 139.859152 27.200425 139.859152 7.154025 108.606061 7.154025"></polygon>
            <polygon id="Fill-2" fill="#9F9381" points="0 94.678525 31.2526667 94.678525 31.2526667 81.6 0 81.6"></polygon>
            <g id="Group-34" transform="translate(6.000000, 0.000000)">
                <polygon id="Fill-22" fill="#3C280D" points="0.787878788 102 122.969697 102 122.969697 13.6 0.787878788 13.6"></polygon>
                <polygon id="Path" fill="#FFFFFF" points="2.48484848 100.3 121.272727 100.3 121.272727 15.3 2.48484848 15.3"></polygon>
                <polygon id="Fill-9" fill="#3C280D" points="68.6666667 47.6 75.5958182 47.6 75.5958182 40.658475 68.6666667 40.658475"></polygon>
                <polygon id="Fill-11" fill="#C9C2B8" points="68.6666667 61.27055 75.5958182 61.27055 75.5958182 54.32945 68.6666667 54.32945"></polygon>
                <polygon id="Fill-12" fill="#FFA706" points="68.6666667 75.15445 75.5958182 75.15445 75.5958182 68.2125 68.6666667 68.2125"></polygon>
                <polygon id="Fill-13" fill="#30241C" points="82.2424242 41.508475 106.070424 41.508475 106.070424 39.808475 82.2424242 39.808475"></polygon>
                <polygon id="Fill-14" fill="#30241C" points="82.2424242 48.45 95.8181818 48.45 95.8181818 46.75 82.2424242 46.75"></polygon>
                <polygon id="Fill-15" fill="#30241C" points="82.2424242 55.17945 106.070424 55.17945 106.070424 53.47945 82.2424242 53.47945"></polygon>
                <polygon id="Fill-16" fill="#30241C" points="82.2424242 62.12055 95.8181818 62.12055 95.8181818 60.42055 82.2424242 60.42055"></polygon>
                <polygon id="Fill-17" fill="#30241C" points="82.2424242 68.85 106.070424 68.85 106.070424 67.15 82.2424242 67.15"></polygon>
                <polygon id="Fill-18" fill="#30241C" points="82.2424242 75.791525 95.8181818 75.791525 95.8181818 74.091525 82.2424242 74.091525"></polygon>
                <polygon id="Fill-19" fill="#FFA706" points="34.8685455 14.30805 89.030303 14.30805 89.030303 0 34.8685455 0"></polygon>
                <polygon id="Fill-20" fill="#C9C2B8" points="14.2223636 136 21.1515152 136 21.1515152 101.15 14.2223636 101.15"></polygon>
                <polygon id="Fill-21" fill="#C9C2B8" points="102.606061 136 109.535212 136 109.535212 101.15 102.606061 101.15"></polygon>
                <polygon id="Fill-23" fill="#9F9381" points="21.0098182 115.9468 102.606061 115.9468 102.606061 108.658475 21.0098182 108.658475"></polygon>
                <polygon id="Fill-24" fill="#9F9381" points="21.0098182 129.4499 102.606061 129.4499 102.606061 122.161575 21.0098182 122.161575"></polygon>
                <polygon id="Fill-25" fill="#30241C" points="10.8988485 109.65 17.5454545 109.65 17.5454545 107.95 10.8988485 107.95"></polygon>
                <polygon id="Fill-26" fill="#30241C" points="4.25224242 116.45 10.8988485 116.45 10.8988485 114.75 4.25224242 114.75"></polygon>
                <polygon id="Fill-27" fill="#30241C" points="99.2825455 120.133475 105.929576 120.133475 105.929576 118.433475 99.2825455 118.433475"></polygon>
                <polygon id="Fill-28" fill="#30241C" points="106.211697 126.65595 112.858727 126.65595 112.858727 124.95595 106.211697 124.95595"></polygon>
                <polygon id="Fill-29" fill="#30241C" points="24.6158788 126.65595 31.2629091 126.65595 31.2629091 124.95595 24.6158788 124.95595"></polygon>
                <polygon id="Fill-30" fill="#3C280D" points="41.5151515 8.004025 48.1621818 8.004025 48.1621818 6.304025 41.5151515 6.304025"></polygon>
                <polygon id="Fill-31" fill="#3C280D" points="59.2624848 8.004025 65.9099394 8.004025 65.9099394 6.304025 59.2624848 6.304025"></polygon>
                <polygon id="Fill-32" fill="#3C280D" points="75.4545455 8.004025 82.1015758 8.004025 82.1015758 6.304025 75.4545455 6.304025"></polygon>
                <polygon id="Fill-33" fill="#30241C" points="112.858303 109.65 119.505333 109.65 119.505333 107.95 112.858303 107.95"></polygon>
                <path d="M34.7272727,40.658475 C25.2772727,40.658475 17.616303,48.333125 17.616303,57.8 C17.616303,61.9497 19.0884242,65.754725 21.538,68.71995 L34.7272727,57.8 L34.7272727,40.658475 L34.7272727,40.658475 Z" id="Fill-3" fill="#3C280D"></path>
                <path d="M50.3836424,50.8841875 C47.7295818,44.8627875 41.7201879,40.6586875 34.7274,40.6586875 L34.7274,57.8002125 L50.3836424,50.8841875 Z" id="Fill-5" fill="#C9C2B8"></path>
                <path d="M34.7272727,57.8 L21.538,68.71995 C24.6765455,72.5203 29.4191515,74.941525 34.7272727,74.941525 C44.1772727,74.941525 51.8382424,67.266875 51.8382424,57.8 C51.8382424,55.3384 51.3164242,53.00005 50.3835152,50.883975 L34.7272727,57.8 Z" id="Fill-7" fill="#FFA706"></path>
            </g>
        </g>
        <circle id="Oval-45-Copy-3" fill="#9F9381" cx="32" cy="32" r="32"></circle>
        <text id="4" font-family="Lato-Bold, Lato" font-size="24" font-weight="bold" fill="#FFFFFF">
            <tspan x="25" y="39">4</tspan>
        </text>
    </g>
</svg>