<?xml version="1.0" encoding="UTF-8" standalone="no"?>
<svg width="122px" height="122px" viewBox="0 0 122 122" version="1.1" xmlns="http://www.w3.org/2000/svg" xmlns:xlink="http://www.w3.org/1999/xlink">
    <!-- Generator: Sketch 3.8.1 (29687) - http://www.bohemiancoding.com/sketch -->
    <title>account</title>
    <desc>Created with Sketch.</desc>
    <defs>
        <circle id="path-1" cx="61" cy="61" r="60"></circle>
        <mask id="mask-2" maskContentUnits="userSpaceOnUse" maskUnits="objectBoundingBox" x="-1" y="-1" width="122" height="122">
            <rect x="0" y="0" width="122" height="122" fill="white"></rect>
            <use xlink:href="#path-1" fill="black"></use>
        </mask>
    </defs>
    <g id="Page-1" stroke="none" stroke-width="1" fill="none" fill-rule="evenodd">
        <g id="circle">
            <use fill="#E3DDD4" fill-rule="evenodd" xlink:href="#path-1"></use>
            <use stroke="#979797" mask="url(#mask-2)" stroke-width="2" xlink:href="#path-1"></use>
        </g>
        <g id="account" transform="translate(33.000000, 21.000000)">
            <path d="M52.6127568,40.7879245 C52.6127568,43.2883019 50.5801081,45.3162264 48.0722162,45.3162264 C45.5650811,45.3162264 43.5316757,43.2883019 43.5316757,40.7879245 C43.5316757,38.2867925 45.5650811,36.2596226 48.0722162,36.2596226 C50.5801081,36.2596226 52.6127568,38.2867925 52.6127568,40.7879245" id="Fill-1426" fill="#FFFFFF"></path>
            <path d="M48.0722162,37.7690566 C46.4035676,37.7690566 45.0451892,39.1230189 45.0451892,40.7879245 C45.0451892,42.4528302 46.4035676,43.8067925 48.0722162,43.8067925 C49.7416216,43.8067925 51.0992432,42.4528302 51.0992432,40.7879245 C51.0992432,39.1230189 49.7416216,37.7690566 48.0722162,37.7690566 L48.0722162,37.7690566 Z M48.0722162,46.8256604 C44.7341622,46.8256604 42.0181622,44.1169811 42.0181622,40.7879245 C42.0181622,37.4588679 44.7341622,34.7501887 48.0722162,34.7501887 C51.411027,34.7501887 54.1262703,37.4588679 54.1262703,40.7879245 C54.1262703,44.1169811 51.411027,46.8256604 48.0722162,46.8256604 L48.0722162,46.8256604 Z" id="Fill-1427" fill="#3C280D"></path>
            <path d="M53.9370811,20.7886792 C53.9370811,17.5864151 51.7727568,14.8935849 48.8259459,14.0716981 C48.8259459,14.0460377 48.828973,14.0211321 48.828973,13.9962264 C48.828973,10.1403774 45.6952432,7.01433962 41.828973,7.01433962 C41.0010811,7.01433962 40.2095135,7.16603774 39.4709189,7.42943396 C37.9642162,4.07320755 34.5928649,1.73132075 30.6668108,1.73132075 L26.883027,1.73132075 C22.9577297,1.73132075 19.5863784,4.07320755 18.0796757,7.42943396 C17.3418378,7.16528302 16.5502703,7.01433962 15.7208649,7.01433962 C11.8553514,7.01433962 8.72086486,10.1403774 8.72086486,13.9954717 C8.72086486,14.0211321 8.72464865,14.045283 8.72464865,14.0716981 C5.77783784,14.8935849 3.61275676,17.5856604 3.61275676,20.7879245 C3.61275676,22.7328302 4.41264865,24.4913208 5.69913514,25.7569811 C4.5307027,26.8883019 3.80194595,28.469434 3.80194595,30.2218868 C3.80194595,33.6603774 6.59816216,36.4483019 10.0451892,36.4483019 C13.4937297,36.4483019 16.2884324,33.6603774 16.2884324,30.2218868 C16.2884324,28.7358491 15.7655135,27.3735849 14.8944865,26.3033962 C16.5457297,25.0256604 41.0056216,25.0264151 42.6561081,26.3033962 C41.7858378,27.3735849 41.2614054,28.7366038 41.2614054,30.2226415 C41.2614054,33.6611321 44.0576216,36.4490566 47.5046486,36.4490566 C50.9531892,36.4490566 53.7478919,33.6611321 53.7478919,30.2226415 C53.7478919,28.4701887 53.0198919,26.8883019 51.8514595,25.7577358 C53.1387027,24.4913208 53.9370811,22.7328302 53.9370811,20.7886792" id="Fill-1428" fill="#FFA706"></path>
            <path d="M28.7726486,23.8354717 C37.5071351,23.8354717 42.4903784,24.2641509 43.5838919,25.1101887 L44.8068108,26.0550943 L43.8313514,27.2535849 C43.1404324,28.1033962 42.7749189,29.130566 42.7749189,30.2226415 C42.7749189,32.8226415 44.8968649,34.9396226 47.5046486,34.9396226 C50.1131892,34.9396226 52.2343784,32.8226415 52.2343784,30.2226415 C52.2343784,28.9388679 51.7243243,27.7381132 50.7972973,26.84 L49.6871351,25.7660377 L50.7882162,24.6830189 C51.8431351,23.645283 52.4235676,22.2626415 52.4235676,20.7886792 C52.4235676,18.3479245 50.7768649,16.1833962 48.4172973,15.5245283 L47.3124324,15.2166038 L47.3154595,13.9592453 C47.2965405,10.9592453 44.8423784,8.52377358 41.828973,8.52377358 C41.2091892,8.52377358 40.5878919,8.63396226 39.9817297,8.85056604 L38.6627027,9.32226415 L38.0898378,8.04679245 C36.7791351,5.12679245 33.8656216,3.24075472 30.6668108,3.24075472 L26.883027,3.24075472 C23.684973,3.24075472 20.7714595,5.12679245 19.4607568,8.04603774 L18.8878919,9.32226415 L17.5688649,8.85056604 C16.9634595,8.63320755 16.3414054,8.52377358 15.7208649,8.52377358 C12.7082162,8.52377358 10.2555676,10.9584906 10.2351351,13.9577358 C10.2374054,13.9962264 10.2381622,14.0332075 10.2381622,14.0716981 L10.2381622,15.2158491 L9.1332973,15.5245283 C6.77448649,16.1826415 5.12627027,18.3479245 5.12627027,20.7879245 C5.12627027,22.2618868 5.70745946,23.645283 6.76237838,24.6822642 L7.86345946,25.765283 L6.75405405,26.84 C5.82627027,27.7373585 5.31545946,28.9388679 5.31545946,30.2218868 C5.31545946,32.8226415 7.43740541,34.9388679 10.0451892,34.9388679 C12.6537297,34.9388679 14.7749189,32.8226415 14.7749189,30.2218868 C14.7749189,29.1298113 14.4101622,28.1026415 13.7192432,27.2535849 L12.7437838,26.0550943 L13.9674595,25.1101887 C15.0602162,24.2641509 20.0411892,23.8354717 28.7726486,23.8354717 L28.7726486,23.8354717 Z M47.5046486,37.9584906 C43.2282162,37.9584906 39.7478919,34.4875472 39.7478919,30.2226415 C39.7478919,29.2203774 39.9461622,28.229434 40.3215135,27.3101887 C38.2707027,27.0739623 34.3567568,26.8543396 28.7726486,26.8543396 C23.1915676,26.8543396 19.2798919,27.0732075 17.2298378,27.3101887 C17.6044324,28.229434 17.8019459,29.2196226 17.8019459,30.2218868 C17.8019459,34.4867925 14.3231351,37.9577358 10.0451892,37.9577358 C5.76875676,37.9577358 2.28843243,34.4867925 2.28843243,30.2218868 C2.28843243,28.5984906 2.78637838,27.0550943 3.71037838,25.7592453 C2.66454054,24.3215094 2.09924324,22.5984906 2.09924324,20.7879245 C2.09924324,17.3735849 4.1772973,14.3056604 7.26789189,12.9864151 C7.76962162,8.77811321 11.3695135,5.50490566 15.7208649,5.50490566 C16.2505946,5.50490566 16.7788108,5.5554717 17.300973,5.65584906 C19.2988108,2.31698113 22.9327568,0.221886792 26.883027,0.221886792 L30.6668108,0.221886792 C34.6185946,0.221886792 38.2517838,2.31773585 40.2496216,5.65584906 C40.7717838,5.5554717 41.3,5.50490566 41.828973,5.50490566 C46.1810811,5.50490566 49.780973,8.77886792 50.2834595,12.9864151 C53.3732973,14.3071698 55.4505946,17.3735849 55.4505946,20.7886792 C55.4505946,22.5992453 54.8868108,24.3222642 53.8402162,25.7592453 C54.7642162,27.0550943 55.2614054,28.5984906 55.2614054,30.2226415 C55.2614054,34.4875472 51.7825946,37.9584906 47.5046486,37.9584906 L47.5046486,37.9584906 Z" id="Fill-1429" fill="#3C280D"></path>
            <path d="M53.651027,79.2739623 L53.651027,70.3871698 C53.651027,66.4603774 50.0465946,63.2769811 45.5976216,63.2769811 L34.1372973,63.2769811 C34.1531892,63.0988679 34.1645405,62.92 34.1645405,62.7373585 L34.1645405,47.2656604 C34.1645405,43.9313208 31.4538378,41.2279245 28.1104865,41.2279245 L27.7321081,41.2279245 C24.3887568,41.2279245 21.6780541,43.9313208 21.6780541,47.2656604 L21.6780541,62.7373585 C21.6780541,62.92 21.6894054,63.0988679 21.7060541,63.2769811 L10.2472432,63.2769811 C5.79827027,63.2769811 2.19156757,66.4603774 2.19156757,70.3871698 L2.19156757,79.2739623" id="Fill-1430" fill="#E3DDD4"></path>
            <path d="M55.1645405,79.2739623 L52.1375135,79.2739623 L52.1375135,70.3871698 C52.1375135,67.2988679 49.2043243,64.7864151 45.5976216,64.7864151 L32.4868108,64.7864151 L32.6298378,63.1464151 C32.6419459,63.0113208 32.651027,62.8762264 32.651027,62.7373585 L32.651027,47.2656604 C32.651027,44.7683019 30.6145946,42.7373585 28.1104865,42.7373585 L27.7321081,42.7373585 C25.2287568,42.7373585 23.1915676,44.7683019 23.1915676,47.2656604 L23.1915676,62.7373585 C23.1915676,62.8739623 23.2014054,63.0067925 23.2135135,63.1396226 L23.3633514,64.7864151 L10.2472432,64.7864151 C6.63978378,64.7864151 3.70508108,67.2988679 3.70508108,70.3871698 L3.70508108,79.2739623 L0.678054054,79.2739623 L0.678054054,70.3871698 C0.678054054,65.6339623 4.97113514,61.7675472 10.2472432,61.7675472 L20.1645405,61.7675472 L20.1645405,47.2656604 C20.1645405,43.1041509 23.5601081,39.7184906 27.7321081,39.7184906 L28.1104865,39.7184906 C32.284,39.7184906 35.6780541,43.1041509 35.6780541,47.2656604 L35.6780541,61.7675472 L45.5976216,61.7675472 C50.8737297,61.7675472 55.1645405,65.6339623 55.1645405,70.3871698 L55.1645405,79.2739623" id="Fill-1431" fill="#3C280D"></path>
            <path d="M46.9567568,18.5237736 L46.9567568,40.4649057 C46.9567568,50.3773585 38.8995676,58.4128302 28.9603243,58.4128302 C19.0203243,58.4128302 10.9623784,50.3773585 10.9623784,40.4649057 L10.9623784,18.5237736" id="Fill-1432" fill="#E3DDD4"></path>
            <path d="M28.9603243,59.9222642 C18.2015135,59.9222642 9.44886486,51.1939623 9.44886486,40.4649057 L9.44886486,18.5237736 L12.4758919,18.5237736 L12.4758919,40.4649057 C12.4758919,49.5298113 19.8709189,56.9033962 28.9603243,56.9033962 C38.0482162,56.9033962 45.4432432,49.5298113 45.4432432,40.4649057 L45.4432432,18.5237736 L48.4702703,18.5237736 L48.4702703,40.4649057 C48.4702703,51.1939623 39.7176216,59.9222642 28.9603243,59.9222642" id="Fill-1433" fill="#3C280D"></path>
            <path d="M28.9641081,52.3388679 C30.5661622,52.3388679 31.979027,51.3607547 32.8424865,49.8656604" id="Fill-1434" fill="#FFFFFF"></path>
            <path d="M28.9641081,53.8483019 L28.9641081,50.829434 C29.9652973,50.829434 30.9006486,50.2037736 31.5317838,49.1109434 L34.1539459,50.6188679 C32.9855135,52.6415094 31.0451892,53.8483019 28.9641081,53.8483019" id="Fill-1435" fill="#282D33"></path>
            <path d="M33.5682162,44.2467925 C31.8988108,44.2467925 30.5411892,42.8928302 30.5411892,41.2279245 L30.5411892,31.6686792 C30.5411892,30.0045283 31.8988108,28.6498113 33.5682162,28.6498113 L43.1540541,28.6498113 C44.8227027,28.6498113 46.1810811,30.0045283 46.1810811,31.6686792 L46.1810811,41.2279245 C46.1810811,42.8928302 44.8227027,44.2467925 43.1540541,44.2467925 L33.5682162,44.2467925" id="Fill-1436" fill="#A09381"></path>
            <path d="M33.5682162,30.1592453 C32.7335135,30.1592453 32.0547027,30.8354717 32.0547027,31.6686792 L32.0547027,41.2279245 C32.0547027,42.0603774 32.7335135,42.7373585 33.5682162,42.7373585 L43.1540541,42.7373585 C43.9887568,42.7373585 44.6675676,42.0603774 44.6675676,41.2279245 L44.6675676,31.6686792 C44.6675676,30.8354717 43.9887568,30.1592453 43.1540541,30.1592453 L33.5682162,30.1592453 L33.5682162,30.1592453 Z M43.1540541,45.7562264 L33.5682162,45.7562264 C31.0648649,45.7562264 29.0276757,43.725283 29.0276757,41.2279245 L29.0276757,31.6686792 C29.0276757,29.1713208 31.0648649,27.1403774 33.5682162,27.1403774 L43.1540541,27.1403774 C45.6574054,27.1403774 47.6945946,29.1713208 47.6945946,31.6686792 L47.6945946,41.2279245 C47.6945946,43.725283 45.6574054,45.7562264 43.1540541,45.7562264 L43.1540541,45.7562264 Z" id="Fill-1437" fill="#3C280D"></path>
            <path d="M11.875027,44.2467925 C10.2056216,44.2467925 8.848,42.8928302 8.848,41.2279245 L8.848,31.6686792 C8.848,30.0045283 10.2056216,28.6498113 11.875027,28.6498113 L21.4608649,28.6498113 C23.1295135,28.6498113 24.4878919,30.0045283 24.4878919,31.6686792 L24.4878919,41.2279245 C24.4878919,42.8928302 23.1295135,44.2467925 21.4608649,44.2467925 L11.875027,44.2467925" id="Fill-1438" fill="#A09381"></path>
            <path d="M11.875027,30.1592453 C11.0403243,30.1592453 10.3615135,30.8354717 10.3615135,31.6686792 L10.3615135,41.2279245 C10.3615135,42.0603774 11.0403243,42.7373585 11.875027,42.7373585 L21.4608649,42.7373585 C22.2955676,42.7373585 22.9743784,42.0603774 22.9743784,41.2279245 L22.9743784,31.6686792 C22.9743784,30.8354717 22.2955676,30.1592453 21.4608649,30.1592453 L11.875027,30.1592453 L11.875027,30.1592453 Z M21.4608649,45.7562264 L11.875027,45.7562264 C9.37167568,45.7562264 7.33448649,43.725283 7.33448649,41.2279245 L7.33448649,31.6686792 C7.33448649,29.1713208 9.37167568,27.1403774 11.875027,27.1403774 L21.4608649,27.1403774 C23.9642162,27.1403774 26.0014054,29.1713208 26.0014054,31.6686792 L26.0014054,41.2279245 C26.0014054,43.725283 23.9642162,45.7562264 21.4608649,45.7562264 L21.4608649,45.7562264 Z" id="Fill-1439" fill="#3C280D"></path>
            <path d="M32.0547027,36.6996226 L29.0276757,36.6996226 C29.0276757,35.8671698 28.3496216,35.1901887 27.5149189,35.1901887 C26.6802162,35.1901887 26.0006486,35.8671698 26.0006486,36.6996226 L22.9736216,36.6996226 C22.9736216,34.2022642 25.0108108,32.1713208 27.5149189,32.1713208 C30.0182703,32.1713208 32.0547027,34.2022642 32.0547027,36.6996226" id="Fill-1440" fill="#3C280D"></path>
            <path d="M23.0508108,18.554717 C23.0508108,21.7954717 20.4165405,24.4233962 17.1655135,24.4233962 C13.9152432,24.4233962 11.2802162,21.7954717 11.2802162,18.554717" id="Fill-1441" fill="#FFA706"></path>
            <path d="M17.1655135,25.9328302 C13.0858378,25.9328302 9.7667027,22.6233962 9.7667027,18.554717 L12.7937297,18.554717 C12.7937297,20.9584906 14.7552432,22.9139623 17.1655135,22.9139623 C19.5765405,22.9139623 21.5372973,20.9584906 21.5372973,18.554717 L24.5643243,18.554717 C24.5643243,22.6233962 21.2451892,25.9328302 17.1655135,25.9328302" id="Fill-1442" fill="#3C280D"></path>
            <path d="M35.1309189,18.554717 C35.1309189,21.7954717 32.4966486,24.4233962 29.2456216,24.4233962 C25.9961081,24.4233962 23.3610811,21.7954717 23.3610811,18.554717" id="Fill-1443" fill="#FFA706"></path>
            <path d="M29.2456216,25.9328302 C25.1667027,25.9328302 21.8475676,22.6233962 21.8475676,18.554717 L24.8745946,18.554717 C24.8745946,20.9584906 26.8361081,22.9139623 29.2456216,22.9139623 C31.6566486,22.9139623 33.6174054,20.9584906 33.6174054,18.554717 L36.6444324,18.554717 C36.6444324,22.6233962 33.3260541,25.9328302 29.2456216,25.9328302" id="Fill-1444" fill="#3C280D"></path>
            <path d="M47.0278919,18.554717 C47.0278919,21.7954717 44.3928649,24.4233962 41.1418378,24.4233962 C37.8915676,24.4233962 35.2572973,21.7954717 35.2572973,18.554717" id="Fill-1445" fill="#FFA706"></path>
            <path d="M41.1418378,25.9328302 C37.0629189,25.9328302 33.7437838,22.6233962 33.7437838,18.554717 L36.7708108,18.554717 C36.7708108,20.9584906 38.7323243,22.9139623 41.1418378,22.9139623 C43.5528649,22.9139623 45.5143784,20.9584906 45.5143784,18.554717 L48.5414054,18.554717 C48.5414054,22.6233962 45.2215135,25.9328302 41.1418378,25.9328302" id="Fill-1446" fill="#3C280D"></path>
            <path d="M36.4983784,75.9449057 L19.344973,75.9449057 C15.1722162,75.9449057 11.7774054,72.56 11.7774054,68.3977358 L11.7774054,63.3667925 L14.8044324,63.3667925 L14.8044324,68.3977358 C14.8044324,70.8950943 16.8416216,72.9260377 19.344973,72.9260377 L36.4983784,72.9260377 C39.0024865,72.9260377 41.0389189,70.8950943 41.0389189,68.3977358 L41.0389189,63.3667925 L44.0659459,63.3667925 L44.0659459,68.3977358 C44.0659459,72.56 40.6711351,75.9449057 36.4983784,75.9449057" id="Fill-1447" fill="#3C280D"></path>
        </g>
    </g>
</svg>