<?xml version="1.0" encoding="UTF-8" standalone="no"?>
<svg width="18px" height="18px" viewBox="0 0 18 18" version="1.1" xmlns="http://www.w3.org/2000/svg" xmlns:xlink="http://www.w3.org/1999/xlink">
    <!-- Generator: Sketch 3.8.1 (29687) - http://www.bohemiancoding.com/sketch -->
    <title>book</title>
    <desc>Created with Sketch.</desc>
    <defs></defs>
    <g id="Page-1" stroke="none" stroke-width="1" fill="none" fill-rule="evenodd">
        <path d="M6.734,11.1595646 L2.773,9.57556465 L2.773,10.9155646 L6.734,12.5005646 L6.734,11.1595646 L6.734,11.1595646 Z M6.734,7.04656465 L2.773,5.46156465 L2.773,6.80256465 L6.734,8.38756465 L6.734,7.04656465 L6.734,7.04656465 Z M17.388,0.170564648 C17.116,-0.0134353517 16.77,-0.0514353517 16.465,0.0705646483 L8.912,3.09156465 L1.358,0.0705646483 C1.053,-0.0514353517 0.708,-0.0134353517 0.435,0.170564648 C0.164,0.354564648 -1.42108547e-14,0.661564648 -1.42108547e-14,0.990564648 L-1.42108547e-14,13.6635646 C-1.42108547e-14,14.0685646 0.246,14.4325646 0.622,14.5825646 L8.526,17.7445646 C8.526,17.7445646 8.688,17.7965646 8.718,17.8035646 C8.781,17.8155646 8.845,17.8225646 8.91,17.8225646 C8.974,17.8225646 9.038,17.8155646 9.102,17.8035646 C9.132,17.7965646 9.295,17.7435646 9.295,17.7435646 L17.198,14.5825646 C17.574,14.4325646 17.821,14.0685646 17.821,13.6635646 L17.821,0.990564648 C17.823,0.662564648 17.66,0.354564648 17.388,0.170564648 L17.388,0.170564648 Z M7.922,15.7965646 L1.585,13.2625646 L1.585,2.16456465 L7.922,4.69956465 L7.922,15.7965646 L7.922,15.7965646 Z M16.239,13.2625646 L9.902,15.7965646 L9.902,4.69956465 L16.239,2.16456465 L16.239,13.2625646 L16.239,13.2625646 Z M15.051,9.57556465 L11.09,11.1595646 L11.09,12.5005646 L15.051,10.9155646 L15.051,9.57556465 L15.051,9.57556465 Z M15.051,5.46156465 L11.09,7.04656465 L11.09,8.38756465 L15.051,6.80256465 L15.051,5.46156465 L15.051,5.46156465 Z" id="book" fill="#A09381"></path>
    </g>
</svg>