<?xml version="1.0" encoding="UTF-8" standalone="no"?>
<svg width="18px" height="18px" viewBox="0 0 18 18" version="1.1" xmlns="http://www.w3.org/2000/svg" xmlns:xlink="http://www.w3.org/1999/xlink">
    <!-- Generator: Sketch 3.8.1 (29687) - http://www.bohemiancoding.com/sketch -->
    <title>circle</title>
    <desc>Created with Sketch.</desc>
    <defs></defs>
    <g id="Page-1" stroke="none" stroke-width="1" fill="none" fill-rule="evenodd">
        <path d="M8.515,0 C3.813,0 0,3.812 0,8.515 C0,13.218 3.812,17.03 8.515,17.03 C13.218,17.03 17.031,13.218 17.031,8.515 C17.031,3.813 13.218,0 8.515,0 L8.515,0 Z M7.821,15.412 C4.548,15.087 1.944,12.483 1.619,9.209 L1.619,7.822 C1.944,4.549 4.548,1.945 7.821,1.62 L9.208,1.62 C12.483,1.945 15.086,4.549 15.411,7.822 L15.411,9.209 C15.086,12.483 12.484,15.086 9.208,15.412 L7.821,15.412 Z" id="circle" fill="#A09381"></path>
    </g>
</svg>