<?xml version="1.0" encoding="UTF-8" standalone="no"?>
<svg width="480px" height="399px" viewBox="0 0 480 399" version="1.1" xmlns="http://www.w3.org/2000/svg" xmlns:xlink="http://www.w3.org/1999/xlink">
    <!-- Generator: Sketch 3.8.1 (29687) - http://www.bohemiancoding.com/sketch -->
    <title>computer</title>
    <desc>Created with Sketch.</desc>
    <defs></defs>
    <g id="Page-1" stroke="none" stroke-width="1" fill="none" fill-rule="evenodd">
        <path d="M19.2029596,274.0104 L460.802732,274.0104 L460.802732,19.2318 L19.2029596,19.2318 L19.2029596,274.0104 Z M479.908937,11.115 C479.447929,4.9077 474.319931,0 468.002419,0 L12.0032726,0 C5.6857607,0 0.563453763,4.9077 0.0967546866,11.115 L0,319.6788 C0,326.3193 5.37273083,331.7001 11.9975811,331.7001 L468.002419,331.7001 C474.632961,331.7001 480,326.3193 480,319.6788 L479.908937,11.115 Z M316.803301,389.3841 C297.600341,384.579 292.802447,370.1523 292.802447,350.9262 L292.802447,346.1211 L240.002846,346.1211 L187.203244,346.1211 L187.203244,350.9262 C187.203244,370.1523 182.40535,384.579 163.20239,389.3841 C158.546783,390.5469 158.404496,399 163.20239,399 L240.002846,399 L316.803301,399 C321.601195,399 321.458909,390.5526 316.803301,389.3841 Z" id="computer" fill="#A09381"></path>
    </g>
</svg>