<?xml version="1.0" encoding="UTF-8" standalone="no"?>
<svg width="120px" height="120px" viewBox="0 0 120 120" version="1.1" xmlns="http://www.w3.org/2000/svg" xmlns:xlink="http://www.w3.org/1999/xlink">
    <!-- Generator: Sketch 3.8.1 (29687) - http://www.bohemiancoding.com/sketch -->
    <title>director</title>
    <desc>Created with Sketch.</desc>
    <defs></defs>
    <g id="Page-1" stroke="none" stroke-width="1" fill="none" fill-rule="evenodd">
        <circle id="circle" fill="#E3DDD4" cx="60" cy="60" r="60"></circle>
        <g id="director" transform="translate(28.000000, 21.000000)">
            <path d="M1.7537561,75.6233333 L1.7537561,65.2088889 C1.7537561,60.6044444 5.98321951,56.8788889 11.2023415,56.8788889 L52.6641951,56.8788889 C57.8817561,56.8788889 62.110439,60.6044444 62.110439,65.2088889 L62.110439,75.6233333" id="Fill-268" fill="#E3DDD4"></path>
            <path d="M63.6714146,75.6233333 L60.5494634,75.6233333 L60.5494634,65.2088889 C60.5494634,61.4755556 57.0122927,58.4344444 52.6641951,58.4344444 L11.2023415,58.4344444 C6.85268293,58.4344444 3.31473171,61.4755556 3.31473171,65.2088889 L3.31473171,75.6233333 L0.192780488,75.6233333 L0.192780488,65.2088889 C0.192780488,59.7566667 5.13092683,55.3233333 11.2023415,55.3233333 L52.6641951,55.3233333 C58.7332683,55.3233333 63.6714146,59.7566667 63.6714146,65.2088889 L63.6714146,75.6233333" id="Fill-269" fill="#3C280D"></path>
            <polyline id="Fill-270" fill="#E3DDD4" points="39.868878 56.9644444 31.9320976 61.53 23.9945366 56.9644444 23.9945366 39.69 39.8696585 39.69 39.868878 56.9644444"></polyline>
            <path d="M25.5555122,56.0622222 L31.9320976,59.7333333 L38.3079024,56.0622222 L38.3086829,41.2455556 L25.5555122,41.2455556 L25.5555122,56.0622222 L25.5555122,56.0622222 Z M31.9320976,63.3266667 L22.433561,57.8666667 L22.433561,38.1344444 L41.4306341,38.1344444 L41.4298537,57.8666667 L31.9320976,63.3266667 L31.9320976,63.3266667 Z" id="Fill-271" fill="#3C280D"></path>
            <path d="M50.6130732,34.5022222 C50.6130732,44.7144444 42.3032195,52.9977778 32.0515122,52.9977778 C21.8005854,52.9977778 13.4907317,44.7144444 13.4907317,34.5022222 L13.4907317,18.4333333 C13.4907317,8.22111111 21.8005854,8.98333333 32.0515122,8.98333333 C42.3032195,8.98333333 50.6130732,8.22111111 50.6130732,18.4333333 L50.6130732,34.5022222" id="Fill-272" fill="#E3DDD4"></path>
            <path d="M28.1537561,10.5311111 C19.2476098,10.5311111 15.0517073,11.3088889 15.0517073,18.4333333 L15.0517073,34.5022222 C15.0517073,43.8433333 22.6778537,51.4422222 32.0515122,51.4422222 C41.4251707,51.4422222 49.0520976,43.8433333 49.0520976,34.5022222 L49.0520976,18.4333333 C49.0520976,11.3088889 44.8554146,10.5311111 35.9492683,10.5311111 L34.0682927,10.5311111 C32.7430244,10.5388889 31.3592195,10.5388889 30.0347317,10.5311111 L28.1537561,10.5311111 L28.1537561,10.5311111 Z M32.0515122,54.5533333 C20.956878,54.5533333 11.9297561,45.5544444 11.9297561,34.5022222 L11.9297561,18.4333333 C11.9297561,7.42 20.9256585,7.42 28.1537561,7.42 L30.0503415,7.42 C31.3646829,7.42777778 32.737561,7.42777778 34.0526829,7.42777778 C34.6958049,7.42 35.3287805,7.42 35.9492683,7.42 C43.1773659,7.42 52.1740488,7.42 52.1740488,18.4333333 L52.1740488,34.5022222 C52.1740488,45.5544444 43.1469268,54.5533333 32.0515122,54.5533333 L32.0515122,54.5533333 Z" id="Fill-273" fill="#3C280D"></path>
            <polygon id="Fill-274" fill="#3C280D" points="22.5553171 30.8777778 25.9379512 30.8777778 25.9379512 27.7666667 22.5553171 27.7666667"></polygon>
            <polygon id="Fill-275" fill="#3C280D" points="38.1650732 30.8777778 41.5477073 30.8777778 41.5477073 27.7666667 38.1650732 27.7666667"></polygon>
            <path d="M40.6173659,42.4122222 C40.416,39.5888889 38.0597073,37.3566667 35.1734634,37.3566667 L28.929561,37.3566667 C26.0440976,37.3566667 23.6870244,39.5888889 23.486439,42.4122222 L40.6173659,42.4122222" id="Fill-276" fill="#FFA706"></path>
            <path d="M25.5570732,40.8566667 L38.5459512,40.8566667 C37.8677073,39.6977778 36.6017561,38.9122222 35.1734634,38.9122222 L28.929561,38.9122222 C27.5020488,38.9122222 26.2360976,39.6977778 25.5570732,40.8566667 L25.5570732,40.8566667 Z M42.2930732,43.9677778 L21.8107317,43.9677778 L21.9293659,42.3033333 C22.1884878,38.6633333 25.2636098,35.8011111 28.929561,35.8011111 L35.1734634,35.8011111 C38.8401951,35.8011111 41.9153171,38.6633333 42.174439,42.3033333 L42.2930732,43.9677778 L42.2930732,43.9677778 Z" id="Fill-277" fill="#3C280D"></path>
            <path d="M48.4558049,6.41666667 L48.4558049,5.21111111 C48.4558049,3.49222222 47.0891707,2.1 45.4040976,2.1 L18.6989268,2.1 C17.0138537,2.1 15.6472195,3.49222222 15.6472195,5.21111111 L15.6472195,6.41666667 C12.1537561,6.53333333 9.35258537,9.45 9.35258537,13.0355556 L10.913561,34.8133333 L13.9309268,37.9244444 C13.9309268,37.9244444 15.3116098,20.4088889 17.2035122,14.6766667 L32.0515122,17.4066667 L46.8995122,14.6766667 C48.7914146,20.4088889 50.1720976,37.9244444 50.1720976,37.9244444 L53.1894634,34.8133333 L54.750439,13.0355556 C54.750439,9.45 51.9492683,6.53333333 48.4558049,6.41666667" id="Fill-278" fill="#FFA706"></path>
            <path d="M47.9562927,12.8955556 L48.382439,14.1866667 C49.8068293,18.5033333 50.9221463,28.9411111 51.4310244,34.3933333 L51.6729756,34.1444444 L53.1894634,12.9888889 C53.1629268,10.2588889 51.0712195,8.05777778 48.4050732,7.97222222 L46.8948293,7.92555556 L46.8948293,5.21111111 C46.8948293,4.35555556 46.2267317,3.65555556 45.4040976,3.65555556 L18.6989268,3.65555556 C17.8770732,3.65555556 17.2081951,4.35555556 17.2081951,5.21111111 L17.2081951,7.92555556 L15.6987317,7.97222222 C13.0325854,8.05777778 10.9400976,10.2588889 10.913561,12.9888889 L12.4300488,34.1444444 L12.6727805,34.3933333 C13.180878,28.9411111 14.2954146,18.5033333 15.7213659,14.1866667 L16.1467317,12.8955556 L32.0515122,15.82 L47.9562927,12.8955556 L47.9562927,12.8955556 Z M48.8874146,41.4866667 L48.6165854,38.0488889 C48.6033171,37.8855556 47.4122927,22.9522222 45.7865366,16.4577778 L32.0515122,18.9855556 L18.3164878,16.4577778 C16.6907317,22.9522222 15.4997073,37.8855556 15.4872195,38.0488889 L15.2156098,41.4866667 L9.39707317,35.49 L7.79160976,13.0355556 C7.79160976,9.12333333 10.4577561,5.86444444 14.0893659,5.05555556 C14.1720976,2.55111111 16.2083902,0.544444444 18.6989268,0.544444444 L45.4040976,0.544444444 C47.8954146,0.544444444 49.9317073,2.55111111 50.014439,5.05555556 C53.6452683,5.86444444 56.3114146,9.12333333 56.3114146,13.0355556 L56.3075122,13.1444444 L54.7059512,35.49 L48.8874146,41.4866667 L48.8874146,41.4866667 Z" id="Fill-279" fill="#3C280D"></path>
            <path d="M14.7402927,27.0588889 C12.8897561,27.0355556 9.76078049,28.07 9.5875122,29.7266667 L8.97404878,35.5988889 C8.80078049,37.2555556 11.6487805,38.9122222 13.4641951,39.27 L14.7402927,27.0588889" id="Fill-280" fill="#E3DDD4"></path>
            <path d="M12.9795122,28.8866667 C12.0249756,29.1666667 11.2507317,29.61 11.1352195,29.9133333 L10.526439,35.7622222 C10.5779512,36.0577778 11.2530732,36.6488889 12.1194146,37.1155556 L12.9795122,28.8866667 L12.9795122,28.8866667 Z M14.8394146,41.1211111 L13.1613659,40.7944444 C11.0759024,40.3822222 7.11960976,38.3288889 7.42165854,35.4355556 L8.03512195,29.5633333 C8.33482927,26.6933333 12.5112195,25.5033333 14.6809756,25.5033333 L16.4698537,25.5266667 L14.8394146,41.1211111 L14.8394146,41.1211111 Z" id="Fill-281" fill="#3C280D"></path>
            <path d="M49.12,27.4633333 C50.9705366,27.4866667 54.1291707,28.5988889 54.3477073,30.2633333 L55.1242927,36.1511111 C55.3436098,37.8077778 52.540878,39.3944444 50.7348293,39.7133333 L49.12,27.4633333" id="Fill-282" fill="#E3DDD4"></path>
            <path d="M50.944,29.3611111 L52.033561,37.6211111 C52.8702439,37.1933333 53.5258537,36.6333333 53.5765854,36.3222222 L52.8,30.4655556 C52.6961951,30.1622222 51.9086829,29.68 50.944,29.3611111 L50.944,29.3611111 Z M49.3986341,41.5255556 L47.3365854,25.8922222 L49.1387317,25.9077778 C51.3077073,25.9388889 55.5153171,27.1833333 55.8954146,30.0611111 L56.672,35.9488889 C57.0606829,38.8888889 53.1059512,40.88 51.0025366,41.2455556 L49.3986341,41.5255556 L49.3986341,41.5255556 Z" id="Fill-283" fill="#3C280D"></path>
            <polyline id="Fill-284" fill="#A09381" points="29.7514146 69.3466667 27.5566829 65.5511111 29.7514146 61.7633333 34.1416585 61.7633333 36.3371707 65.5511111 34.1416585 69.3466667 29.7514146 69.3466667"></polyline>
            <path d="M30.652878,67.7911111 L33.2409756,67.7911111 L34.5350244,65.5511111 L33.2409756,63.3188889 L30.652878,63.3188889 L29.3588293,65.5511111 L30.652878,67.7911111 L30.652878,67.7911111 Z M35.043122,70.9022222 L28.8507317,70.9022222 L25.7545366,65.5511111 L28.8507317,60.2077778 L35.043122,60.2077778 L38.1393171,65.5511111 L35.043122,70.9022222 L35.043122,70.9022222 Z" id="Fill-285" fill="#3C280D"></path>
            <polyline id="Fill-286" fill="#A09381" points="28.3371707 76.2455556 29.7514146 69.3466667 34.1416585 69.3466667 35.5566829 76.2455556"></polyline>
            <polyline id="Fill-287" fill="#3C280D" points="34.0277073 76.5644444 32.8679024 70.9022222 31.0259512 70.9022222 29.8669268 76.5644444 26.8081951 75.9344444 28.4776585 67.7911111 35.4161951 67.7911111 37.086439 75.9344444 34.0277073 76.5644444"></polyline>
            <polyline id="Fill-288" fill="#E3DDD4" points="23.1422439 67.5422222 31.9227317 61.7633333 23.8353171 57.1122222 23.1422439 67.5422222"></polyline>
            <path d="M25.2277073,59.7022222 L24.9084878,64.5166667 L28.956878,61.8488889 L25.2277073,59.7022222 L25.2277073,59.7022222 Z M21.377561,70.5755556 L22.4437073,54.5144444 L34.8893659,61.67 L21.377561,70.5755556 L21.377561,70.5755556 Z" id="Fill-289" fill="#3C280D"></path>
            <polyline id="Fill-290" fill="#E3DDD4" points="40.7508293 67.55 31.9703415 61.7633333 40.0569756 57.1122222 40.7508293 67.55"></polyline>
            <path d="M34.9369756,61.8488889 L38.9853659,64.5166667 L38.6653659,59.71 L34.9369756,61.8488889 L34.9369756,61.8488889 Z M42.5170732,70.5755556 L29.0044878,61.67 L41.4485854,54.5144444 L42.5170732,70.5755556 L42.5170732,70.5755556 Z" id="Fill-291" fill="#3C280D"></path>
        </g>
    </g>
</svg>