<?xml version="1.0" encoding="UTF-8" standalone="no"?>
<svg width="24px" height="24px" viewBox="0 0 24 24" version="1.1" xmlns="http://www.w3.org/2000/svg" xmlns:xlink="http://www.w3.org/1999/xlink">
    <!-- Generator: Sketch 3.8.1 (29687) - http://www.bohemiancoding.com/sketch -->
    <title>dollar</title>
    <desc>Created with Sketch.</desc>
    <defs></defs>
    <g id="Page-1" stroke="none" stroke-width="1" fill="none" fill-rule="evenodd">
        <g id="dollar" fill="#FFA706">
            <path d="M12,24 C5.4,24 0,18.6 0,12 C0,5.4 5.4,0 12,0 C18.6,0 24,5.4 24,12 C24,18.6 18.6,24 12,24 L12,24 Z M12,2 C6.5,2 2,6.5 2,12 C2,17.5 6.5,22 12,22 C17.5,22 22,17.5 22,12 C22,6.5 17.5,2 12,2 L12,2 Z" id="Shape"></path>
            <path d="M12,13 C10.1,13 8.5,11.8 8.1,10.2 C8,10 8,9.8 8,9.5 C8,7.6 9.8,6 12,6 C14.2,6 16,7.6 16,9.5 C16,9.8 16,10 15.9,10.2 C15.8,10.7 15.2,11.1 14.7,10.9 C14.2,10.8 13.8,10.2 14,9.7 L14,9.4 C14,8.7 13.1,8 12,8 C10.9,8 10,8.7 10,9.5 L10,9.8 C10.2,10.5 11,11 12,11 C12.6,11 13,11.4 13,12 C13,12.6 12.6,13 12,13 L12,13 Z" id="Shape"></path>
            <path d="M12,18 C9.8,18 8,16.4 8,14.5 C8,14.2 8,14 8.1,13.8 C8.2,13.3 8.8,12.9 9.3,13.1 C9.8,13.2 10.2,13.8 10,14.3 L10,14.6 C10,15.4 10.9,16.1 12,16.1 C13.1,16.1 14,15.4 14,14.6 L14,14.3 C13.8,13.6 13,13.1 12,13.1 C11.4,13.1 11,12.7 11,12.1 C11,11.5 11.4,11.1 12,11.1 C13.9,11.1 15.5,12.3 15.9,13.9 C16,14 16,14.2 16,14.5 C16,16.4 14.2,18 12,18 L12,18 Z" id="Shape"></path>
            <path d="M12,20 C11.4,20 11,19.6 11,19 L11,17 C11,16.4 11.4,16 12,16 C12.6,16 13,16.4 13,17 L13,19 C13,19.6 12.6,20 12,20 L12,20 Z" id="Shape"></path>
            <path d="M12,8 C11.4,8 11,7.6 11,7 L11,5 C11,4.4 11.4,4 12,4 C12.6,4 13,4.4 13,5 L13,7 C13,7.6 12.6,8 12,8 L12,8 Z" id="Shape"></path>
            <path d="M15,11 C14.7,11 14.5,10.9 14.3,10.7 C14.1,10.5 14,10.3 14,10 C14,9.7 14.1,9.5 14.3,9.3 C14.7,8.9 15.3,8.9 15.7,9.3 C15.9,9.5 16,9.7 16,10 C16,10.3 15.9,10.5 15.7,10.7 C15.5,10.9 15.3,11 15,11 L15,11 Z" id="Shape"></path>
        </g>
    </g>
</svg>