<?xml version="1.0" encoding="UTF-8" standalone="no"?>
<svg width="26px" height="16px" viewBox="0 0 26 16" version="1.1" xmlns="http://www.w3.org/2000/svg" xmlns:xlink="http://www.w3.org/1999/xlink">
    <!-- Generator: Sketch 3.8.1 (29687) - http://www.bohemiancoding.com/sketch -->
    <title>eye</title>
    <desc>Created with Sketch.</desc>
    <defs></defs>
    <g id="Page-1" stroke="none" stroke-width="1" fill="none" fill-rule="evenodd">
        <g id="eye" fill="#FFA706">
            <path d="M13,12 C10.8,12 9,10.2 9,8 C9,5.8 10.8,4 13,4 C15.2,4 17,5.8 17,8 C17,10.2 15.2,12 13,12 L13,12 Z M13,6 C11.9,6 11,6.9 11,8 C11,9.1 11.9,10 13,10 C14.1,10 15,9.1 15,8 C15,6.9 14.1,6 13,6 L13,6 Z" id="Shape"></path>
            <path d="M13,16 C5.5,16 1.3,8.8 1.1,8.5 C0.9,8.2 0.9,7.8 1.1,7.5 C1.3,7.2 5.5,0 13,0 C20.5,0 24.7,7.2 24.9,7.5 C25.1,7.8 25.1,8.2 24.9,8.5 C24.7,8.8 20.5,16 13,16 L13,16 Z M3.2,8 C4.2,9.5 7.7,14 13,14 C18.3,14 21.8,9.5 22.8,8 C21.8,6.5 18.3,2 13,2 C7.7,2 4.2,6.5 3.2,8 L3.2,8 Z" id="Shape"></path>
        </g>
    </g>
</svg>