<?xml version="1.0" encoding="UTF-8" standalone="no"?>
<svg width="27px" height="25px" viewBox="0 0 27 25" version="1.1" xmlns="http://www.w3.org/2000/svg" xmlns:xlink="http://www.w3.org/1999/xlink">
    <!-- Generator: Sketch 3.8.1 (29687) - http://www.bohemiancoding.com/sketch -->
    <title>facebook</title>
    <desc>Created with Sketch.</desc>
    <defs></defs>
    <g id="Page-1" stroke="none" stroke-width="1" fill="none" fill-rule="evenodd">
        <path d="M0,5.38222324 L0,20.6177048 C0,23.0452759 1.98631352,24.999952 4.45317615,24.999952 L12.8443234,24.999952 L12.8443234,15.6174588 L10.3231722,15.6174588 L10.3231722,12.2394655 L12.8443234,12.2394655 L12.8443234,9.35347129 C12.8443234,7.08607583 14.3339427,5.00422399 17.7654399,5.00422399 C19.1547984,5.00422399 20.1821843,5.13547973 20.1821843,5.13547973 L20.1013855,8.28998542 C20.1013855,8.28998542 19.0535866,8.28024144 17.9102338,8.28024144 C16.6727906,8.28024144 16.4743666,8.84131232 16.4743666,9.77275045 L16.4743666,12.2394895 L20.1996952,12.2394895 L20.037366,15.6174828 L16.4743666,15.6174828 L16.4743666,24.999976 L19.9352273,24.999976 C22.40209,24.999976 24.3884035,23.0452999 24.3884035,20.6177288 L24.3884035,5.38224724 C24.3884035,2.95467609 22.40209,1 19.9352273,1 L4.45315176,1 C1.98631352,0.999976 0,2.95465209 0,5.38222324 Z" id="facebook" fill="#A09381"></path>
    </g>
</svg>