<?xml version="1.0" encoding="UTF-8" standalone="no"?>
<svg width="20px" height="16px" viewBox="0 0 20 16" version="1.1" xmlns="http://www.w3.org/2000/svg" xmlns:xlink="http://www.w3.org/1999/xlink">
    <!-- Generator: Sketch 3.8.1 (29687) - http://www.bohemiancoding.com/sketch -->
    <title>folders</title>
    <desc>Created with Sketch.</desc>
    <defs></defs>
    <g id="Page-1" stroke="none" stroke-width="1" fill="none" fill-rule="evenodd">
        <path d="M16.6016042,2.97 C16.6016042,1.981 15.6166042,1.981 15.6166042,1.981 L3.78960415,1.981 C3.78960415,1.981 2.80460415,1.981 2.80460415,2.97 L2.80460415,3.96 L16.6026042,3.96 L16.6026042,2.97 L16.6016042,2.97 Z M13.6446042,0 L5.75960415,0 C5.75960415,0 4.77460415,0 4.77460415,0.99 L14.6296042,0.99 C14.6296042,0 13.6446042,0 13.6446042,0 L13.6446042,0 Z M18.5726042,3.96 L17.9896042,3.374 L17.9896042,4.95 L1.41560415,4.95 L1.41560415,3.374 C1.41560415,3.374 1.41560415,3.374 0.832604151,3.96 C0.249604151,4.546 -0.168395849,4.704 0.0666041514,5.941 C0.299604151,7.174 1.43060415,13.936 1.59860415,14.851 C1.78360415,15.854 2.80360415,15.841 2.80360415,15.841 L16.6016042,15.841 C16.6016042,15.841 17.6216042,15.854 17.8056042,14.851 C17.9746042,13.936 19.1056042,7.174 19.3386042,5.941 C19.5736042,4.704 19.1556042,4.546 18.5726042,3.96 L18.5726042,3.96 Z M13.6446042,9.308 C13.6446042,9.308 13.6446042,10.297 12.6596042,10.297 L6.74660415,10.297 C5.76060415,10.297 5.76060415,9.308 5.76060415,9.308 L5.76060415,7.328 L7.14060415,7.328 L7.14060415,8.912 L12.2616042,8.912 L12.2616042,7.328 L13.6446042,7.328 L13.6446042,9.308 L13.6446042,9.308 Z" id="folders" fill="#A09381"></path>
    </g>
</svg>