<?xml version="1.0" encoding="UTF-8" standalone="no"?>
<svg width="20px" height="18px" viewBox="0 0 20 18" version="1.1" xmlns="http://www.w3.org/2000/svg" xmlns:xlink="http://www.w3.org/1999/xlink">
    <!-- Generator: Sketch 3.8.1 (29687) - http://www.bohemiancoding.com/sketch -->
    <title>instruments</title>
    <desc>Created with Sketch.</desc>
    <defs></defs>
    <g id="Page-1" stroke="none" stroke-width="1" fill="none" fill-rule="evenodd">
        <path d="M3.06192897,5.6916649 C3.98592897,4.9746649 4.75192897,5.4686649 5.77592897,6.6526649 C5.89092897,6.7846649 6.04592897,6.6306649 6.13292897,6.5526649 C6.21992897,6.4756649 7.56992897,5.2616649 7.63592897,5.2046649 C7.70192897,5.1476649 7.78192897,5.0386649 7.67592897,4.9166649 C7.57092897,4.7946649 7.18692897,4.2986649 6.94092897,3.9766649 C5.15092897,1.6346649 11.837929,0.0476648978 10.810929,0.0206648978 C10.288929,0.00766489777 8.19092897,-0.0163351022 7.87792897,0.0166648978 C6.60692897,0.151664898 5.01192897,1.3386649 4.20892897,1.8906649 C3.15992897,2.6126649 2.76692897,3.0326649 2.70192897,3.0896649 C2.40492897,3.3496649 2.65392897,3.9486649 2.11592897,4.4196649 C1.54692897,4.9196649 1.19192897,4.5426649 0.862928974,4.8316649 C0.698928974,4.9766649 0.241928974,5.3186649 0.110928974,5.4336649 C-0.0210710262,5.5486649 -0.0440710262,5.7446649 0.0899289738,5.8996649 C0.0899289738,5.8996649 1.34092897,7.2826649 1.44592897,7.4036649 C1.55092897,7.5256649 1.83292897,7.6296649 2.00792897,7.4746649 C2.18392897,7.3206649 2.63292897,6.9266649 2.70992897,6.8586649 C2.78692897,6.7916649 2.65892897,6.0046649 3.06192897,5.6916649 L3.06192897,5.6916649 Z M8.71392897,6.2026649 C8.59492897,6.0656649 8.44792897,6.0626649 8.31992897,6.1756649 L6.89992897,7.4136649 C6.78792897,7.5126649 6.77392897,7.6946649 6.87292897,7.8096649 L15.084929,17.1536649 C15.275929,17.3756649 15.608929,17.3986649 15.828929,17.2066649 L16.789929,16.4016649 C17.008929,16.2096649 17.031929,15.8736649 16.839929,15.6516649 L8.71392897,6.2026649 L8.71392897,6.2026649 Z M19.664929,2.2246649 C19.590929,1.7356649 19.336929,1.8386649 19.206929,2.0466649 C19.076929,2.2546649 18.492929,3.1366649 18.252929,3.5366649 C18.014929,3.9336649 17.429929,4.7156649 16.338929,3.9436649 C15.201929,3.1396649 15.596929,2.5796649 15.795929,2.2016649 C15.993929,1.8226649 16.605929,0.760664898 16.692929,0.627664898 C16.780929,0.494664898 16.677929,0.106664898 16.325929,0.268664898 C15.972929,0.431664898 13.827929,1.2846649 13.529929,2.5056649 C13.226929,3.7506649 13.784929,4.8606649 12.688929,5.9656649 L11.359929,7.3526649 L12.694929,8.9046649 L14.332929,7.3496649 C14.723929,6.9566649 15.556929,6.5766649 16.311929,6.7466649 C17.928929,7.1126649 18.810929,6.5046649 19.341929,5.5016649 C19.815929,4.6036649 19.737929,2.7136649 19.664929,2.2246649 L19.664929,2.2246649 Z M2.67092897,15.7526649 C2.46492897,15.9596649 2.46492897,16.2966649 2.67092897,16.5036649 L3.61292897,17.4236649 C3.81892897,17.6316649 4.14592897,17.5446649 4.35192897,17.3366649 L9.21092897,12.5596649 L7.72192897,10.8656649 L2.67092897,15.7526649 L2.67092897,15.7526649 Z" id="instruments" fill="#A09381"></path>
    </g>
</svg>