<?xml version="1.0" encoding="UTF-8" standalone="no"?>
<svg width="120px" height="120px" viewBox="0 0 120 120" version="1.1" xmlns="http://www.w3.org/2000/svg" xmlns:xlink="http://www.w3.org/1999/xlink">
    <!-- Generator: Sketch 3.8.1 (29687) - http://www.bohemiancoding.com/sketch -->
    <title>marketolog</title>
    <desc>Created with Sketch.</desc>
    <defs></defs>
    <g id="Page-1" stroke="none" stroke-width="1" fill="none" fill-rule="evenodd">
        <circle id="circle" fill="#E3DDD4" cx="60" cy="60" r="60"></circle>
        <g id="marketolog" transform="translate(28.000000, 17.000000)">
            <path d="M1.67492683,78.7888119 L1.67492683,74.4711881 C1.67492683,69.8406931 5.90517073,66.0862376 11.1235122,66.0862376 L52.5861463,66.0862376 C57.8044878,66.0862376 62.0323902,69.8406931 62.0323902,74.4711881 L62.0323902,78.7888119" id="Fill-386" fill="#FFA706"></path>
            <path d="M63.5933659,78.7888119 L60.4714146,78.7888119 L60.4714146,74.4711881 C60.4714146,70.7089109 56.9342439,67.6505941 52.5861463,67.6505941 L11.1235122,67.6505941 C6.77463415,67.6505941 3.23590244,70.7089109 3.23590244,74.4711881 L3.23590244,78.7888119 L0.11395122,78.7888119 L0.11395122,74.4711881 C0.11395122,68.9881188 5.05365854,64.5218812 11.1235122,64.5218812 L52.5861463,64.5218812 C58.6552195,64.5218812 63.5933659,68.9881188 63.5933659,74.4711881 L63.5933659,78.7888119" id="Fill-387" fill="#3C280D"></path>
            <path d="M12.6017561,78.7888119 L12.6017561,75.8869307 C12.6017561,72.7816832 15.3006829,70.2630693 18.6294634,70.2630693 L45.0794146,70.2630693 C48.4081951,70.2630693 51.105561,72.7816832 51.105561,75.8869307 L51.105561,78.7888119" id="Fill-388" fill="#E3DDD4"></path>
            <path d="M52.6665366,78.7888119 L49.5445854,78.7888119 L49.5445854,75.8869307 C49.5445854,73.649901 47.5418537,71.8274257 45.0794146,71.8274257 L18.6294634,71.8274257 C16.1670244,71.8274257 14.1627317,73.649901 14.1627317,75.8869307 L14.1627317,78.7888119 L11.0407805,78.7888119 L11.0407805,75.8869307 C11.0407805,71.9212871 14.4452683,68.6987129 18.6294634,68.6987129 L45.0794146,68.6987129 C49.2628293,68.6987129 52.6665366,71.9212871 52.6665366,75.8869307 L52.6665366,78.7888119" id="Fill-389" fill="#3C280D"></path>
            <path d="M31.8189268,76.0746535 C38.9720976,76.0746535 43.9672195,72.7816832 43.9672195,68.0651485 L43.9672195,66.0862376 L19.6698537,66.0862376 L19.6698537,68.0651485 C19.6698537,72.7816832 24.6665366,76.0746535 31.8189268,76.0746535" id="Fill-390" fill="#A09381"></path>
            <path d="M21.2308293,67.6505941 L21.2308293,68.0651485 C21.2308293,71.8665347 25.5851707,74.5181188 31.8189268,74.5181188 C38.0526829,74.5181188 42.4062439,71.8665347 42.4062439,68.0651485 L42.4062439,67.6505941 L21.2308293,67.6505941 L21.2308293,67.6505941 Z M31.8189268,77.6390099 C23.747122,77.6390099 18.108878,73.7046535 18.108878,68.0651485 L18.108878,64.5218812 L45.5281951,64.5218812 L45.5281951,68.0651485 C45.5281951,73.7046535 39.8907317,77.6390099 31.8189268,77.6390099 L31.8189268,77.6390099 Z" id="Fill-391" fill="#3C280D"></path>
            <path d="M31.8189268,71.3894059 C27.6956098,71.3894059 24.3527805,69.9032673 24.3527805,68.0651485 L24.3527805,50.3018812 C24.3527805,48.4715842 27.6956098,46.9776238 31.8189268,46.9776238 C35.9414634,46.9776238 39.2842927,48.4715842 39.2842927,50.3018812 L39.2842927,68.0651485 C39.2842927,69.9032673 35.9414634,71.3894059 31.8189268,71.3894059" id="Fill-392" fill="#E3DDD4"></path>
            <path d="M31.8189268,48.5419802 C27.9617561,48.5419802 26.0066341,49.8873267 25.9129756,50.309703 L25.9137561,68.0651485 C26.0066341,68.479703 27.9609756,69.8250495 31.8189268,69.8250495 C35.676878,69.8250495 37.6312195,68.479703 37.7240976,68.0573267 L37.7233171,50.3018812 C37.630439,49.8873267 35.6760976,48.5419802 31.8189268,48.5419802 L31.8189268,48.5419802 Z M31.8189268,72.9537624 C27.3334634,72.9537624 22.7918049,71.2720792 22.7918049,68.0651485 L22.7918049,50.3018812 C22.7918049,47.0949505 27.3334634,45.4132673 31.8189268,45.4132673 C36.3043902,45.4132673 40.8452683,47.0949505 40.8452683,50.3018812 L40.8452683,68.0651485 C40.8452683,71.2720792 36.3043902,72.9537624 31.8189268,72.9537624 L31.8189268,72.9537624 Z" id="Fill-393" fill="#3C280D"></path>
            <path d="M50.1955122,43.4656436 C50.1955122,48.6436634 44.4409756,60.6735644 39.2686829,60.6735644 L24.4394146,60.6735644 C19.267122,60.6735644 13.5125854,48.6436634 13.5125854,43.4656436 L13.5125854,23.520099 C13.5125854,18.3342574 17.7061463,14.1339604 22.878439,14.1339604 L40.8296585,14.1339604 C46.0019512,14.1339604 50.1955122,18.3342574 50.1955122,23.520099 L50.1955122,43.4656436" id="Fill-394" fill="#E3DDD4"></path>
            <path d="M22.878439,15.6983168 C18.5748293,15.6983168 15.073561,19.2024752 15.073561,23.520099 L15.073561,43.4656436 C15.073561,45.7574257 16.4690732,49.8638614 18.3906341,53.2350495 C20.4581463,56.8565347 22.7761951,59.1092079 24.4394146,59.1092079 L39.2686829,59.1092079 C40.9319024,59.1092079 43.2499512,56.8565347 45.3166829,53.2350495 C47.2390244,49.8638614 48.6345366,45.7574257 48.6345366,43.4656436 L48.6345366,23.520099 C48.6345366,19.2024752 45.1332683,15.6983168 40.8296585,15.6983168 L22.878439,15.6983168 L22.878439,15.6983168 Z M39.2686829,62.2379208 L24.4394146,62.2379208 C17.8887805,62.2379208 11.9516098,48.7218812 11.9516098,43.4656436 L11.9516098,23.520099 C11.9516098,17.4816832 16.8530732,12.569604 22.878439,12.569604 L40.8296585,12.569604 C46.8542439,12.569604 51.7564878,17.4816832 51.7564878,23.520099 L51.7564878,43.4656436 C51.7564878,48.7218812 45.8193171,62.2379208 39.2686829,62.2379208 L39.2686829,62.2379208 Z" id="Fill-395" fill="#3C280D"></path>
            <path d="M31.3982439,43.989703 L28.2762927,43.989703 L28.2762927,33.4694059 C28.2762927,32.4369307 27.4411707,31.6 26.4132683,31.6 L26.4132683,28.4712871 C29.1621463,28.4712871 31.3982439,30.7161386 31.3982439,33.4694059 L31.3982439,43.989703" id="Fill-396" fill="#282D33"></path>
            <path d="M28.2068293,50.3957426 C28.6314146,51.4360396 29.6538537,52.1712871 30.8456585,52.1712871 L31.4325854,52.1712871 C32.6243902,52.1712871 33.6468293,51.4360396 34.0706341,50.3957426 L28.2068293,50.3957426 L28.2068293,50.3957426 Z M31.4325854,55.3 L30.8456585,55.3 C27.553561,55.3 24.8757073,52.6171287 24.8757073,49.3241584 C24.8757073,49.0973267 24.8897561,48.8783168 24.9131707,48.6593069 L25.0653659,47.2670297 L37.212878,47.2670297 L37.3642927,48.6593069 C37.3877073,48.8783168 37.4017561,49.0973267 37.4017561,49.3241584 C37.4017561,52.6171287 34.7239024,55.3 31.4325854,55.3 L31.4325854,55.3 Z" id="Fill-397" fill="#3C280D"></path>
            <path d="M13.4470244,28.7294059 L12.1467317,28.7294059 C10.4226341,28.7294059 9.02478049,30.129505 9.02478049,31.8581188 L9.02478049,39.1636634 C9.02478049,40.8922772 10.4226341,42.2923762 12.1467317,42.2923762 L13.4470244,42.2923762 L13.4470244,28.7294059" id="Fill-398" fill="#E3DDD4"></path>
            <path d="M11.8860488,30.3172277 C11.1492683,30.4423762 10.5857561,31.0837624 10.5857561,31.8581188 L10.5857561,39.1636634 C10.5857561,39.9380198 11.1492683,40.5794059 11.8860488,40.7045545 L11.8860488,30.3172277 L11.8860488,30.3172277 Z M15.008,43.8567327 L12.1467317,43.8567327 C9.56409756,43.8567327 7.46380488,41.7526733 7.46380488,39.1636634 L7.46380488,31.8581188 C7.46380488,29.2691089 9.56409756,27.1650495 12.1467317,27.1650495 L15.008,27.1650495 L15.008,43.8567327 L15.008,43.8567327 Z" id="Fill-399" fill="#3C280D"></path>
            <path d="M50.3906341,42.2923762 L51.6909268,42.2923762 C53.4150244,42.2923762 54.812878,40.8922772 54.812878,39.1636634 L54.812878,31.8581188 C54.812878,30.129505 53.4150244,28.7294059 51.6909268,28.7294059 L50.3906341,28.7294059 L50.3906341,42.2923762" id="Fill-400" fill="#E3DDD4"></path>
            <path d="M51.9516098,30.3172277 L51.9516098,40.7045545 C52.6891707,40.5794059 53.2519024,39.9380198 53.2519024,39.1636634 L53.2519024,31.8581188 C53.2519024,31.0837624 52.6891707,30.4423762 51.9516098,30.3172277 L51.9516098,30.3172277 Z M51.6909268,43.8567327 L48.8296585,43.8567327 L48.8296585,27.1650495 L51.6909268,27.1650495 C54.273561,27.1650495 56.3738537,29.2691089 56.3738537,31.8581188 L56.3738537,39.1636634 C56.3738537,41.7526733 54.273561,43.8567327 51.6909268,43.8567327 L51.6909268,43.8567327 Z" id="Fill-401" fill="#3C280D"></path>
            <path d="M46.0323902,9.6990099 L44.7882927,9.6990099 C47.2062439,8.63524752 48.6813659,7.2429703 48.6813659,5.72554455 C48.6813659,2.37782178 39.9882927,1.02465347 31.3155122,2.01019802 C20.9740488,3.18346535 15.2686829,10.2230693 15.2686829,10.2230693 C12.574439,10.2230693 8.82965854,12.4053465 8.82965854,15.1116832 C8.82965854,15.2994059 8.85541463,15.4949505 8.87726829,15.6826733 L8.82965854,15.6983168 L8.82965854,30.1686139 L13.5125854,30.1686139 L13.5125854,23.520099 C13.5125854,20.3913861 15.0423415,17.630297 17.3869268,15.9251485 L19.3045854,15.4714851 C21.8411707,18.3811881 26.3742439,20.6182178 31.7330732,21.2361386 C36.0163902,21.7289109 40.0148293,21.0875248 43.0446829,19.6561386 C40.9389268,18.0448515 39.2078049,16.0972277 37.9480976,13.9305941 L46.3211707,15.9251485 C48.6649756,17.630297 50.1955122,20.3913861 50.1955122,23.520099 L50.1955122,30.1686139 L54.878439,30.1686139 L54.878439,12.569604 L46.0323902,9.6990099" id="Fill-402" fill="#FFA706"></path>
            <path d="M51.7564878,28.6042574 L53.3174634,28.6042574 L53.3174634,13.7037624 L45.7865366,11.2633663 L44.7882927,11.2633663 L44.1607805,8.26762376 C46.3453659,7.30554455 47.1203902,6.29653465 47.1203902,5.72554455 C47.1203902,4.99811881 44.1506341,3.25386139 36.8007805,3.25386139 C35.0571707,3.25386139 33.2706341,3.36336634 31.491122,3.55891089 C21.9512195,4.64613861 16.5315122,11.1460396 16.4776585,11.2086139 L16.0093659,11.779604 L15.2686829,11.7874257 C13.2534634,11.7874257 10.3906341,13.500396 10.3906341,15.1116832 C10.3906341,15.2133663 10.4062439,15.3150495 10.4187317,15.4245545 L10.5724878,16.7073267 L10.3906341,16.7777228 L10.3906341,28.6042574 L11.9516098,28.6042574 L11.9516098,23.520099 C11.9516098,20.0315842 13.6405854,16.7151485 16.4706341,14.6580198 L16.7227317,14.4781188 L19.8610732,13.7272277 L20.4807805,14.4390099 C22.8628293,17.1766337 27.136,19.1320792 31.9118049,19.6874257 C34.7644878,20.0159406 37.6039024,19.8047525 40.0343415,19.1164356 C38.6825366,17.7945545 37.5320976,16.3240594 36.6001951,14.7205941 L34.7644878,11.5605941 L46.9853659,14.4781188 L47.2382439,14.6580198 C50.0675122,16.7151485 51.7564878,20.0315842 51.7564878,23.520099 L51.7564878,28.6042574 L51.7564878,28.6042574 Z M56.4394146,31.7329703 L48.6345366,31.7329703 L48.6345366,23.520099 C48.6345366,21.1266337 47.5207805,18.850495 45.6421463,17.3721782 L41.7982439,16.4570297 C42.4663415,17.1531683 43.1992195,17.810198 43.9929756,18.4124752 L46.0323902,19.9768317 L43.710439,21.0718812 C40.3090732,22.6831683 35.9531707,23.3010891 31.555122,22.7926733 C26.4273171,22.2060396 21.7381463,20.1332673 18.787122,17.200099 L18.0659512,17.3721782 C16.1865366,18.850495 15.073561,21.1266337 15.073561,23.520099 L15.073561,31.7329703 L7.26868293,31.7329703 L7.30302439,14.5406931 C7.70887805,11.2633663 11.5574634,9.03415842 14.5272195,8.69782178 C16.1514146,6.94574257 21.8692683,1.50178218 31.1399024,0.453663366 C33.0357073,0.234653465 34.9400976,0.125148515 36.8007805,0.125148515 C45.217561,0.125148515 50.2423415,2.22138614 50.2423415,5.72554455 C50.2423415,6.63287129 49.9324878,7.79049505 48.7906341,8.94811881 L56.4394146,11.4276238 L56.4394146,31.7329703 L56.4394146,31.7329703 Z" id="Fill-403" fill="#3C280D"></path>
            <path d="M49.8520976,37.5993069 C49.8520976,38.889901 48.803122,39.9458416 47.5106341,39.9458416 L36.5838049,39.9458416 C35.2905366,39.9458416 34.2423415,38.889901 34.2423415,37.5993069 L34.2423415,33.2973267 C34.2423415,31.9989109 35.2905366,30.9507921 36.5838049,30.9507921 L47.5106341,30.9507921 C48.803122,30.9507921 49.8520976,31.9989109 49.8520976,33.2973267 L49.8520976,37.5993069" id="Fill-404" fill="#E3DDD4"></path>
            <path d="M36.5838049,32.5151485 C36.1537561,32.5151485 35.8033171,32.8671287 35.8033171,33.2973267 L35.8033171,37.5993069 C35.8033171,38.029505 36.1537561,38.3814851 36.5838049,38.3814851 L47.5106341,38.3814851 C47.9414634,38.3814851 48.291122,38.029505 48.291122,37.5993069 L48.291122,33.2973267 C48.291122,32.8671287 47.9414634,32.5151485 47.5106341,32.5151485 L36.5838049,32.5151485 L36.5838049,32.5151485 Z M47.5106341,41.510198 L36.5838049,41.510198 C34.432,41.510198 32.6813659,39.750297 32.6813659,37.5993069 L32.6813659,33.2973267 C32.6813659,31.1385149 34.432,29.3864356 36.5838049,29.3864356 L47.5106341,29.3864356 C49.662439,29.3864356 51.4130732,31.1385149 51.4130732,33.2973267 L51.4130732,37.5993069 C51.4130732,39.750297 49.662439,41.510198 47.5106341,41.510198 L47.5106341,41.510198 Z" id="Fill-405" fill="#3C280D"></path>
            <path d="M29.5594146,37.5993069 C29.5594146,38.889901 28.510439,39.9458416 27.2179512,39.9458416 L16.291122,39.9458416 C14.9978537,39.9458416 13.9496585,38.889901 13.9496585,37.5993069 L13.9496585,33.2973267 C13.9496585,31.9989109 14.9978537,30.9507921 16.291122,30.9507921 L27.2179512,30.9507921 C28.510439,30.9507921 29.5594146,31.9989109 29.5594146,33.2973267 L29.5594146,37.5993069" id="Fill-406" fill="#E3DDD4"></path>
            <path d="M16.291122,32.5151485 C15.8610732,32.5151485 15.5106341,32.8671287 15.5106341,33.2973267 L15.5106341,37.5993069 C15.5106341,38.029505 15.8610732,38.3814851 16.291122,38.3814851 L27.2179512,38.3814851 C27.6487805,38.3814851 27.998439,38.029505 27.998439,37.5993069 L27.998439,33.2973267 C27.998439,32.8671287 27.6487805,32.5151485 27.2179512,32.5151485 L16.291122,32.5151485 L16.291122,32.5151485 Z M27.2179512,41.510198 L16.291122,41.510198 C14.1393171,41.510198 12.3886829,39.750297 12.3886829,37.5993069 L12.3886829,33.2973267 C12.3886829,31.1385149 14.1393171,29.3864356 16.291122,29.3864356 L27.2179512,29.3864356 C29.3697561,29.3864356 31.1203902,31.1385149 31.1203902,33.2973267 L31.1203902,37.5993069 C31.1203902,39.750297 29.3697561,41.510198 27.2179512,41.510198 L27.2179512,41.510198 Z" id="Fill-407" fill="#3C280D"></path>
            <polygon id="Fill-408" fill="#3C280D" points="20.7469268 36.6763366 24.5533659 36.6763366 24.5533659 33.5476238 20.7469268 33.5476238"></polygon>
            <polygon id="Fill-409" fill="#3C280D" points="36.8764878 36.6763366 40.6829268 36.6763366 40.6829268 33.5476238 36.8764878 33.5476238"></polygon>
        </g>
    </g>
</svg>