<?xml version="1.0" encoding="UTF-8" standalone="no"?>
<svg width="120px" height="120px" viewBox="0 0 120 120" version="1.1" xmlns="http://www.w3.org/2000/svg" xmlns:xlink="http://www.w3.org/1999/xlink">
    <!-- Generator: Sketch 3.8.1 (29687) - http://www.bohemiancoding.com/sketch -->
    <title>ment</title>
    <desc>Created with Sketch.</desc>
    <defs></defs>
    <g id="Page-1" stroke="none" stroke-width="1" fill="none" fill-rule="evenodd">
        <circle id="circle" fill="#E3DDD4" cx="60" cy="60" r="60"></circle>
        <g id="ment" transform="translate(28.000000, 22.000000)">
            <path d="M1.65697561,75.7952653 L1.65697561,66.8567347 C1.65697561,62.2680408 5.88721951,58.5479184 11.105561,58.5479184 L52.5681951,58.5479184 C57.7857561,58.5479184 62.0136585,62.2680408 62.0136585,66.8567347 L62.0136585,75.7952653" id="Fill-1752" fill="#FFA706"></path>
            <path d="M63.5746341,75.7952653 L60.4526829,75.7952653 L60.4526829,66.8567347 C60.4526829,63.1304082 56.9155122,60.0989388 52.5681951,60.0989388 L11.105561,60.0989388 C6.75590244,60.0989388 3.21795122,63.1304082 3.21795122,66.8567347 L3.21795122,75.7952653 L0.096,75.7952653 L0.096,66.8567347 C0.096,61.4196327 5.03414634,56.996898 11.105561,56.996898 L52.5681951,56.996898 C58.6364878,56.996898 63.5746341,61.4196327 63.5746341,66.8567347 L63.5746341,75.7952653" id="Fill-1753" fill="#3C280D"></path>
            <polyline id="Fill-1754" fill="#E3DDD4" points="45.2362927 65.1296735 45.2362927 58.5479184 18.4343415 58.5479184 18.4343415 65.1296735 31.8353171 72.8173061 45.2362927 65.1296735"></polyline>
            <path d="M19.9953171,64.2339592 L31.8353171,71.0266531 L43.6753171,64.2339592 L43.6753171,60.0989388 L19.9953171,60.0989388 L19.9953171,64.2339592 L19.9953171,64.2339592 Z M31.8353171,74.6079592 L16.8733659,66.0261633 L16.8733659,56.996898 L46.7972683,56.996898 L46.7972683,66.0261633 L31.8353171,74.6079592 L31.8353171,74.6079592 Z" id="Fill-1755" fill="#3C280D"></path>
            <polyline id="Fill-1756" fill="#E3DDD4" points="39.772878 61.9950612 31.8353171 66.5488571 23.8977561 61.9950612 23.8977561 44.7748571 39.772878 44.7748571 39.772878 61.9950612"></polyline>
            <path d="M25.4587317,61.1001224 L31.8353171,64.7582041 L38.2119024,61.1001224 L38.2119024,46.3258776 L25.4587317,46.3258776 L25.4587317,61.1001224 L25.4587317,61.1001224 Z M31.8353171,68.3402857 L22.3367805,62.891551 L22.3367805,43.2238367 L41.3338537,43.2238367 L41.3338537,62.891551 L31.8353171,68.3402857 L31.8353171,68.3402857 Z" id="Fill-1757" fill="#3C280D"></path>
            <path d="M50.6778537,12.5609388 C50.6778537,6.51040816 45.7404878,1.60530612 39.651122,1.60530612 L23.8462439,1.60530612 C17.7560976,1.60530612 12.8195122,6.51040816 12.8195122,12.5609388 L12.7859512,43.3572245 L23.235122,55.2962041 L40.2614634,55.2962041 L50.7106341,43.3572245 L50.6778537,12.5609388" id="Fill-1758" fill="#E3DDD4"></path>
            <path d="M23.9461463,53.7451837 L39.5496585,53.7451837 L49.148878,42.7771429 L49.116878,12.5624898 C49.116878,7.37510204 44.8702439,3.15632653 39.651122,3.15632653 L23.8462439,3.15632653 C18.6263415,3.15632653 14.3804878,7.37510204 14.3804878,12.5609388 L14.3469268,42.7771429 L23.9461463,53.7451837 L23.9461463,53.7451837 Z M40.9724878,56.8472245 L22.5233171,56.8472245 L11.2241951,43.9357551 L11.2585366,12.5593878 C11.2585366,5.66510204 16.9053659,0.0542857143 23.8462439,0.0542857143 L39.651122,0.0542857143 C46.5912195,0.0542857143 52.2388293,5.66510204 52.2388293,12.5609388 L52.2716098,43.9357551 L40.9724878,56.8472245 L40.9724878,56.8472245 Z" id="Fill-1759" fill="#3C280D"></path>
            <path d="M31.7127805,35.34 C24.4846829,35.34 18.209561,39.6037551 15.0423415,45.8621224 L23.2999024,55.2962041 L40.3270244,55.2962041 L48.4542439,46.0094694 C45.312,39.672 38.9962927,35.34 31.7127805,35.34" id="Fill-1760" fill="#A09381"></path>
            <path d="M24.0109268,53.7451837 L39.6152195,53.7451837 L46.5756098,45.793102 C43.457561,40.2761224 37.8489756,36.8910204 31.7127805,36.8910204 C25.6390244,36.8910204 20.0616585,40.2218367 16.9272195,45.6519592 L24.0109268,53.7451837 L24.0109268,53.7451837 Z M41.0380488,56.8472245 L22.5880976,56.8472245 L13.1777561,46.0947755 L13.6476098,45.1649388 C17.1988293,38.1481224 24.1209756,33.7889796 31.7127805,33.7889796 C39.3748293,33.7889796 46.3258537,38.2093878 49.854439,45.3239184 L50.3125854,46.249102 L41.0380488,56.8472245 L41.0380488,56.8472245 Z" id="Fill-1761" fill="#3C280D"></path>
            <path d="M27.2234146,43.169551 C27.2054634,43.3238776 27.1953171,43.4813061 27.1953171,43.6402857 C27.1953171,45.983102 29.1059512,47.881551 31.4638049,47.881551 L32.032,47.881551 C34.3898537,47.881551 36.3012683,45.983102 36.3012683,43.6402857 C36.3012683,43.4813061 36.2903415,43.3238776 36.2739512,43.169551 L27.2234146,43.169551" id="Fill-1762" fill="#FFFFFF"></path>
            <path d="M28.9834146,44.7205714 C29.4033171,45.6674694 30.3570732,46.3305306 31.4638049,46.3305306 L32.032,46.3305306 C33.1387317,46.3305306 34.0924878,45.6674694 34.5123902,44.7205714 L28.9834146,44.7205714 L28.9834146,44.7205714 Z M32.032,49.4325714 L31.4638049,49.4325714 C28.2489756,49.4325714 25.6343415,46.8346122 25.6343415,43.6402857 C25.6343415,43.4223673 25.6476098,43.207551 25.6718049,42.9950612 L25.8279024,41.6185306 L37.6749268,41.6185306 L37.825561,43.0028163 C37.8481951,43.2122041 37.8622439,43.4246939 37.8622439,43.6402857 C37.8622439,46.8346122 35.2468293,49.4325714 32.032,49.4325714 L32.032,49.4325714 Z" id="Fill-1763" fill="#3C280D"></path>
            <polygon id="Fill-1764" fill="#3C280D" points="19.9110244 26.0338776 23.2936585 26.0338776 23.2936585 22.9318367 19.9110244 22.9318367"></polygon>
            <polygon id="Fill-1765" fill="#3C280D" points="40.2037073 26.0338776 43.5863415 26.0338776 43.5863415 22.9318367 40.2037073 22.9318367"></polygon>
            <polyline id="Fill-1766" fill="#3C280D" points="36.9521951 32.2379592 26.5451707 32.2379592 26.5451707 21.1217959 19.5254634 21.1217959 19.5254634 18.0197551 29.667122 18.0197551 29.667122 29.1359184 33.8302439 29.1359184 33.8302439 19.5707755 36.9521951 19.5707755 36.9521951 32.2379592"></polyline>
            <path d="M7.81814634,24.2238367 L7.81814634,33.0134694 C7.81814634,34.4411837 8.98263415,35.5982449 10.4195122,35.5982449 C11.8556098,35.5982449 13.020878,34.4411837 13.020878,33.0134694 L13.020878,24.2238367 L7.81814634,24.2238367" id="Fill-1748" fill="#FFFFFF"></path>
            <path d="M9.37912195,25.7748571 L9.37912195,33.0134694 C9.37912195,33.5834694 9.84507317,34.0472245 10.4195122,34.0472245 C10.9923902,34.0472245 11.4599024,33.5834694 11.4599024,33.0134694 L11.4599024,25.7748571 L9.37912195,25.7748571 L9.37912195,25.7748571 Z M10.4195122,37.1492653 C8.12409756,37.1492653 6.25717073,35.2942449 6.25717073,33.0134694 L6.25717073,22.6728163 L14.5818537,22.6728163 L14.5818537,33.0134694 C14.5818537,35.2942449 12.7141463,37.1492653 10.4195122,37.1492653 L10.4195122,37.1492653 Z" id="Fill-1749" fill="#3C280D"></path>
            <path d="M51.004878,24.2238367 L51.004878,33.0134694 C51.004878,34.4411837 52.1693659,35.5982449 53.6062439,35.5982449 C55.0423415,35.5982449 56.2076098,34.4411837 56.2076098,33.0134694 L56.2076098,24.2238367 L51.004878,24.2238367" id="Fill-1750" fill="#FFFFFF"></path>
            <path d="M52.5658537,25.7748571 L52.5658537,33.0134694 C52.5658537,33.5834694 53.0318049,34.0472245 53.6062439,34.0472245 C54.179122,34.0472245 54.6466341,33.5834694 54.6466341,33.0134694 L54.6466341,25.7748571 L52.5658537,25.7748571 L52.5658537,25.7748571 Z M53.6062439,37.1492653 C51.3108293,37.1492653 49.4439024,35.2942449 49.4439024,33.0134694 L49.4439024,22.6728163 L57.7685854,22.6728163 L57.7685854,33.0134694 C57.7685854,35.2942449 55.900878,37.1492653 53.6062439,37.1492653 L53.6062439,37.1492653 Z" id="Fill-1751" fill="#3C280D"></path>
        </g>
    </g>
</svg>