<?xml version="1.0" encoding="UTF-8" standalone="no"?>
<svg width="122px" height="122px" viewBox="0 0 122 122" version="1.1" xmlns="http://www.w3.org/2000/svg" xmlns:xlink="http://www.w3.org/1999/xlink">
    <!-- Generator: Sketch 3.8.1 (29687) - http://www.bohemiancoding.com/sketch -->
    <title>owner</title>
    <desc>Created with Sketch.</desc>
    <defs>
        <circle id="path-1" cx="61" cy="61" r="60"></circle>
        <mask id="mask-2" maskContentUnits="userSpaceOnUse" maskUnits="objectBoundingBox" x="-1" y="-1" width="122" height="122">
            <rect x="0" y="0" width="122" height="122" fill="white"></rect>
            <use xlink:href="#path-1" fill="black"></use>
        </mask>
    </defs>
    <g id="Page-1" stroke="none" stroke-width="1" fill="none" fill-rule="evenodd">
        <g id="circle">
            <use fill="#E3DDD4" fill-rule="evenodd" xlink:href="#path-1"></use>
            <use stroke="#979797" mask="url(#mask-2)" stroke-width="2" xlink:href="#path-1"></use>
        </g>
        <g id="owner" transform="translate(29.000000, 22.000000)">
            <path d="M2.06573494,75.2553535 L2.06573494,64.9761616 C2.06573494,60.4391919 6.24501205,56.7543434 11.3997108,56.7543434 L52.3620241,56.7543434 C57.517494,56.7543434 61.6952289,60.4391919 61.6952289,64.9761616 L61.6952289,75.2553535" id="Fill-327" fill="#E3DDD4"></path>
            <path d="M63.2373976,75.2553535 L60.1530602,75.2553535 L60.1530602,64.9761616 C60.1530602,61.2913131 56.658506,58.289697 52.3620241,58.289697 L11.3997108,58.289697 C7.10322892,58.289697 3.60790361,61.2913131 3.60790361,64.9761616 L3.60790361,75.2553535 L0.523566265,75.2553535 L0.523566265,64.9761616 C0.523566265,59.5947475 5.40221687,55.2189899 11.3997108,55.2189899 L52.3620241,55.2189899 C58.358747,55.2189899 63.2373976,59.5947475 63.2373976,64.9761616 L63.2373976,75.2553535" id="Fill-328" fill="#3C280D"></path>
            <path d="M31.8804819,74.2113131 L30.7446747,72.9753535 C27.0658313,68.9834343 24.0354699,63.5406061 21.9813012,57.230303 L21.3274217,55.2189899 L42.4335422,55.2189899 L41.7796627,57.230303 C39.725494,63.5406061 36.6951325,68.9834343 33.0162892,72.9753535 L31.8804819,74.2113131 L31.8804819,74.2113131 Z" id="Path" fill="#A09381"></path>
            <path d="M25.6154217,58.289697 C27.2470361,62.6731313 29.3813976,66.5268687 31.8804819,69.589899 C34.3787952,66.5268687 36.5139277,62.6731313 38.1455422,58.289697 L25.6154217,58.289697 L25.6154217,58.289697 Z M31.8804819,74.2113131 L30.7446747,72.9753535 C27.0658313,68.9834343 24.0354699,63.5406061 21.9813012,57.230303 L21.3274217,55.2189899 L42.4335422,55.2189899 L41.7796627,57.230303 C39.725494,63.5406061 36.6951325,68.9834343 33.0162892,72.9753535 L31.8804819,74.2113131 L31.8804819,74.2113131 Z" id="Fill-329" fill="#3C280D"></path>
            <path d="M13.0737349,23.7979798 L11.7883373,23.7979798 C10.085012,23.7979798 8.704,25.1721212 8.704,26.8686869 L8.704,34.0387879 C8.704,35.7353535 10.085012,37.1094949 11.7883373,37.1094949 L13.0737349,37.1094949 L13.0737349,23.7979798" id="Fill-330" fill="#E3DDD4"></path>
            <path d="M11.5315663,25.3563636 C10.8028916,25.4791919 10.2461687,26.1086869 10.2461687,26.8686869 L10.2461687,34.0387879 C10.2461687,34.7911111 10.8028916,35.4282828 11.5315663,35.5511111 L11.5315663,25.3563636 L11.5315663,25.3563636 Z M14.6159036,38.6448485 L11.7883373,38.6448485 C9.23681928,38.6448485 7.16183133,36.579798 7.16183133,34.0387879 L7.16183133,26.8686869 C7.16183133,24.3276768 9.23681928,22.2626263 11.7883373,22.2626263 L14.6159036,22.2626263 L14.6159036,38.6448485 L14.6159036,38.6448485 Z" id="Fill-331" fill="#3C280D"></path>
            <path d="M49.957012,37.1094949 L51.2424096,37.1094949 C52.9457349,37.1094949 54.326747,35.7353535 54.326747,34.0387879 L54.326747,26.8686869 C54.326747,25.1721212 52.9457349,23.7979798 51.2424096,23.7979798 L49.957012,23.7979798 L49.957012,37.1094949" id="Fill-332" fill="#E3DDD4"></path>
            <path d="M51.4991807,25.3563636 L51.4991807,35.5511111 C52.2270843,35.4282828 52.7845783,34.7911111 52.7845783,34.0387879 L52.7845783,26.8686869 C52.7845783,26.1086869 52.2270843,25.4791919 51.4991807,25.3563636 L51.4991807,25.3563636 Z M51.2424096,38.6448485 L48.4148434,38.6448485 L48.4148434,22.2626263 L51.2424096,22.2626263 C53.7931566,22.2626263 55.8689157,24.3276768 55.8689157,26.8686869 L55.8689157,34.0387879 C55.8689157,36.579798 53.7931566,38.6448485 51.2424096,38.6448485 L51.2424096,38.6448485 Z" id="Fill-333" fill="#3C280D"></path>
            <path d="M49.8637108,45.1931313 C49.8637108,53.0925253 43.429012,59.4949495 35.492241,59.4949495 L27.7374458,59.4949495 C19.7999036,59.4949495 13.3659759,53.0925253 13.3659759,45.1931313 L13.3659759,16.5741414 C13.3659759,8.67474747 19.7999036,2.26464646 27.7374458,2.26464646 L35.492241,2.26464646 C43.429012,2.26464646 49.8637108,8.67474747 49.8637108,16.5741414 L49.8637108,45.1931313" id="Fill-334" fill="#E3DDD4"></path>
            <path d="M27.7374458,3.8 C20.662747,3.8 14.9081446,9.53454545 14.9081446,16.5741414 L14.9081446,45.1931313 C14.9081446,52.2327273 20.662747,57.959596 27.7374458,57.959596 L35.492241,57.959596 C42.5661687,57.959596 48.3215422,52.2327273 48.3215422,45.1931313 L48.3215422,16.5741414 C48.3215422,9.53454545 42.5661687,3.8 35.492241,3.8 L27.7374458,3.8 L27.7374458,3.8 Z M35.492241,61.030303 L27.7374458,61.030303 C18.962506,61.030303 11.8238072,53.9216162 11.8238072,45.1931313 L11.8238072,16.5741414 C11.8238072,7.8379798 18.962506,0.729292929 27.7374458,0.729292929 L35.492241,0.729292929 C44.2671807,0.729292929 51.4058795,7.8379798 51.4058795,16.5741414 L51.4058795,45.1931313 C51.4058795,53.9216162 44.2671807,61.030303 35.492241,61.030303 L35.492241,61.030303 Z" id="Fill-335" fill="#3C280D"></path>
            <path d="M45.0999518,6.72484848 C45.1816867,7.43111111 45.2372048,8.15272727 45.2372048,8.89737374 L45.2372048,37.5163636 C45.2372048,41.2626263 44.1484337,44.6557576 42.3811084,47.2121212 C40.6978313,43.9955556 36.517012,41.7155556 31.6144578,41.7155556 C26.7119036,41.7155556 22.5318554,43.9955556 20.8478072,47.2121212 C19.0804819,44.6557576 17.9924819,41.2626263 17.9924819,37.5163636 L17.9924819,8.89737374 C17.9924819,8.15272727 18.0472289,7.43111111 18.1289639,6.72484848 C15.2111807,9.34262626 13.3659759,13.119596 13.3659759,17.3418182 L13.3659759,45.9608081 C13.3659759,53.860202 19.7999036,60.2626263 27.7374458,60.2626263 L35.492241,60.2626263 C43.429012,60.2626263 49.8637108,53.860202 49.8637108,45.9608081 L49.8637108,17.3418182 C49.8637108,13.119596 48.0177349,9.34262626 45.0999518,6.72484848" id="Fill-336" fill="#FFA706"></path>
            <path d="M16.4503133,11.300202 C15.4494458,13.1426263 14.9081446,15.2153535 14.9081446,17.3418182 L14.9081446,45.9608081 C14.9081446,53.000404 20.662747,58.7272727 27.7374458,58.7272727 L35.492241,58.7272727 C42.5661687,58.7272727 48.3215422,53.000404 48.3215422,45.9608081 L48.3215422,17.3418182 C48.3215422,15.2153535 47.780241,13.1426263 46.7793735,11.300202 L46.7793735,37.5163636 C46.7793735,41.4161616 45.668241,45.170101 43.6503133,48.079596 L42.1960482,50.1830303 L41.0132048,47.9183838 C39.5504578,45.1240404 35.7736867,43.2509091 31.6144578,43.2509091 C27.4552289,43.2509091 23.6784578,45.1240404 22.2157108,47.9183838 L21.0320964,50.1830303 L19.5786024,48.079596 C17.5606747,45.170101 16.4503133,41.4161616 16.4503133,37.5163636 L16.4503133,11.300202 L16.4503133,11.300202 Z M35.492241,61.7979798 L27.7374458,61.7979798 C18.962506,61.7979798 11.8238072,54.6892929 11.8238072,45.9608081 L11.8238072,17.3418182 C11.8238072,12.8739394 13.7453494,8.59030303 17.0964819,5.5810101 L20.122988,2.86343434 L19.6611084,6.89373737 C19.574747,7.65373737 19.5346506,8.29090909 19.5346506,8.89737374 L19.5346506,37.5163636 C19.5346506,39.9652525 20.0443373,42.329697 20.9950843,44.3717172 C23.414747,41.7692929 27.3233735,40.180202 31.6144578,40.180202 C35.9055422,40.180202 39.8141687,41.7692929 42.2338313,44.3717172 C43.1845783,42.329697 43.6950361,39.9652525 43.6950361,37.5163636 L43.6950361,8.89737374 C43.6950361,8.29090909 43.6541687,7.65373737 43.5678072,6.89373737 L43.1066988,2.86343434 L46.1332048,5.5810101 C49.4835663,8.59030303 51.4058795,12.8739394 51.4058795,17.3418182 L51.4058795,45.9608081 C51.4058795,54.6892929 44.2671807,61.7979798 35.492241,61.7979798 L35.492241,61.7979798 Z" id="Fill-337" fill="#3C280D"></path>
            <path d="M27.1807229,47.7111111 L27.1807229,48.0412121 C27.1807229,49.8452525 28.6511807,51.3115152 30.4655422,51.3115152 L32.7641446,51.3115152 C34.578506,51.3115152 36.0481928,49.8452525 36.0481928,48.0412121 L36.0481928,47.7111111 L27.1807229,47.7111111" id="Fill-338" fill="#FFFFFF"></path>
            <path d="M29.2163855,49.2464646 C29.5333012,49.5688889 29.9759036,49.7761616 30.4655422,49.7761616 L32.7641446,49.7761616 C33.253012,49.7761616 33.6956145,49.5688889 34.0125301,49.2464646 L29.2163855,49.2464646 L29.2163855,49.2464646 Z M32.7641446,52.8468687 L30.4655422,52.8468687 C27.803759,52.8468687 25.6385542,50.689697 25.6385542,48.0412121 L25.6385542,46.1757576 L37.5903614,46.1757576 L37.5903614,48.0412121 C37.5903614,50.689697 35.4251566,52.8468687 32.7641446,52.8468687 L32.7641446,52.8468687 Z" id="Fill-339" fill="#3C280D"></path>
            <path d="M34.7257831,34.2 C34.7257831,35.8658586 33.3655904,37.2169697 31.6900241,37.2169697 C30.0136867,37.2169697 28.653494,35.8658586 28.653494,34.2 L28.653494,22.8537374" id="Fill-340" fill="#E3DDD4"></path>
            <path d="M31.6900241,38.7523232 C29.165494,38.7523232 27.1113253,36.710303 27.1113253,34.2 L27.1113253,22.8537374 L30.1956627,22.8537374 L30.1956627,34.2 C30.1956627,35.0137374 30.8657349,35.6816162 31.6900241,35.6816162 C32.5135422,35.6816162 33.1836145,35.0137374 33.1836145,34.2 L36.2679518,34.2 C36.2679518,36.710303 34.2145542,38.7523232 31.6900241,38.7523232" id="Fill-341" fill="#3C280D"></path>
            <path d="M37.8571566,28.5882828 C36.2371084,28.5882828 34.6170602,27.9741414 33.3840964,26.7458586 L35.5647229,24.5733333 C36.8285301,25.8323232 38.8857831,25.8323232 40.1495904,24.5733333 L42.3302169,26.7458586 C41.097253,27.9741414 39.4772048,28.5882828 37.8571566,28.5882828" id="Fill-342" fill="#3C280D"></path>
            <path d="M24.7502651,28.5882828 C23.1302169,28.5882828 21.5101687,27.9741414 20.2772048,26.7458586 L22.4578313,24.5733333 C23.7216386,25.8323232 25.7788916,25.8323232 27.0426988,24.5733333 L29.2233253,26.7458586 C27.9903614,27.9741414 26.3703133,28.5882828 24.7502651,28.5882828" id="Fill-343" fill="#3C280D"></path>
        </g>
    </g>
</svg>