<?xml version="1.0" encoding="UTF-8" standalone="no"?>
<svg width="18px" height="25px" viewBox="0 0 18 25" version="1.1" xmlns="http://www.w3.org/2000/svg" xmlns:xlink="http://www.w3.org/1999/xlink">
    <!-- Generator: Sketch 3.8.1 (29687) - http://www.bohemiancoding.com/sketch -->
    <title>pdf</title>
    <desc>Created with Sketch.</desc>
    <defs></defs>
    <g id="Page-1" stroke="none" stroke-width="1" fill="none" fill-rule="evenodd">
        <path d="M17.5506013,6.22290291 L5.97997755,0.230101285 C4.39419558,-0.60904755 1.26938688,1.0118278 0.371945976,2.43825032 C-0.0293698544,3.07511599 0.000501550428,3.53579957 0.000501550428,3.79681009 L0.143364791,17.3315108 C0.152456088,17.6186224 0.512211703,18.006223 0.821315806,18.1967607 C1.46290163,18.5934967 11.1840958,24.6920076 11.4594322,24.8642745 C11.6074905,24.9569333 11.7828226,25 11.9555573,25 C12.1023168,25 12.2516738,24.9673737 12.384147,24.900816 C12.677666,24.7572602 12.8581932,24.4766739 12.8581932,24.1712916 L12.8581932,9.9553534 C12.8581932,9.65910646 12.6854586,9.38504541 12.4062259,9.23757446 L1.88759508,3.33743157 C2.0070807,3.10513221 2.47463313,2.61312737 3.33441008,2.16157916 C4.24094228,1.68523496 4.9188933,1.86402716 5.07474411,1.92536464 C5.07474411,1.92536464 15.1686814,7.35307848 15.4777855,7.51490501 C15.7868896,7.67673153 15.7907859,7.70022248 15.7907859,7.97689363 L15.7907859,21.4659175 C15.7907859,22.1393247 16.4713344,22.4146908 16.970057,22.4146908 C17.4687796,22.4146908 17.9999711,21.923991 17.9999711,21.4659175 L17.9999711,6.94068185 C18.0025686,6.64443491 17.829834,6.37037386 17.5506013,6.22290291 L17.5506013,6.22290291 Z" id="pdf" fill="#A09381"></path>
    </g>
</svg>