<?xml version="1.0" encoding="UTF-8" standalone="no"?>
<svg width="21px" height="24px" viewBox="0 0 21 24" version="1.1" xmlns="http://www.w3.org/2000/svg" xmlns:xlink="http://www.w3.org/1999/xlink">
    <!-- Generator: Sketch 3.8.1 (29687) - http://www.bohemiancoding.com/sketch -->
    <title>presentation</title>
    <desc>Created with Sketch.</desc>
    <defs></defs>
    <g id="Page-1" stroke="none" stroke-width="1" fill="none" fill-rule="evenodd">
        <path d="M18.3632342,0 L2.6367658,0 C1.1828654,0 0,1.20546946 0,2.6872249 L0,14.3771845 C0,15.85894 1.1825588,17.064722 2.6367658,17.064722 L7.76159608,17.064722 L2.68919452,22.2350827 C2.29306644,22.6388853 2.29306644,23.293658 2.68919452,23.6971481 C2.88725855,23.8990494 3.14633612,24 3.40602689,24 C3.66571766,24 3.92479523,23.8993619 4.12285927,23.6971481 L10.4998467,17.1966141 L16.8762209,23.6971481 C17.074285,23.8990494 17.3342823,24 17.5936665,24 C17.8533573,24 18.1124348,23.8993619 18.3104989,23.6971481 C18.7069336,23.293658 18.7069336,22.6388853 18.3104989,22.2350827 L13.2384039,17.064722 L18.3635408,17.064722 C19.8171346,17.064722 21,15.8598776 21,14.3771845 L21,2.6872249 C20.9996934,1.20546946 19.8171346,0 18.3632342,0 L18.3632342,0 Z M18.9715299,14.3771845 C18.9715299,14.7191041 18.6983487,14.9969527 18.3638474,14.9969527 L2.6367658,14.9969527 C2.30103806,14.9969527 2.02816346,14.718479 2.02816346,14.3771845 L2.02816346,3.53702305 L18.9718365,3.53702305 L18.9718365,14.3771845 L18.9715299,14.3771845 L18.9715299,14.3771845 Z" id="presentation" fill="#3C280D"></path>
    </g>
</svg>