<?xml version="1.0" encoding="UTF-8" standalone="no"?>
<svg width="119px" height="33px" viewBox="0 0 119 33" version="1.1" xmlns="http://www.w3.org/2000/svg" xmlns:xlink="http://www.w3.org/1999/xlink">
    <!-- Generator: Sketch 3.8.1 (29687) - http://www.bohemiancoding.com/sketch -->
    <title>roi_logo</title>
    <desc>Created with Sketch.</desc>
    <defs></defs>
    <g id="Page-1" stroke="none" stroke-width="1" fill="none" fill-rule="evenodd">
        <path d="M0,32.1878095 L7.51181992,32.1878095 L7.51181992,21.7710845 L11.0317257,21.7710845 L16.483548,32.1878095 L24.8541165,32.1878095 L18.8871164,21.3820201 C18.157519,20.0851385 17.7283231,19.5232763 17.7283231,19.5232763 L17.7283231,19.437057 C20.7758637,17.8807991 22.321397,14.293359 22.321397,11.0084047 C22.321397,6.51314746 20.1322482,3.35788137 16.655155,2.0178902 C15.3243981,1.49913758 13.8220341,1.28287091 10.6885117,1.28287091 L0,1.28287091 L0,32.1878095 L0,32.1878095 Z M7.51181992,15.2873953 L7.51181992,7.76656012 L10.0445395,7.76656012 C11.2893145,7.76656012 12.1908756,7.89624827 12.8776604,8.19873421 C14.2943993,8.76059646 14.6804258,9.92778985 14.6804258,11.4836885 C14.6804258,13.9474041 13.1780619,15.2873953 10.7741368,15.2873953 L7.51181992,15.2873953 Z M72.0007315,32.1878095 L79.5129082,32.1878095 L79.5129082,21.7710845 L83.032814,21.7710845 L88.4842796,32.1878095 L96.854848,32.1878095 L90.8882047,21.3820201 C90.1586073,20.0851385 89.7290547,19.5232763 89.7290547,19.5232763 L89.7290547,19.437057 C92.776952,17.8807991 94.3221285,14.293359 94.3221285,11.0084047 C94.3221285,6.51314746 92.1329798,3.35788137 88.6558866,2.0178902 C87.3254864,1.49913758 85.8231224,1.28287091 82.6892432,1.28287091 L72.0007315,1.28287091 L72.0007315,32.1878095 Z M79.5129082,15.2873953 L79.5129082,7.76656012 L82.0456278,7.76656012 C83.2904029,7.76656012 84.1916072,7.89624827 84.8787487,8.19873421 C86.2951308,8.76059646 86.6815141,9.92778985 86.6815141,11.4836885 C86.6815141,13.9474041 85.1791502,15.2873953 82.7752251,15.2873953 L79.5129082,15.2873953 Z M59.8765721,22.5851381 L67.3887488,22.6203443 L67.3887488,1.29149284 L59.8765721,1.29149284 L59.8765721,22.5851381 Z M59.8765721,32.1626622 L67.3887488,32.1712841 L67.3887488,26.5979267 L59.8765721,26.5979267 L59.8765721,32.1626622 Z M97.0974525,28.2177713 C100.000857,31.1409638 104.184715,32.6027397 108.155579,32.6027397 C115.200029,32.6027397 119,28.1746616 119,23.0158752 C119,13.2996819 105.508336,14.3314391 105.508336,9.94647069 C105.508336,8.69952448 106.490528,7.75362722 108.753171,7.75362722 C111.144253,7.75362722 113.791139,8.9574638 115.499003,10.4623493 L118.65857,4.31455604 C116.011327,1.94999252 112.51033,0.832015969 109.094601,0.832015969 C102.690556,0.832015969 98.0368314,4.57249536 98.0368314,10.2471604 C98.0368314,19.8774938 111.528495,19.1895358 111.528495,23.5317539 C111.528495,24.7352312 110.461035,25.6811285 108.368929,25.6811285 C105.636417,25.6811285 102.733369,24.0045229 101.025505,22.4999966 L97.0974525,28.2177713 Z M44.4048275,8.85148595 C43.1939457,8.16855747 41.8168084,7.79206665 40.2998168,7.79206665 C35.5051672,7.79206665 32.1104882,11.5523046 32.1104882,16.5512261 C32.1104882,21.7635403 35.5051672,25.6944206 40.2998168,25.6944206 C45.0944664,25.6944206 48.4891455,21.7635403 48.4891455,16.5512261 C48.4891455,15.1451335 48.2204967,13.8371153 47.6011417,12.4047977 L52.2434499,5.97212153 C54.751909,8.76203345 56.1693614,12.4453926 56.1693614,16.5512261 C56.1693614,25.5234191 49.7196497,32.5305311 40.2998168,32.5305311 C30.8799839,32.5305311 24.4302722,25.5234191 24.4302722,16.5512261 C24.4302722,7.79206665 30.8799839,0.955956171 40.2998168,0.955956171 C43.8414856,0.955956171 46.9632346,1.9223305 49.489889,3.579896 L52.9434353,0 L48.954732,6.77000904 L46.6089607,10.7892641 L46.5961169,10.7727387 L42.7729555,17.2618166 C42.4432988,18.0557524 41.5952534,18.6607243 40.6069969,18.6607243 C39.2894405,18.6607243 38.2212672,17.5851389 38.2212672,16.2584399 C38.2212672,15.5949107 38.4881321,14.9942498 38.9009165,14.5807565 L38.8884295,14.5703384 L44.4048275,8.85148595 Z" id="logo-copy" fill="#3C280D"></path>
    </g>
</svg>