<?xml version="1.0" encoding="UTF-8" standalone="no"?>
<svg width="18px" height="24px" viewBox="0 0 18 24" version="1.1" xmlns="http://www.w3.org/2000/svg" xmlns:xlink="http://www.w3.org/1999/xlink">
    <!-- Generator: Sketch 3.8.1 (29687) - http://www.bohemiancoding.com/sketch -->
    <title>shield</title>
    <desc>Created with Sketch.</desc>
    <defs></defs>
    <g id="Page-1" stroke="none" stroke-width="1" fill="none" fill-rule="evenodd">
        <g id="shield" fill="#FFA706">
            <path d="M9,23 C8.8,23 8.6,23 8.5,22.8 C0.1,17.6 0,11.3 0,11 L0,4 C0,3.4 0.4,3 1,3 C3.8,3 8.6,0.9 8.6,0.9 C9.1,0.7 9.7,0.9 9.9,1.4 C10.1,1.9 9.9,2.5 9.4,2.7 C9.2,2.8 5.1,4.6 2,4.9 L2,11 C2,11.2 2.2,16.5 9.5,21.2 C10,21.5 10.1,22.1 9.8,22.6 C9.7,22.8 9.3,23 9,23 L9,23 Z" id="Shape"></path>
            <path d="M9,23 C8.7,23 8.3,22.8 8.2,22.5 C7.9,22 8,21.4 8.5,21.1 C15.8,16.5 16,11.2 16,11 L16,4.9 C12.9,4.5 8.8,2.8 8.6,2.7 C8.1,2.5 7.9,1.9 8.1,1.4 C8.3,0.9 8.9,0.7 9.4,0.9 C9.4,0.9 14.2,3 17,3 C17.6,3 18,3.4 18,4 L18,11 C18,11.3 17.9,17.6 9.5,22.8 C9.4,23 9.2,23 9,23 L9,23 Z" id="Shape"></path>
            <path d="M9,23 C8.4,23 8,22.6 8,22 L8,2 C8,1.4 8.4,1 9,1 C9.6,1 10,1.4 10,2 L10,22 C10,22.6 9.6,23 9,23 L9,23 Z" id="Shape"></path>
        </g>
    </g>
</svg>