<?xml version="1.0" encoding="UTF-8" standalone="no"?>
<svg width="20px" height="14px" viewBox="0 0 20 14" version="1.1" xmlns="http://www.w3.org/2000/svg" xmlns:xlink="http://www.w3.org/1999/xlink">
    <!-- Generator: Sketch 3.8.1 (29687) - http://www.bohemiancoding.com/sketch -->
    <title>speed</title>
    <desc>Created with Sketch.</desc>
    <defs></defs>
    <g id="Page-1" stroke="none" stroke-width="1" fill="none" fill-rule="evenodd">
        <path d="M8.046,9.98885237 C7.363,11.1728524 7.824,12.1468524 8.771,12.6938524 C9.718,13.2408524 10.792,13.1528524 11.476,11.9688524 C12.159,10.7848524 16.473,0.220852371 16.098,0.00385237066 C15.723,-0.213147629 8.73,8.80485237 8.046,9.98885237 L8.046,9.98885237 Z M9.901,2.46385237 C10.334,2.46385237 10.757,2.50085237 11.169,2.57085237 C11.603,2.02785237 12.088,1.42885237 12.561,0.860852371 C11.717,0.615852371 10.826,0.483852371 9.901,0.483852371 C4.349,0.483852371 -1.42108547e-14,5.16485237 -1.42108547e-14,11.1418524 C-1.42108547e-14,11.5088524 0.017,11.8768524 0.049,12.2358524 C0.097,12.7808524 0.584,13.1808524 1.123,13.1338524 C1.668,13.0848524 2.07,12.6038524 2.021,12.0598524 C1.994,11.7598524 1.98,11.4508524 1.98,11.1418524 C1.98,6.27485237 5.459,2.46385237 9.901,2.46385237 L9.901,2.46385237 Z M17.048,3.70085237 C16.772,4.44285237 16.479,5.19985237 16.222,5.85385237 C17.229,7.30785237 17.822,9.13485237 17.822,11.1408524 C17.822,11.4538524 17.808,11.7688524 17.78,12.0768524 C17.731,12.6218524 18.132,13.1028524 18.676,13.1528524 C18.707,13.1548524 18.737,13.1568524 18.767,13.1568524 C19.273,13.1568524 19.705,12.7698524 19.752,12.2568524 C19.785,11.8898524 19.802,11.5148524 19.802,11.1418524 C19.802,8.21885237 18.76,5.60785237 17.048,3.70085237 L17.048,3.70085237 Z" id="speed" fill="#A09381"></path>
    </g>
</svg>