<?xml version="1.0" encoding="UTF-8" standalone="no"?>
<svg width="16px" height="16px" viewBox="0 0 16 16" version="1.1" xmlns="http://www.w3.org/2000/svg" xmlns:xlink="http://www.w3.org/1999/xlink">
    <!-- Generator: Sketch 3.8.1 (29687) - http://www.bohemiancoding.com/sketch -->
    <title>squares</title>
    <desc>Created with Sketch.</desc>
    <defs></defs>
    <g id="Page-1" stroke="none" stroke-width="1" fill="none" fill-rule="evenodd">
        <path d="M4.53295177,0 L2.13315377,0 C0.666610555,0 -1.42108547e-14,0.666554452 -1.42108547e-14,2.13297425 L-1.42108547e-14,4.53257027 C-1.42108547e-14,5.99899007 0.666610555,6.66554452 2.13315377,6.66554452 L4.53295177,6.66554452 C5.99949499,6.66554452 6.66610555,5.99899007 6.66610555,4.53257027 L6.66610555,2.13297425 C6.66610555,0.666554452 5.99949499,0 4.53295177,0 L4.53295177,0 Z M13.8668462,0 L11.4670482,0 C10.000505,0 9.33389445,0.666554452 9.33389445,2.13297425 L9.33389445,4.53257027 C9.33389445,5.99899007 10.000505,6.66554452 11.4670482,6.66554452 L13.8668462,6.66554452 C15.3333894,6.66554452 16,5.99899007 16,4.53257027 L16,2.13297425 C16,0.666554452 15.3333894,0 13.8668462,0 L13.8668462,0 Z M4.53295177,9.3331089 L2.13315377,9.3331089 C0.666610555,9.3331089 -1.42108547e-14,9.99966336 -1.42108547e-14,11.4660832 L-1.42108547e-14,13.8656792 C-1.42108547e-14,15.3334455 0.666610555,16 2.13315377,16 L4.53295177,16 C5.99949499,16 6.66610555,15.3334455 6.66610555,13.8656792 L6.66610555,11.4660832 C6.66610555,9.99966336 5.99949499,9.3331089 4.53295177,9.3331089 L4.53295177,9.3331089 Z M13.8668462,9.3331089 L11.4670482,9.3331089 C10.000505,9.3331089 9.33389445,9.99966336 9.33389445,11.4660832 L9.33389445,13.8656792 C9.33389445,15.3334455 10.000505,16 11.4670482,16 L13.8668462,16 C15.3333894,16 16,15.3334455 16,13.8656792 L16,11.4660832 C16,9.99966336 15.3333894,9.3331089 13.8668462,9.3331089 L13.8668462,9.3331089 Z" id="squares" fill="#A09381"></path>
    </g>
</svg>