<?xml version="1.0" encoding="UTF-8" standalone="no"?>
<svg width="24px" height="19px" viewBox="0 0 24 19" version="1.1" xmlns="http://www.w3.org/2000/svg" xmlns:xlink="http://www.w3.org/1999/xlink">
    <!-- Generator: Sketch 3.8.1 (29687) - http://www.bohemiancoding.com/sketch -->
    <title>twitter</title>
    <desc>Created with Sketch.</desc>
    <defs></defs>
    <g id="Page-1" stroke="none" stroke-width="1" fill="none" fill-rule="evenodd">
        <path d="M24,2.25060475 C23.3316675,3.21943911 22.5117314,4.04532395 21.5401916,4.72825927 C21.5497834,4.91141909 21.5545793,5.11843655 21.5545793,5.34931165 C21.5545793,6.6321017 21.3626784,7.91644342 20.9788766,9.2023368 C20.5950748,10.4882428 20.008812,11.7190806 19.2200882,12.8948501 C18.4313644,14.0706196 17.4918492,15.1122492 16.4015427,16.019739 C15.3112362,16.9272287 14.0006369,17.6508113 12.4697446,18.1904868 C10.9388523,18.7301623 9.29814825,19 7.54763243,19 C4.8156601,19 2.29978262,18.2812117 0,16.8436352 C0.40818422,16.8879051 0.799667276,16.9100401 1.17444917,16.9100401 C3.4567898,16.9100401 5.49528696,16.2249198 7.28994064,14.8546791 C6.22578413,14.8356665 5.27275209,14.5164098 4.43084451,13.8969091 C3.58893694,13.2774211 3.00955605,12.4858312 2.69270185,11.5221395 C3.0058909,11.5802794 3.31499888,11.6093494 3.6200258,11.6093494 C4.05909092,11.6093494 4.49112466,11.5535401 4.91612702,11.4419216 C3.78047394,11.2202551 2.83835289,10.6690023 2.08976388,9.78816321 C1.34120086,8.90733676 0.96691935,7.89069211 0.96691935,6.73822926 L0.96691935,6.67883532 C1.6639882,7.05498428 2.40752137,7.25506674 3.19751887,7.27908272 C2.52476743,6.84198182 1.99137648,6.27198873 1.59734601,5.56910343 C1.20328954,4.86621813 1.00626131,4.10557289 1.00626131,3.28716771 C1.00626131,2.42402391 1.22819182,1.62027405 1.67205285,0.875918124 C2.9070551,2.35293865 4.40351829,3.53342013 6.16144241,4.41736258 C7.91939252,5.3013177 9.80533722,5.79223921 11.8192765,5.89012711 C11.7333793,5.54124946 11.6903526,5.17717816 11.6901967,4.7979132 C11.6901967,3.47366519 12.1710472,2.34295099 13.1327483,1.40577059 C14.0944623,0.468590198 15.2547122,0 16.613498,0 C18.0360992,0 19.2343719,0.504835828 20.2083161,1.51450749 C21.3210945,1.2996937 22.3630196,0.911150422 23.3340915,0.348877651 C22.9599724,1.49634984 22.2390736,2.38154629 21.1713949,3.004467 C22.1526954,2.89082178 23.0955508,2.63953436 23.999961,2.25060475 L24,2.25060475 Z" id="twitter" fill="#A09381"></path>
    </g>
</svg>