<?xml version="1.0" encoding="UTF-8" standalone="no"?>
<svg width="24px" height="24px" viewBox="0 0 24 24" version="1.1" xmlns="http://www.w3.org/2000/svg" xmlns:xlink="http://www.w3.org/1999/xlink">
    <!-- Generator: Sketch 3.8.1 (29687) - http://www.bohemiancoding.com/sketch -->
    <title>vk</title>
    <desc>Created with Sketch.</desc>
    <defs></defs>
    <g id="Page-1" stroke="none" stroke-width="1" fill="none" fill-rule="evenodd">
        <path d="M4.70266346,0 C2.11629335,0 0,2.11629335 0,4.70266346 L0,19.2973365 C0,21.8837067 2.11629335,24 4.70266346,24 L19.2973365,24 C21.8837067,24 24,21.8837067 24,19.2973365 L24,4.70266346 C24,2.11629335 21.8837067,1.08033293e-15 19.2973365,1.08033293e-15 L4.70266346,1.08033293e-15 L4.70266346,0 Z M7.39483625,5.4150617 L12.1289837,5.4150617 C13.1121879,5.4150617 13.8590218,5.45103317 14.3659579,5.52830343 C14.872894,5.60171018 15.349066,5.75905836 15.7915223,5.99850019 C16.2703339,6.25644369 16.6300006,6.60379992 16.8668988,7.0341137 C17.1037489,7.46697116 17.2238538,7.96450047 17.2238538,8.5301812 C17.2238538,9.18395482 17.0607223,9.7650896 16.7319158,10.2752173 C16.4062768,10.785345 15.9544377,11.1604658 15.3798301,11.4030752 L15.3798301,11.4728104 C16.206622,11.6483963 16.8697304,12.0016078 17.3670917,12.5391881 C17.865197,13.0773922 18.1139976,13.801861 18.1139976,14.7116583 C18.1139976,15.3775744 17.9882775,15.9649484 17.7360453,16.4686929 C17.483909,16.9724375 17.1462716,17.3875372 16.7191734,17.7195353 C16.2154289,18.1153895 15.6625145,18.3947383 15.0566389,18.5639409 C14.4545787,18.7324957 13.6897951,18.8166531 12.7589284,18.8166531 L7.39486025,18.8166531 L7.39486025,5.4150857 L7.39483625,5.4150617 Z M10.7431584,7.87175216 L10.7431584,10.7079068 L11.166849,10.7079068 C11.7414566,10.7079068 12.1474614,10.7020035 12.3779524,10.6899091 C12.6084433,10.6778146 12.8483171,10.6160704 13.0941181,10.5024207 C13.3609885,10.3766525 13.5489328,10.2020265 13.6497921,9.98048646 C13.7512993,9.7563787 13.8035168,9.4975953 13.8035168,9.20584006 C13.8035168,8.98813949 13.7481317,8.76645543 13.6370257,8.53918006 C13.5265677,8.3118807 13.3549653,8.14574964 13.1180911,8.04424243 C12.897175,7.94592681 12.6359679,7.89409334 12.3314462,7.88451855 C12.0275485,7.87491976 11.5759734,7.87177616 10.9771049,7.87177616 L10.7431344,7.87177616 L10.7431584,7.87175216 Z M10.7431584,13.0033616 L10.7431584,16.3584508 L10.9246475,16.3584508 C11.8006091,16.3584508 12.4056209,16.3518517 12.7401627,16.3397092 C13.0747046,16.3276147 13.4193492,16.2481607 13.7660335,16.0974837 C14.0737707,15.9653324 14.2947109,15.7716768 14.436461,15.5163009 C14.5775632,15.261549 14.6479464,14.9725775 14.6479464,14.6501541 C14.6479464,14.2351504 14.5659247,13.912703 14.396722,13.6790204 C14.2281673,13.4427942 13.976007,13.2673763 13.6408173,13.1473434 C13.4377788,13.0675295 13.1549265,13.0242869 12.7986674,13.0153601 C12.4424083,13.0064332 11.9635966,13.0033616 11.3641041,13.0033616 L10.7431824,13.0033616 L10.7431584,13.0033616 Z" id="vk" fill="#A09381"></path>
    </g>
</svg>