<?xml version="1.0" encoding="UTF-8" standalone="no"?>
<svg width="23px" height="20px" viewBox="0 0 23 20" version="1.1" xmlns="http://www.w3.org/2000/svg" xmlns:xlink="http://www.w3.org/1999/xlink">
    <!-- Generator: Sketch 3.8.1 (29687) - http://www.bohemiancoding.com/sketch -->
    <title>zip</title>
    <desc>Created with Sketch.</desc>
    <defs></defs>
    <g id="Page-1" stroke="none" stroke-width="1" fill="none" fill-rule="evenodd">
        <path d="M22.2334159,0 L0.76658051,0 C0.343283528,0 0,0.335816185 0,0.749905315 L0,3.74952657 L22.9999964,3.74952657 L22.9999964,0.749905315 C23.0012869,0.335816185 22.6567129,0 22.2334159,0 L22.2334159,0 Z M1.27763418,18.2502209 C1.27763418,19.2134831 2.08293088,20 3.06632204,20 L19.9323838,20 C20.915775,20 21.7210717,19.2122207 21.7210717,18.2502209 L21.7210717,5.00063123 L1.27634364,5.00063123 L1.27634364,18.2502209 L1.27763418,18.2502209 Z M7.66709564,7.50031562 L15.3329007,7.50031562 L15.3329007,10 L7.66709564,10 L7.66709564,7.50031562 L7.66709564,7.50031562 Z" id="zip" fill="#A09381"></path>
    </g>
</svg>