<?xml version="1.0" encoding="UTF-8" standalone="no"?>
<svg viewBox="0 0 80 80" version="1.1" xmlns="http://www.w3.org/2000/svg" xmlns:xlink="http://www.w3.org/1999/xlink">
  <title>brilliant</title>
  <path d="M53.9065343,34.98 L53.9065343,34.849 L53.9485343,34.93 L53.9065343,34.98 L53.9065343,34.98 Z M29.6885343,27.94 L32.0795343,33.98 L26.4795343,33.98 L29.6885343,27.94 L29.6885343,27.94 Z M46.8985343,35.98 L53.0895343,35.98 L41.0695343,50.63 L46.8985343,35.98 L46.8985343,35.98 Z M32.8715343,35.98 L38.6165343,50.49 L27.0045343,35.98 L32.8715343,35.98 L32.8715343,35.98 Z M33.6185343,32.719 L31.3125343,26.98 L37.9315343,26.98 L33.6185343,32.719 L33.6185343,32.719 Z M41.9315343,26.98 L48.3275343,26.98 L46.1045343,32.56 L41.9315343,26.98 L41.9315343,26.98 Z M34.6745343,33.98 L39.9165343,26.99 L45.1575343,33.98 L34.6745343,33.98 L34.6745343,33.98 Z M44.7475343,35.98 L39.8585343,48.27 L34.9255343,35.98 L44.7475343,35.98 L44.7475343,35.98 Z M53.4495343,33.98 L47.6945343,33.98 L50.1815343,27.73 L53.4495343,33.98 L53.4495343,33.98 Z M55.8345343,34.219 L51.4635343,25.87 C51.2085343,25.38 50.5495343,24.98 49.9995343,24.98 L39.9245343,24.98 L39.9075343,24.98 L39.8925343,24.98 L29.9995343,24.98 C29.4505343,24.98 28.7895343,25.38 28.5305343,25.86 L24.1705343,34.06 C23.9125343,34.54 23.9635343,35.31 24.2845343,35.75 L39.2855343,54.66 C39.4465343,54.889 39.6605343,55 39.8745343,55 C40.0855343,55 40.2975343,54.889 40.4595343,54.67 L41.6365343,53.219 L41.8245343,53.16 L41.7785343,53.05 L55.7075343,35.91 C56.0325343,35.469 56.0895343,34.71 55.8345343,34.219 L55.8345343,34.219 L55.8345343,34.219 Z" id="brilliant" fill="#F5A623" fill-rule="evenodd"></path>
</svg>