<?xml version="1.0" encoding="UTF-8" standalone="no"?>
<svg viewBox="0 0 47 48" version="1.1" xmlns="http://www.w3.org/2000/svg" xmlns:xlink="http://www.w3.org/1999/xlink">
  <title>certified</title>
  <g id="Page-1" stroke="none" stroke-width="1" fill="none" fill-rule="evenodd">
    <g id="roi.rs_medconference_page" transform="translate(-517.000000, -532.000000)" fill="#CFC6BC">
      <g id="right" transform="translate(516.000000, 36.000000)">
        <g id="info">
          <g id="certified" transform="translate(1.000000, 490.000000)">
            <g transform="translate(0.000000, 6.000000)" id="Shape">
              <path d="M23.3860847,8.6072 C15.166661,8.6072 8.48071186,15.3224 8.48071186,23.576 C8.48071186,31.8296 15.166661,38.544 23.3860847,38.544 C31.6055085,38.544 38.2922542,31.8288 38.2922542,23.576 C38.2922542,15.3224 31.6063051,8.6072 23.3860847,8.6072 L23.3860847,8.6072 Z M21.3252542,31.488 L14.3381864,24.472 L17.2537797,21.5472 L21.3252542,25.6376 L31.2557966,15.6656 L34.1674068,18.5912 L21.3252542,31.488 L21.3252542,31.488 Z"></path>
              <path d="M44.0636949,20.7536 C43.6136102,16.2096 45.6927627,14.9264 43.9888136,11.5128 C42.2848644,8.1008 39.292,9.364 36.0211186,6.896 C32.7486441,4.4304 33.8240678,1.416 29.4618305,0.416 C25.098,-0.5824 24.9936441,2.1752 20.5764407,2.8112 C16.1592373,3.4472 14.9268814,0.5952 11.3763898,2.8856 C7.82589831,5.176 10.1910339,6.308 6.77835593,10.8888 C3.36567797,15.4696 1.50240678,12.9872 0.324220339,17.4736 C-0.851576271,21.9616 2.36513559,22.0376 2.70847458,26.3976 C3.05420339,30.7584 0.367237288,31.416 2.78335593,35.6376 C5.19947458,39.8584 7.20055932,37.0952 10.7526441,40.2544 C14.3047288,43.4152 11.5827119,45.0656 17.310339,46.736 C23.0371695,48.4064 21.4160678,45.1896 26.197322,44.3424 C30.9785763,43.4928 31.1554237,46.8392 35.3981695,44.268 C39.6385254,41.6952 37.5012203,39.6936 39.9954068,36.2632 C42.4887966,32.8336 45.1932881,34.4536 46.4479492,29.6784 C47.7018136,24.9 44.5137797,25.2968 44.0636949,20.7536 L44.0636949,20.7536 Z M19.020661,40.2216 C9.86442373,37.8 4.39888136,28.3832 6.81101695,19.1912 C9.22155932,9.9976 18.5992542,4.5088 27.7538983,6.9296 C36.9077458,9.352 42.3732881,18.768 39.9611525,27.9624 C37.5490169,37.1552 28.1753051,42.6448 19.020661,40.2216 L19.020661,40.2216 Z"></path>
            </g>
          </g>
        </g>
      </g>
    </g>
  </g>
</svg>