<?xml version="1.0" encoding="UTF-8" standalone="no"?>
<svg viewBox="0 0 30 30" version="1.1" xmlns="http://www.w3.org/2000/svg" xmlns:xlink="http://www.w3.org/1999/xlink">
  <title>close</title>
  <path d="M16.060406,15 L26.780156,4.28025 C27.073031,3.987375 27.073031,3.512625 26.780156,3.21975 C26.487656,2.926875 26.012156,2.926875 25.719656,3.21975 L14.999906,13.9395 L4.280156,3.21975 C3.987656,2.926875 3.512156,2.926875 3.219656,3.21975 C2.926781,3.512625 2.926781,3.987375 3.219656,4.28025 L13.939406,15 L3.219656,25.71975 C2.926781,26.012625 2.926781,26.487375 3.219656,26.78025 C3.365906,26.926875 3.557906,27 3.749906,27 C3.941906,27 4.133906,26.926875 4.280156,26.78025 L14.999906,16.0605 L25.719656,26.78025 C25.865906,26.926875 26.057906,27 26.249906,27 C26.441906,27 26.633906,26.926875 26.780156,26.78025 C27.073031,26.487375 27.073031,26.012625 26.780156,25.71975 L16.060406,15 L16.060406,15 Z" id="close" fill="#9F9184" fill-rule="evenodd"></path>
</svg>