<?xml version="1.0" encoding="UTF-8" standalone="no"?>
<svg viewBox="0 0 140 78" version="1.1" xmlns="http://www.w3.org/2000/svg" xmlns:xlink="http://www.w3.org/1999/xlink">
  <title>Group</title>
  <g id="Page-1" stroke="none" stroke-width="1" fill="none" fill-rule="evenodd">
    <g id="roi.rs_medconference_page" transform="translate(-516.000000, -1904.000000)">
      <g id="right" transform="translate(516.000000, 36.000000)">
        <g id="program" transform="translate(0.000000, 1142.000000)">
          <g id="1100" transform="translate(1.000000, 726.000000)">
            <g id="Group">
              <path d="M93.6160976,77.5263085 L53.8048961,77.5263085 L52.0992077,44.7500663 L95.3187014,44.7500663 L93.6160976,77.5263085 Z M98.5,41.1677637 C98.5,41.8828875 97.8445127,42.4679421 97.0425046,42.4679421 L48.9569813,42.4679421 C48.1554873,42.4679421 47.5,41.9409817 47.5,41.2962906 C47.5,40.6515995 48.1256691,39.9287641 48.8906614,39.6891899 L51.2504158,38.9509312 C52.0154081,38.711357 52.6410772,37.8599946 52.6410772,37.0585007 L52.6410772,36.0210313 C52.6410772,35.2195374 53.2965646,34.56405 54.0980585,34.56405 L91.9014274,34.56405 C92.7034354,34.56405 93.3589228,35.2195374 93.3589228,36.0210313 L93.3589228,37.0585007 C93.3589228,37.8599946 93.9928176,38.682567 94.7680921,38.8861536 L97.0908307,39.4969136 C97.8655911,39.7010144 98.5,40.453154 98.5,41.1677637 Z M58.7075483,0.517780315 C55.9750658,3.78390666 54.0461336,8.72859472 55.8881816,12.8568797 C57.49374,16.4556338 61.827154,18.0375432 61.0508513,22.537014 C60.6842925,24.6633635 59.2941452,26.0206079 58.4664318,27.8780791 C57.6639096,29.6784843 60.3213324,31.2490834 61.1300239,29.4347973 C61.8220129,27.882192 62.9350561,26.5573364 63.5725497,24.9317278 C64.6095049,22.2892141 64.4126017,19.4533959 63.101627,16.9630581 C62.3176127,15.4726598 60.882224,14.4814601 59.7445036,13.2954136 C58.3569268,11.8492286 58.0597726,9.76503589 58.4021683,7.87311947 C58.7291408,6.0634603 59.8298455,3.96435847 60.8883933,2.69862527 C62.1556688,1.18406392 59.9856201,-1.01014783 58.7075483,0.517780315 Z M70.5978317,0.517780315 C67.8658632,3.78390666 65.9369311,8.72859472 67.7784649,12.8568797 C69.3835092,16.4556338 73.7164091,18.0375432 72.9406206,22.537014 C72.5740618,24.6633635 71.1839145,26.0206079 70.3567152,27.8780791 C69.5547071,29.6784843 72.2121299,31.2490834 73.0203073,29.4347973 C73.7122962,27.882192 74.8248254,26.5568223 75.4623189,24.9317278 C76.4987601,22.2892141 76.3023709,19.4533959 74.9919104,16.9630581 C74.2078961,15.4726598 72.7730214,14.4814601 71.6353011,13.2954136 C70.2477243,11.8492286 69.9510842,9.76503589 70.2929658,7.87311947 C70.6199383,6.0634603 71.7206429,3.96435847 72.7791907,2.69862527 C74.0454381,1.18406392 71.8753894,-1.01014783 70.5978317,0.517780315 Z M82.3765537,0.517780315 C79.6440711,3.78390666 77.715139,8.72859472 79.5571869,12.8568797 C81.1622312,16.4556338 85.4961593,18.0375432 84.7198567,22.537014 C84.3532978,24.6633635 82.9631506,26.0206079 82.1354371,27.8780791 C81.332915,29.6784843 83.9903378,31.2490834 84.7995434,29.4347973 C85.4915323,27.882192 86.6045756,26.5573364 87.2420691,24.9317278 C88.2790244,22.2892141 88.0821211,19.4533959 86.7716606,16.9630581 C85.9871322,15.4726598 84.5522575,14.4814601 83.414023,13.2954136 C82.0264463,11.8492286 81.7298062,9.76503589 82.0716878,7.87311947 C82.3991744,6.06294619 83.4993649,3.96435847 84.5584268,2.69862527 C85.8246741,1.18457803 83.6541113,-1.00963372 82.3765537,0.517780315 Z" id="Shape" opacity="0.5" fill="#CFC6BC"></path>
              <path d="M38.0457102,77.1052584 L12.8737563,77.1052584 L11.4759579,56.9559252 L39.4415127,56.9559252 L38.0457102,77.1052584 Z M41.5,54.6379647 C41.5,55.1006919 41.0758611,55.4792567 40.5569147,55.4792567 L9.44275259,55.4792567 C8.92413887,55.4792567 8.5,55.1382823 8.5,54.7211292 C8.5,54.3039762 8.90484471,53.8362591 9.39983972,53.6812405 L10.9267396,53.2035437 C11.4217347,53.0485251 11.8265794,52.4976436 11.8265794,51.9790298 L11.8265794,51.3077261 C11.8265794,50.7891124 12.2507182,50.3649735 12.769332,50.3649735 L37.2303354,50.3649735 C37.7492818,50.3649735 38.1734206,50.7891124 38.1734206,51.3077261 L38.1734206,51.9790298 C38.1734206,52.4976436 38.5835879,53.0298963 39.085236,53.1616288 L40.5881846,53.5568264 C41.0895001,53.6888916 41.5,54.1755702 41.5,54.6379647 Z M15.751943,28.3350343 C13.9838661,30.4484102 12.7357335,33.6479142 13.9276469,36.3191575 C14.9665376,38.647763 17.7705114,39.6713515 17.2681979,42.5827738 C17.0310128,43.958647 16.1315057,44.8368639 15.5959265,46.0387571 C15.0766474,47.2037252 16.7961563,48.2199952 17.3194272,47.0460453 C17.7671848,46.0414183 18.4873892,45.1841588 18.8998851,44.1322944 C19.5708561,42.4224326 19.4434482,40.5874915 18.5951704,38.9760964 C18.0878671,38.011721 17.1590861,37.3703565 16.4229141,36.6029147 C15.5250703,35.6671479 15.332794,34.3185526 15.5543442,33.0943714 C15.7659147,31.9234155 16.4781353,30.5651731 17.163078,29.7461693 C17.9830798,28.766159 16.5789307,27.3463749 15.751943,28.3350343 Z M23.4456558,28.3350343 C21.6779115,30.4484102 20.4297789,33.6479142 21.6213597,36.3191575 C22.6599177,38.647763 25.4635588,39.6713515 24.961578,42.5827738 C24.7243929,43.958647 23.8248858,44.8368639 23.2896392,46.0387571 C22.7706928,47.2037252 24.4902017,48.2199952 25.01314,47.0460453 C25.4608976,46.0414183 26.1807693,45.1838262 26.5932652,44.1322944 C27.2639036,42.4224326 27.1368283,40.5874915 26.2888832,38.9760964 C25.7815798,38.011721 24.8531315,37.3703565 24.1169595,36.6029147 C23.2191157,35.6671479 23.0271721,34.3185526 23.2483896,33.0943714 C23.4599601,31.9234155 24.1721807,30.5651731 24.8571234,29.7461693 C25.6764599,28.766159 24.2723108,27.3463749 23.4456558,28.3350343 Z M31.0671818,28.3350343 C29.2991048,30.4484102 28.0509723,33.6479142 29.2428857,36.3191575 C30.2814437,38.647763 33.0857501,39.6713515 32.5834367,42.5827738 C32.3462515,43.958647 31.4467445,44.8368639 30.9111652,46.0387571 C30.3918862,47.2037252 32.111395,48.2199952 32.6349986,47.0460453 C33.0827562,46.0414183 33.8029607,45.1841588 34.2154565,44.1322944 C34.8864276,42.4224326 34.7590196,40.5874915 33.9110745,38.9760964 C33.4034385,38.011721 32.4749902,37.3703565 31.7384855,36.6029147 C30.8406417,35.6671479 30.6486981,34.3185526 30.8699156,33.0943714 C31.0818187,31.9230828 31.7937067,30.5651731 32.4789821,29.7461693 C33.2983186,28.7664917 31.8938368,27.3467076 31.0671818,28.3350343 Z" id="Shape-Copy" opacity="0.5" fill="#CFC6BC"></path>
              <path d="M127.427217,77.1052584 L107.893997,77.1052584 L106.809318,61.4695491 L128.510348,61.4695491 L127.427217,77.1052584 Z M130.107716,59.6708317 C130.107716,60.029904 129.778588,60.323667 129.37589,60.323667 L105.231568,60.323667 C104.829128,60.323667 104.5,60.0590738 104.5,59.7353666 C104.5,59.4116594 104.814156,59.048715 105.198268,58.9284219 L106.383129,58.5577333 C106.767241,58.4374402 107.081397,58.0099608 107.081397,57.607521 L107.081397,57.0865951 C107.081397,56.6841553 107.410525,56.3550272 107.812965,56.3550272 L126.794493,56.3550272 C127.197191,56.3550272 127.526319,56.6841553 127.526319,57.0865951 L127.526319,57.607521 C127.526319,58.0099608 127.844606,58.4229843 128.23388,58.5252077 L129.400155,58.8318776 C129.789172,58.9343591 130.107716,59.3120175 130.107716,59.6708317 Z M110.127445,39.2599838 C108.755433,40.8999453 107.786893,43.3827329 108.711807,45.4555947 C109.517978,47.2625726 111.693837,48.0568684 111.304046,50.3161071 C111.119993,51.3837729 110.421983,52.0652617 110.006378,52.9979204 C109.603422,53.9019256 110.937746,54.6905424 111.3438,53.7795674 C111.691256,52.9999855 112.250128,52.3347595 112.570221,51.5185218 C113.090889,50.1916837 112.992022,48.7677852 112.333765,47.5173565 C111.940102,46.7690095 111.219376,46.2713161 110.648113,45.6757878 C109.951394,44.9496409 109.802189,43.9031425 109.97411,42.9531884 C110.138287,42.0445367 110.690964,40.9905523 111.222474,40.3550124 C111.858788,39.5945328 110.769181,38.4927926 110.127445,39.2599838 Z M116.0977,39.2599838 C114.725946,40.8999453 113.757406,43.3827329 114.682062,45.4555947 C115.487974,47.2625726 117.663576,48.0568684 117.274043,50.3161071 C117.089989,51.3837729 116.39198,52.0652617 115.976633,52.9979204 C115.573935,53.9019256 116.908259,54.6905424 117.314055,53.7795674 C117.661511,52.9999855 118.220125,52.3345014 118.540218,51.5185218 C119.060628,50.1916837 118.962019,48.7677852 118.30402,47.5173565 C117.910357,46.7690095 117.189889,46.2713161 116.618626,45.6757878 C115.921907,44.9496409 115.772961,43.9031425 115.944624,42.9531884 C116.1088,42.0445367 116.661478,40.9905523 117.192987,40.3550124 C117.828785,39.5945328 116.739178,38.4927926 116.0977,39.2599838 Z M122.011939,39.2599838 C120.639927,40.8999453 119.671386,43.3827329 120.596301,45.4555947 C121.402213,47.2625726 123.578331,48.0568684 123.18854,50.3161071 C123.004486,51.3837729 122.306476,52.0652617 121.890872,52.9979204 C121.487915,53.9019256 122.82224,54.6905424 123.228551,53.7795674 C123.576008,52.9999855 124.13488,52.3347595 124.454973,51.5185218 C124.975641,50.1916837 124.876773,48.7677852 124.218775,47.5173565 C123.824854,46.7690095 123.104386,46.2713161 122.532865,45.6757878 C121.836146,44.9496409 121.687199,43.9031425 121.858862,42.9531884 C122.023297,42.0442786 122.575716,40.9905523 123.107484,40.3550124 C123.743282,39.5947909 122.653416,38.4930507 122.011939,39.2599838 Z" id="Shape-Copy-2" opacity="0.5" fill="#CFC6BC"></path>
              <path d="M0.12098968,77.5 L138.058014,77.5" id="hr-copy-2" stroke="#E7E3DE" stroke-linecap="square"></path>
            </g>
          </g>
        </g>
      </g>
    </g>
  </g>
</svg>