<?xml version="1.0" encoding="UTF-8" standalone="no"?>
<svg viewBox="0 0 122 78" version="1.1" xmlns="http://www.w3.org/2000/svg" xmlns:xlink="http://www.w3.org/1999/xlink">
  <title>Shape + Shape Copy + Shape Copy 2</title>
  <g id="Page-1" stroke="none" stroke-width="1" fill="none" fill-rule="evenodd" sketch:type="MSPage">
    <g id="roi.rs_autoconference_page" sketch:type="MSArtboardGroup" transform="translate(-432.000000, -1261.000000)" fill="#BDC3C7" opacity="0.5">
      <g id="program" sketch:type="MSLayerGroup" transform="translate(203.000000, 751.000000)">
        <g id="1100" transform="translate(23.000000, 510.000000)" sketch:type="MSShapeGroup">
          <g id="Shape-+-Shape-Copy-+-Shape-Copy-2" transform="translate(206.000000, 0.000000)">
            <path d="M85.1160976,77.5263085 L45.3048961,77.5263085 L43.5992077,44.7500663 L86.8187014,44.7500663 L85.1160976,77.5263085 Z M90,41.1677637 C90,41.8828875 89.3445127,42.4679421 88.5425046,42.4679421 L40.4569813,42.4679421 C39.6554873,42.4679421 39,41.9409817 39,41.2962906 C39,40.6515995 39.6256691,39.9287641 40.3906614,39.6891899 L42.7504158,38.9509312 C43.5154081,38.711357 44.1410772,37.8599946 44.1410772,37.0585007 L44.1410772,36.0210313 C44.1410772,35.2195374 44.7965646,34.56405 45.5980585,34.56405 L83.4014274,34.56405 C84.2034354,34.56405 84.8589228,35.2195374 84.8589228,36.0210313 L84.8589228,37.0585007 C84.8589228,37.8599946 85.4928176,38.682567 86.2680921,38.8861536 L88.5908307,39.4969136 C89.3655911,39.7010144 90,40.453154 90,41.1677637 Z M50.2075483,0.517780315 C47.4750658,3.78390666 45.5461336,8.72859472 47.3881816,12.8568797 C48.99374,16.4556338 53.327154,18.0375432 52.5508513,22.537014 C52.1842925,24.6633635 50.7941452,26.0206079 49.9664318,27.8780791 C49.1639096,29.6784843 51.8213324,31.2490834 52.6300239,29.4347973 C53.3220129,27.882192 54.4350561,26.5573364 55.0725497,24.9317278 C56.1095049,22.2892141 55.9126017,19.4533959 54.601627,16.9630581 C53.8176127,15.4726598 52.382224,14.4814601 51.2445036,13.2954136 C49.8569268,11.8492286 49.5597726,9.76503589 49.9021683,7.87311947 C50.2291408,6.0634603 51.3298455,3.96435847 52.3883933,2.69862527 C53.6556688,1.18406392 51.4856201,-1.01014783 50.2075483,0.517780315 Z M62.0978317,0.517780315 C59.3658632,3.78390666 57.4369311,8.72859472 59.2784649,12.8568797 C60.8835092,16.4556338 65.2164091,18.0375432 64.4406206,22.537014 C64.0740618,24.6633635 62.6839145,26.0206079 61.8567152,27.8780791 C61.0547071,29.6784843 63.7121299,31.2490834 64.5203073,29.4347973 C65.2122962,27.882192 66.3248254,26.5568223 66.9623189,24.9317278 C67.9987601,22.2892141 67.8023709,19.4533959 66.4919104,16.9630581 C65.7078961,15.4726598 64.2730214,14.4814601 63.1353011,13.2954136 C61.7477243,11.8492286 61.4510842,9.76503589 61.7929658,7.87311947 C62.1199383,6.0634603 63.2206429,3.96435847 64.2791907,2.69862527 C65.5454381,1.18406392 63.3753894,-1.01014783 62.0978317,0.517780315 Z M73.8765537,0.517780315 C71.1440711,3.78390666 69.215139,8.72859472 71.0571869,12.8568797 C72.6622312,16.4556338 76.9961593,18.0375432 76.2198567,22.537014 C75.8532978,24.6633635 74.4631506,26.0206079 73.6354371,27.8780791 C72.832915,29.6784843 75.4903378,31.2490834 76.2995434,29.4347973 C76.9915323,27.882192 78.1045756,26.5573364 78.7420691,24.9317278 C79.7790244,22.2892141 79.5821211,19.4533959 78.2716606,16.9630581 C77.4871322,15.4726598 76.0522575,14.4814601 74.914023,13.2954136 C73.5264463,11.8492286 73.2298062,9.76503589 73.5716878,7.87311947 C73.8991744,6.06294619 74.9993649,3.96435847 76.0584268,2.69862527 C77.3246741,1.18457803 75.1541113,-1.00963372 73.8765537,0.517780315 Z" id="Shape"></path>
            <path d="M29.5457102,77.1052584 L4.37375631,77.1052584 L2.9759579,56.9559252 L30.9415127,56.9559252 L29.5457102,77.1052584 Z M33,54.6379647 C33,55.1006919 32.5758611,55.4792567 32.0569147,55.4792567 L0.942752593,55.4792567 C0.42413887,55.4792567 0,55.1382823 0,54.7211292 C0,54.3039762 0.404844709,53.8362591 0.899839719,53.6812405 L2.42673965,53.2035437 C2.92173466,53.0485251 3.32657937,52.4976436 3.32657937,51.9790298 L3.32657937,51.3077261 C3.32657937,50.7891124 3.75071824,50.3649735 4.26933196,50.3649735 L28.7303354,50.3649735 C29.2492818,50.3649735 29.6734206,50.7891124 29.6734206,51.3077261 L29.6734206,51.9790298 C29.6734206,52.4976436 30.0835879,53.0298963 30.585236,53.1616288 L32.0881846,53.5568264 C32.5895001,53.6888916 33,54.1755702 33,54.6379647 Z M7.25194302,28.3350343 C5.48386609,30.4484102 4.23573351,33.6479142 5.4276469,36.3191575 C6.46653764,38.647763 9.27051139,39.6713515 8.7681979,42.5827738 C8.53101279,43.958647 7.63150573,44.8368639 7.09592645,46.0387571 C6.57664741,47.2037252 8.29615629,48.2199952 8.81942722,47.0460453 C9.26718481,46.0414183 9.98738924,45.1841588 10.3998851,44.1322944 C11.0708561,42.4224326 10.9434482,40.5874915 10.0951704,38.9760964 C9.58786706,38.011721 8.6590861,37.3703565 7.92291408,36.6029147 C7.02507031,35.6671479 6.83279402,34.3185526 7.05434421,33.0943714 C7.26591466,31.9234155 7.9781353,30.5651731 8.66307799,29.7461693 C9.48307981,28.766159 8.07893066,27.3463749 7.25194302,28.3350343 Z M14.9456558,28.3350343 C13.1779115,30.4484102 11.9297789,33.6479142 13.1213597,36.3191575 C14.1599177,38.647763 16.9635588,39.6713515 16.461578,42.5827738 C16.2243929,43.958647 15.3248858,44.8368639 14.7896392,46.0387571 C14.2706928,47.2037252 15.9902017,48.2199952 16.51314,47.0460453 C16.9608976,46.0414183 17.6807693,45.1838262 18.0932652,44.1322944 C18.7639036,42.4224326 18.6368283,40.5874915 17.7888832,38.9760964 C17.2815798,38.011721 16.3531315,37.3703565 15.6169595,36.6029147 C14.7191157,35.6671479 14.5271721,34.3185526 14.7483896,33.0943714 C14.9599601,31.9234155 15.6721807,30.5651731 16.3571234,29.7461693 C17.1764599,28.766159 15.7723108,27.3463749 14.9456558,28.3350343 Z M22.5671818,28.3350343 C20.7991048,30.4484102 19.5509723,33.6479142 20.7428857,36.3191575 C21.7814437,38.647763 24.5857501,39.6713515 24.0834367,42.5827738 C23.8462515,43.958647 22.9467445,44.8368639 22.4111652,46.0387571 C21.8918862,47.2037252 23.611395,48.2199952 24.1349986,47.0460453 C24.5827562,46.0414183 25.3029607,45.1841588 25.7154565,44.1322944 C26.3864276,42.4224326 26.2590196,40.5874915 25.4110745,38.9760964 C24.9034385,38.011721 23.9749902,37.3703565 23.2384855,36.6029147 C22.3406417,35.6671479 22.1486981,34.3185526 22.3699156,33.0943714 C22.5818187,31.9230828 23.2937067,30.5651731 23.9789821,29.7461693 C24.7983186,28.7664917 23.3938368,27.3467076 22.5671818,28.3350343 Z" id="Shape-Copy"></path>
            <path d="M118.927217,77.1052584 L99.3939973,77.1052584 L98.3093178,61.4695491 L120.010348,61.4695491 L118.927217,77.1052584 Z M121.607716,59.6708317 C121.607716,60.029904 121.278588,60.323667 120.87589,60.323667 L96.7315679,60.323667 C96.3291281,60.323667 96,60.0590738 96,59.7353666 C96,59.4116594 96.314156,59.048715 96.6982679,58.9284219 L97.8831291,58.5577333 C98.267241,58.4374402 98.581397,58.0099608 98.581397,57.607521 L98.581397,57.0865951 C98.581397,56.6841553 98.9105251,56.3550272 99.3129649,56.3550272 L118.294493,56.3550272 C118.697191,56.3550272 119.026319,56.6841553 119.026319,57.0865951 L119.026319,57.607521 C119.026319,58.0099608 119.344606,58.4229843 119.73388,58.5252077 L120.900155,58.8318776 C121.289172,58.9343591 121.607716,59.3120175 121.607716,59.6708317 Z M101.627445,39.2599838 C100.255433,40.8999453 99.2868928,43.3827329 100.211807,45.4555947 C101.017978,47.2625726 103.193837,48.0568684 102.804046,50.3161071 C102.619993,51.3837729 101.921983,52.0652617 101.506378,52.9979204 C101.103422,53.9019256 102.437746,54.6905424 102.8438,53.7795674 C103.191256,52.9999855 103.750128,52.3347595 104.070221,51.5185218 C104.590889,50.1916837 104.492022,48.7677852 103.833765,47.5173565 C103.440102,46.7690095 102.719376,46.2713161 102.148113,45.6757878 C101.451394,44.9496409 101.302189,43.9031425 101.47411,42.9531884 C101.638287,42.0445367 102.190964,40.9905523 102.722474,40.3550124 C103.358788,39.5945328 102.269181,38.4927926 101.627445,39.2599838 Z M107.5977,39.2599838 C106.225946,40.8999453 105.257406,43.3827329 106.182062,45.4555947 C106.987974,47.2625726 109.163576,48.0568684 108.774043,50.3161071 C108.589989,51.3837729 107.89198,52.0652617 107.476633,52.9979204 C107.073935,53.9019256 108.408259,54.6905424 108.814055,53.7795674 C109.161511,52.9999855 109.720125,52.3345014 110.040218,51.5185218 C110.560628,50.1916837 110.462019,48.7677852 109.80402,47.5173565 C109.410357,46.7690095 108.689889,46.2713161 108.118626,45.6757878 C107.421907,44.9496409 107.272961,43.9031425 107.444624,42.9531884 C107.6088,42.0445367 108.161478,40.9905523 108.692987,40.3550124 C109.328785,39.5945328 108.239178,38.4927926 107.5977,39.2599838 Z M113.511939,39.2599838 C112.139927,40.8999453 111.171386,43.3827329 112.096301,45.4555947 C112.902213,47.2625726 115.078331,48.0568684 114.68854,50.3161071 C114.504486,51.3837729 113.806476,52.0652617 113.390872,52.9979204 C112.987915,53.9019256 114.32224,54.6905424 114.728551,53.7795674 C115.076008,52.9999855 115.63488,52.3347595 115.954973,51.5185218 C116.475641,50.1916837 116.376773,48.7677852 115.718775,47.5173565 C115.324854,46.7690095 114.604386,46.2713161 114.032865,45.6757878 C113.336146,44.9496409 113.187199,43.9031425 113.358862,42.9531884 C113.523297,42.0442786 114.075716,40.9905523 114.607484,40.3550124 C115.243282,39.5947909 114.153416,38.4930507 113.511939,39.2599838 Z" id="Shape-Copy-2"></path>
          </g>
        </g>
      </g>
    </g>
  </g>
</svg>