<?xml version="1.0" encoding="UTF-8" standalone="no"?>
<svg viewBox="0 0 290 101" version="1.1" xmlns="http://www.w3.org/2000/svg" xmlns:xlink="http://www.w3.org/1999/xlink">
  <title>logo</title>
  <g id="Page-1" stroke="none" stroke-width="1" fill="none" fill-rule="evenodd" sketch:type="MSPage">
    <g id="roi.rs_autoconference_banner_640" sketch:type="MSArtboardGroup" transform="translate(-175.000000, -29.000000)">
      <g id="logo" sketch:type="MSLayerGroup" transform="translate(175.000000, 29.800000)">
        <path d="M0,0 L290,0 L290,100 L0,100 L0,0 Z" id="border" stroke="#F9C938" sketch:type="MSShapeGroup"></path>
        <path d="M34.35,76.215526 C34.0289255,76.3091104 33.4774024,76.3091104 33.1550332,76.215526 L32.0053794,73.3908594 L27.3446206,73.3908594 L26.1794309,76.215526 C25.8738923,76.3091104 25.3055386,76.3091104 25,76.215526 L29.1843257,66.0701883 C29.491159,65.9766039 29.858841,65.9766039 30.1656743,66.0701883 L34.35,76.215526 L34.35,76.215526 Z M31.6376973,72.3917473 L29.6594641,67.5688565 L27.6980615,72.3917473 L31.6376973,72.3917473 Z M41.8466696,66 C43.7186219,66 45.0634541,67.0610442 45.0634541,68.6111843 C45.0634541,69.7350359 44.4390194,70.5729134 43.4631714,70.9377308 C44.7431272,71.3172479 45.4,72.2660406 45.4,73.4526996 C45.4,75.1297908 44.1038251,76.2857143 41.8791078,76.2857143 L37.75,76.2857143 L37.75,66 L41.8466696,66 Z M38.950212,70.5889493 L41.8953269,70.5889493 C43.1104064,70.5889493 43.863242,69.8927226 43.863242,68.8009429 C43.863242,67.6770913 42.9671378,66.9969005 41.7344876,66.9969005 L38.950212,66.9969005 L38.950212,70.5889493 L38.950212,70.5889493 Z M38.950212,75.2888138 L41.815583,75.2888138 C43.3672085,75.2888138 44.1835689,74.4977078 44.1835689,73.3257484 C44.1835689,72.235305 43.494258,71.444199 41.8953269,71.444199 L38.950212,71.444199 L38.950212,75.2888138 Z M55.5328062,66 C55.6223979,66.3145336 55.6223979,66.6755174 55.5328062,66.990051 L52.3352639,66.990051 L52.3352639,76.2150438 C52.0210619,76.3092711 51.5137959,76.3092711 51.2147361,76.2150438 L51.2147361,66.990051 L48.0171938,66.990051 C47.9276021,66.6755174 47.9276021,66.3145336 48.0171938,66 L55.5328062,66 Z M69.2,71.5714286 C69.2,74.636683 66.9445064,77.1428571 63.684592,77.1428571 C60.4054936,77.1428571 58.15,74.636683 58.15,71.5714286 C58.15,68.507558 60.4054936,66 63.684592,66 C66.9445064,66 69.2,68.507558 69.2,71.5714286 Z M59.3846292,71.5714286 C59.3846292,74.1772408 61.2167039,76.1104961 63.684592,76.1104961 C66.1497396,76.1104961 67.9667411,74.1772408 67.9667411,71.5714286 C67.9667411,68.9670002 66.1497396,67.0337449 63.684592,67.0337449 C61.2167039,67.0337449 59.3846292,68.9670002 59.3846292,71.5714286 Z M84.5,76.215526 C84.1864754,76.3091104 83.6705489,76.3091104 83.3570243,76.215526 L81.5235007,68.1303627 L78.6105001,76.215526 C78.2969755,76.3091104 77.9530245,76.3091104 77.6394999,76.215526 L74.7251764,68.1303627 L72.8929757,76.215526 C72.5794511,76.3091104 72.0635246,76.3091104 71.75,76.215526 L74.1153248,66.0701883 C74.4275265,65.9766039 74.8045497,65.9766039 75.1326261,66.0701883 L78.125,74.4044705 L81.1332486,66.0701883 C81.4454503,65.9766039 81.8211507,65.9766039 82.1346752,66.0701883 L84.5,76.215526 Z M96.4,76.215526 C96.0776755,76.3091104 95.5262287,76.3091104 95.2051987,76.215526 L94.055704,73.3908594 L89.3955905,73.3908594 L88.2305621,76.215526 C87.9237713,76.3091104 87.3567908,76.3091104 87.05,76.215526 L91.2350408,66.0701883 C91.5418316,65.9766039 91.9094628,65.9766039 92.2162536,66.0701883 L96.4,76.215526 Z M93.6867783,72.3917473 L91.7101135,67.5688565 L89.7476879,72.3917473 L93.6867783,72.3917473 Z M105.681868,66 C105.772711,66.3145336 105.772711,66.6755174 105.681868,66.990051 L102.484721,66.990051 L102.484721,76.2150438 C102.17182,76.3092711 101.663355,76.3092711 101.364332,76.2150438 L101.364332,66.990051 L98.1671855,66.990051 C98.0776048,66.6755174 98.0776048,66.3145336 98.1671855,66 L105.681868,66 Z M117.65,76.215526 C117.338976,76.3091104 116.810105,76.3091104 116.484646,76.215526 L116.484646,68.0209613 L110.097507,76.215526 C109.787795,76.3091104 109.461024,76.3091104 109.15,76.215526 L109.15,66.0701883 C109.461024,65.9766039 109.988583,65.9766039 110.316667,66.0701883 L110.316667,74.264753 L116.702493,66.0701883 C117.029265,65.9766039 117.338976,65.9766039 117.65,66.0701883 L117.65,76.215526 Z M128.7,74.0789866 C128.7,75.9472003 127.261252,77.1428571 125.208789,77.1428571 C123.890253,77.1428571 122.737482,76.7498403 121.973187,76.1603151 C121.883344,75.980413 121.868159,75.127954 121.973187,74.9964871 C122.886798,75.7174792 124.010465,76.1104961 125.149316,76.1104961 C126.512141,76.1104961 127.561149,75.3078561 127.561149,73.9475197 C127.561149,72.8667234 126.917066,71.9326166 125.434028,71.9326166 L123.740937,71.9326166 C123.666279,71.6046413 123.666279,71.2932723 123.740937,70.9486907 L125.418844,70.9486907 C126.528591,70.9486907 127.261252,70.1294443 127.261252,69.0154354 C127.261252,67.9512455 126.528591,67.0337449 125.149316,67.0337449 C124.159781,67.0337449 123.036114,67.4267618 122.122503,68.1643602 C122.017476,68.016287 122.03266,67.163828 122.122503,66.9839259 C122.886798,66.411007 124.025649,66 125.208789,66 C127.247332,66 128.386183,67.3119012 128.386183,68.8355333 C128.386183,69.9993613 127.786388,70.9486907 126.842408,71.3749202 C128.086286,71.7845433 128.7,72.8667234 128.7,74.0789866 Z M140.6,76.215526 C140.27897,76.3091104 139.726229,76.3091104 139.405199,76.215526 L138.25441,73.3908594 L133.594296,73.3908594 L132.430562,76.215526 C132.123771,76.3091104 131.556791,76.3091104 131.25,76.215526 L135.435041,66.0701883 C135.740537,65.9766039 136.109463,65.9766039 136.414959,66.0701883 L140.6,76.215526 Z M137.886778,72.3917473 L135.910114,67.5688565 L133.947688,72.3917473 L137.886778,72.3917473 Z M153.35,77.930099 C153.045234,78.0233003 152.52829,78.0233003 152.208094,77.930099 L152.208094,76.1737133 L144,76.1737133 L144,66.069901 C144.306051,65.9766997 144.822995,65.9766997 145.143192,66.069901 L145.143192,75.1944429 L150.990318,75.1944429 L150.990318,66.069901 C151.293797,65.9766997 151.812027,65.9766997 152.116793,66.069901 L152.116793,75.1944429 L153.35,75.1944429 L153.35,77.930099 Z M165.25,76.215526 C164.938976,76.3091104 164.411417,76.3091104 164.084646,76.215526 L164.084646,68.0209613 L157.697507,76.215526 C157.387795,76.3091104 157.061024,76.3091104 156.75,76.215526 L156.75,66.0701883 C157.061024,65.9766039 157.588583,65.9766039 157.916667,66.0701883 L157.916667,74.264753 L164.302493,66.0701883 C164.629265,65.9766039 164.938976,65.9766039 165.25,66.0701883 L165.25,76.215526 Z M176.3,76.2150438 C175.99322,76.3092711 175.469354,76.3092711 175.145675,76.2150438 L175.145675,72.4738188 L172.652438,72.4592202 L169.926517,76.2150438 C169.619737,76.3092711 168.95808,76.3092711 168.65,76.2150438 L171.482515,72.3012898 C169.758828,71.9403061 168.942481,70.6675729 168.942481,69.2382366 C168.942481,67.4611879 170.1735,66 172.590042,66 L176.3,66 L176.3,76.2150438 Z M172.605641,66.990051 C170.911852,66.990051 170.112404,67.9960278 170.112404,69.2382366 C170.112404,70.4791182 170.911852,71.485095 172.605641,71.485095 L175.145675,71.485095 L175.145675,66.990051 L172.605641,66.990051 Z M188.576895,66 C191.131935,66 192.45,67.5089651 192.45,69.3006124 C192.45,71.0909326 191.131935,72.5998977 188.576895,72.5998977 L186.021856,72.5998977 L186.021856,76.2150438 C185.679626,76.3092711 185.127111,76.3092711 184.8,76.2150438 L184.8,66 L188.576895,66 Z M188.576895,71.6098467 C190.366385,71.6098467 191.213026,70.5574198 191.213026,69.3006124 C191.213026,68.0424779 190.366385,66.990051 188.576895,66.990051 L186.021856,66.990051 L186.021856,71.6098467 L188.576895,71.6098467 Z M202.579763,75.2888138 C202.673412,75.6055235 202.673412,75.9690046 202.579763,76.2857143 L195.85,76.2857143 L195.85,66 L202.579763,66 C202.673412,66.3167097 202.673412,66.6801908 202.579763,66.9969005 L197.005011,66.9969005 L197.005011,70.5261419 L202.118018,70.5261419 C202.194759,70.8428516 202.194759,71.2063327 202.118018,71.5230424 L197.005011,71.5230424 L197.005011,75.2888138 L202.579763,75.2888138 Z M215.4,76.215526 C215.078926,76.3091104 214.526108,76.3091104 214.205033,76.215526 L213.055379,73.3908594 L208.394621,73.3908594 L207.230726,76.215526 C206.922598,76.3091104 206.356833,76.3091104 206.05,76.215526 L210.234326,66.0701883 C210.541159,65.9766039 210.910136,65.9766039 211.215674,66.0701883 L215.4,76.215526 Z M212.687697,72.3917473 L210.710759,67.5688565 L208.748061,72.3917473 L212.687697,72.3917473 Z M227.3,76.0545013 C226.988115,76.1472477 226.461317,76.1472477 226.152053,76.0545013 L226.152053,66.9744911 L221.883945,66.9744911 L221.248381,73.2551254 C221.029537,75.2955477 220.223616,76.2857143 218.656328,76.2857143 C218.423069,76.2857143 218.206847,76.2556697 218.020764,76.2086433 C217.926412,75.9003592 217.926412,75.5437425 218.020764,75.2184767 C218.12822,75.2498276 218.252712,75.2498276 218.377204,75.2498276 C219.354793,75.2498276 219.928767,74.7090243 220.083399,73.1610726 L220.82773,66 L227.3,66 L227.3,76.0545013 Z M234.477574,69.7322667 C237.033073,69.7322667 238.35,71.2571576 238.35,73.0169534 C238.35,74.7767491 237.033073,76.2857143 234.477574,76.2857143 L230.7,76.2857143 L230.7,66.0706705 C231.02717,65.9764432 231.57841,65.9764432 231.922075,66.0706705 L231.922075,69.7322667 L234.477574,69.7322667 Z M234.477574,75.2956633 C236.267385,75.2956633 237.114178,74.2432364 237.114178,73.0169534 C237.114178,71.7760717 236.267385,70.7382435 234.477574,70.7382435 L231.922075,70.7382435 L231.922075,75.2956633 L234.477574,75.2956633 Z M249.085491,66.0701883 C249.397249,65.9766039 249.923833,65.9766039 250.25,66.0701883 L250.25,76.215526 C249.923833,76.3091104 249.397249,76.3091104 249.085491,76.215526 L249.085491,71.5178537 L242.913199,71.5178537 L242.913199,76.215526 C242.587032,76.3091104 242.060448,76.3091104 241.75,76.215526 L241.75,66.0701883 C242.060448,65.9766039 242.587032,65.9766039 242.913199,66.0701883 L242.913199,70.5345587 L249.085491,70.5345587 L249.085491,66.0701883 Z M263,76.215526 C262.677675,76.3091104 262.124934,76.3091104 261.803904,76.215526 L260.65441,73.3908594 L255.994296,73.3908594 L254.830562,76.215526 C254.522477,76.3091104 253.956791,76.3091104 253.65,76.215526 L257.833746,66.0701883 C258.140537,65.9766039 258.509463,65.9766039 258.814959,66.0701883 L263,76.215526 Z M260.286778,72.3917473 L258.310114,67.5688565 L256.347688,72.3917473 L260.286778,72.3917473 L260.286778,72.3917473 Z" id="automatization" fill="#F9C938" sketch:type="MSShapeGroup"></path>
        <path d="M46.9929329,50.8569101 C46.5284563,51.0476966 45.5592306,51.0476966 45.0934116,50.8569101 L41.7977758,43.202928 L29.1964995,43.202928 L25.9008637,50.8569101 C25.4350447,51.0476966 24.465819,51.0476966 24,50.8569101 L34.6628249,25.9817995 C35.1286439,25.7910131 35.8656313,25.7910131 36.3301079,25.9817995 L46.9929329,50.8569101 L46.9929329,50.8569101 Z M41.255439,41.6342393 L35.5166027,28.2791866 L29.8166965,41.6342393 L41.255439,41.6342393 Z M60.6878768,25.8387097 C65.0243623,25.8387097 68.1818822,28.2716155 68.1818822,31.9753842 C68.1818822,34.6324075 66.7368262,36.6533517 64.2642917,37.5135484 C67.5732989,38.3737451 69.1342756,40.6563756 69.1342756,43.4999476 C69.1342756,47.3539917 66.1282428,50.1612903 60.7629617,50.1612903 L51.2508834,50.1612903 L51.2508834,25.8387097 L60.6878768,25.8387097 Z M53.0779506,36.9513114 L61.0672534,36.9513114 C64.3775778,36.9513114 66.4325345,35.0443692 66.4325345,32.1619329 C66.4325345,29.169381 63.921799,27.3725544 60.5732734,27.3725544 L53.0779506,27.3725544 L53.0779506,36.9513114 L53.0779506,36.9513114 Z M53.0779506,48.6261501 L60.6878768,48.6261501 C65.0243623,48.6261501 67.3072084,46.4186573 67.3072084,43.3885366 C67.3072084,40.5073957 65.4814584,38.2999029 61.0672534,38.2999029 L53.0779506,38.2999029 L53.0779506,48.6261501 Z M92.0110192,25.8387097 C92.1659382,26.2856691 92.1659382,26.8807564 92.0110192,27.3637817 L83.2540878,27.3637817 L83.2540878,50.022179 C82.7920018,50.2076608 81.9038884,50.2076608 81.4030726,50.022179 L81.4030726,27.3637817 L72.684871,27.3637817 C72.4925577,26.8807564 72.4925577,26.2856691 72.684871,25.8387097 L92.0110192,25.8387097 Z M121.932862,37.9993381 C121.932862,45.1502978 116.528357,51 108.713024,51 C100.938074,51 95.5335689,45.1502978 95.5335689,37.9993381 C95.5335689,30.8497022 100.938074,25 108.713024,25 C116.528357,25 121.932862,30.8497022 121.932862,37.9993381 Z M97.3992338,37.9993381 C97.3992338,44.4619419 102.142815,49.4326664 108.713024,49.4326664 C115.323616,49.4326664 120.067197,44.4619419 120.067197,37.9993381 C120.067197,31.5380581 115.323616,26.5673336 108.713024,26.5673336 C102.142815,26.5673336 97.3992338,31.5380581 97.3992338,37.9993381 Z M136.583858,25.8387097 C142.868228,25.8387097 145.777385,29.522583 145.777385,33.5774199 C145.777385,37.5961908 142.868228,41.2787761 136.583858,41.2787761 L129.717924,41.2787761 L129.717924,50.022179 C129.253211,50.2076608 128.360049,50.2076608 127.893993,50.022179 L127.893993,25.8387097 L136.583858,25.8387097 Z M136.622808,39.791058 C141.742709,39.791058 143.915847,36.8143338 143.915847,33.5774199 C143.915847,30.303152 141.742709,27.3637817 136.622808,27.3637817 L129.756874,27.3637817 L129.756874,39.791058 L136.622808,39.791058 Z M160.294087,35.1660481 C166.481339,35.1660481 169.34686,38.9552793 169.34686,43.0108167 C169.34686,47.0676789 166.481339,50.8569101 160.294087,50.8569101 L151.738516,50.8569101 L151.738516,25.9817995 C152.19737,25.7910131 153.075407,25.7910131 153.53426,25.9817995 L153.53426,35.1660481 L160.294087,35.1660481 Z M160.332435,49.2868965 C165.373214,49.2868965 167.512768,46.263461 167.512768,43.0108167 C167.512768,39.7581724 165.373214,36.6963146 160.332435,36.6963146 L153.572608,36.6963146 L153.572608,49.2868965 L160.332435,49.2868965 L160.332435,49.2868965 Z M172.937027,25.9817995 C173.394558,25.7910131 174.273917,25.7910131 174.731449,25.9817995 L174.731449,50.8569101 C174.273917,51.0476966 173.394558,51.0476966 172.937027,50.8569101 L172.937027,25.9817995 Z M200.184187,25.9817995 C200.642668,25.7910131 201.523852,25.7910131 201.982332,25.9817995 L201.982332,50.8569101 C201.523852,51.0476966 200.642668,51.0476966 200.184187,50.8569101 L200.184187,38.8784348 L183.34364,38.8784348 L183.34364,50.8569101 C182.883834,51.0476966 182.003975,51.0476966 181.54417,50.8569101 L181.54417,25.9817995 C182.003975,25.7910131 182.883834,25.7910131 183.34364,25.9817995 L183.34364,37.309746 L200.184187,37.309746 L200.184187,25.9817995 Z M235.194346,37.9993381 C235.194346,45.1502978 229.788495,51 221.974508,51 C214.198212,51 208.795053,45.1502978 208.795053,37.9993381 C208.795053,30.8497022 214.198212,25 221.974508,25 C229.788495,25 235.194346,30.8497022 235.194346,37.9993381 Z M210.660718,37.9993381 C210.660718,44.4619419 215.404299,49.4326664 221.974508,49.4326664 C228.583754,49.4326664 233.327335,44.4619419 233.327335,37.9993381 C233.327335,31.5380581 228.583754,26.5673336 221.974508,26.5673336 C215.404299,26.5673336 210.660718,31.5380581 210.660718,37.9993381 Z M259.038869,50.8569101 C258.587525,51.0476966 257.198372,51.0476966 256.747027,50.8569101 L242.921834,38.4955369 L242.921834,50.8569101 C242.47179,51.0476966 241.606822,51.0476966 241.155477,50.8569101 L241.155477,25.9817995 C241.606822,25.7910131 242.47179,25.7910131 242.921834,25.9817995 L242.921834,37.6157993 L255.9588,25.9817995 C256.446564,25.7910131 257.837018,25.7910131 258.287062,25.9817995 L244.800052,38.0371195 L259.038869,50.8569101 Z M262.44523,35.4485533 C262.44523,34.7441587 263.009489,34.2258065 263.760969,34.2258065 C264.43704,34.2258065 265,34.7441587 265,35.4485533 C265,36.1529479 264.43704,36.6713002 263.760969,36.6713002 C263.009489,36.6713002 262.44523,36.1529479 262.44523,35.4485533 Z M262.44523,48.9372604 C262.44523,48.2341489 263.009489,47.7157966 263.760969,47.7157966 C264.43704,47.7157966 265,48.2341489 265,48.9372604 C265,49.642938 264.43704,50.1612903 263.760969,50.1612903 C263.009489,50.1612903 262.44523,49.642938 262.44523,48.9372604 L262.44523,48.9372604 Z" id="automarket" fill="#FFFFFF" sketch:type="MSShapeGroup"></path>
      </g>
    </g>
  </g>
</svg>