<?xml version="1.0" encoding="UTF-8" standalone="no"?>
<svg viewBox="0 0 30 30" version="1.1" xmlns="http://www.w3.org/2000/svg" xmlns:xlink="http://www.w3.org/1999/xlink">
  <title>connect</title>
  <path d="M19.097,12.15 L14.75,17.81 L11.953,15.15 C11.734,14.95 11.381,14.95 11.163,15.15 C10.945,15.35 10.945,15.68 11.163,15.88 L14.345,18.78 C14.362,18.81 14.372,18.83 14.393,18.86 C14.491,18.96 14.621,19 14.75,19 C14.879,19 15.008,18.96 15.107,18.86 C15.128,18.83 15.138,18.81 15.155,18.78 L19.845,12.86 C20.052,12.67 20.052,12.34 19.845,12.15 C19.639,11.95 19.304,11.95 19.097,12.15 L19.097,12.15 L19.097,12.15 Z M22,21 C22,21.55 21.552,22 21,22 L10,22 C9.448,22 9,21.55 9,21 L9,10 C9,9.45 9.448,9 10,9 L21,9 C21.552,9 22,9.45 22,10 L22,21 L22,21 Z M21,8 L10,8 C8.895,8 8,8.89 8,10 L8,21 C8,22.1 8.895,23 10,23 L21,23 C22.105,23 23,22.1 23,21 L23,10 C23,8.89 22.105,8 21,8 L21,8 L21,8 Z" id="connect" fill="#F5A623" fill-rule="evenodd"></path>
</svg>