<?xml version="1.0" encoding="UTF-8" standalone="no"?>
<svg viewBox="0 0 80 80" version="1.1" xmlns="http://www.w3.org/2000/svg" xmlns:xlink="http://www.w3.org/1999/xlink">
  <title>dashboard</title>
  <path d="M46,32.9964766 C45.448,32.9964766 45,33.4464766 45,33.9964766 L45,42.9964766 C45,43.5464766 45.448,43.9964766 46,43.9964766 C46.552,43.9964766 47,43.5464766 47,42.9964766 L47,33.9964766 C47,33.4464766 46.552,32.9964766 46,32.9964766 L46,32.9964766 L46,32.9964766 Z M51,44.9964766 C51,45.5464766 50.552,45.9964766 50,45.9964766 L30,45.9964766 C29.448,45.9964766 29,45.5464766 29,44.9964766 L29,28.9964766 C29,28.4464766 29.448,27.9964766 30,27.9964766 L50,27.9964766 C50.552,27.9964766 51,28.4464766 51,28.9964766 L51,44.9964766 L51,44.9964766 Z M54,25.9964766 L26,25.9964766 C25.448,25.9964766 25,26.4464766 25,26.9964766 C25,27.5464766 25.448,27.9964766 26,27.9964766 L27,27.9964766 L27,45.9964766 C27,47.0964766 27.895,47.9964766 29,47.9964766 L36.637,47.9964766 L34.149,52.5764766 C33.842,53.0364766 34.024,53.6164766 34.555,53.8764766 C35.086,54.1364766 35.766,53.9864766 36.073,53.5264766 L38.851,48.4164766 C38.94,48.2764766 38.977,48.1364766 38.987,47.9964766 L41.013,47.9964766 C41.023,48.1364766 41.06,48.2764766 41.149,48.4164766 L43.926,53.5264766 C44.233,53.9864766 44.913,54.1364766 45.444,53.8764766 C45.976,53.6164766 46.158,53.0364766 45.851,52.5764766 L43.362,47.9964766 L51,47.9964766 C52.104,47.9964766 53,47.0964766 53,45.9964766 L53,27.9964766 L54,27.9964766 C54.552,27.9964766 55,27.5464766 55,26.9964766 C55,26.4464766 54.552,25.9964766 54,25.9964766 L54,25.9964766 L54,25.9964766 Z M40,29.9964766 C39.448,29.9964766 39,30.4464766 39,30.9964766 L39,42.9964766 C39,43.5464766 39.448,43.9964766 40,43.9964766 C40.552,43.9964766 41,43.5464766 41,42.9964766 L41,30.9964766 C41,30.4464766 40.552,29.9964766 40,29.9964766 L40,29.9964766 L40,29.9964766 Z M34,37.9964766 C33.448,37.9964766 33,38.4464766 33,38.9964766 L33,42.9964766 C33,43.5464766 33.448,43.9964766 34,43.9964766 C34.552,43.9964766 35,43.5464766 35,42.9964766 L35,38.9964766 C35,38.4464766 34.552,37.9964766 34,37.9964766 L34,37.9964766 L34,37.9964766 Z" id="dashboard" fill="#9F9184" fill-rule="evenodd"></path>
</svg>