<?xml version="1.0" encoding="UTF-8" standalone="no"?>
<svg viewBox="0 0 80 80" version="1.1" xmlns="http://www.w3.org/2000/svg" xmlns:xlink="http://www.w3.org/1999/xlink">
  <title>details</title>
  <path d="M43,44 L51,44 L51,42 L43,42 L43,44 L43,44 Z M53,53 C53,53.55 52.552,54 52,54 L41,54 L41,39.95 C45.499,39.5 49,36.12 49,32 C49,31.66 48.968,31.33 48.922,31 L52,31 C52.552,31 53,31.45 53,32 L53,53 L53,53 Z M33,32 C33,28.68 36.134,26 40,26 C43.866,26 47,28.68 47,32 C47,35.31 43.866,38 40,38 C36.134,38 33,35.31 33,32 L33,32 L33,32 Z M39,54 L28,54 C27.448,54 27,53.55 27,53 L27,32 C27,31.45 27.448,31 28,31 L31.077,31 C31.031,31.33 31,31.66 31,32 C31,36.12 34.501,39.5 39,39.95 L39,54 L39,54 Z M48.339,29 C47.004,26.07 43.776,24 40,24 C36.224,24 32.996,26.07 31.66,29 L27,29 C25.895,29 25,29.89 25,31 L25,54 C25,55.1 25.895,56 27,56 L53,56 C54.104,56 55,55.1 55,54 L55,31 C55,29.89 54.104,29 53,29 L48.339,29 L48.339,29 Z" id="details" fill="#F5A623" fill-rule="evenodd"></path>
</svg>