<?xml version="1.0" encoding="UTF-8" standalone="no"?>
<svg viewBox="0 0 80 80" version="1.1" xmlns="http://www.w3.org/2000/svg" xmlns:xlink="http://www.w3.org/1999/xlink">
  <title>dollar</title>
  <path d="M41.3784117,46.6281657 L41.3784117,52.2641311 C43.0948127,52.302713 45.0910616,50.8746812 45.0910616,48.8674197 C45.0910616,47.0525667 43.8934159,45.9336913 39.0624105,43.9645106 C33.3529934,41.3785204 30.7182765,38.9077749 30.798085,34.5845966 C30.8778935,29.8365162 34.5910616,26.2854772 39.0624105,25.7057464 L39.0624105,24 L41.3784117,24 L41.3784117,25.6285826 C44.8112137,25.7448294 49.8422585,27.4429345 49.8422585,31.6508682 C49.8422585,33.6972126 48.1652436,34.7780072 46.2088989,34.7780072 C44.4520754,34.7780072 42.9351957,33.503802 42.9351957,31.8051958 C42.9351957,30.1065896 44.0934554,29.450196 44.0934554,28.9100493 C44.0934554,28.138411 41.857781,27.7901717 41.3784117,27.8678366 L41.3784117,33.503802 L39.0624105,32.5382521 L39.0624105,27.8678366 C37.7056661,28.1764919 36.5075021,29.4116141 36.7070233,30.9558927 C36.9868713,33.1560638 39.4619713,34.5069317 41.298085,35.279071 L44.5723064,36.7456847 C48.6845171,38.5600366 51,40.8373715 51,45.4311243 C51,50.8736791 46.5286511,54.2323096 41.3784117,54.502383 L41.3784117,56 L39.0624105,56 L39.0624105,54.502383 C35.4699916,54.4252192 30,52.4179577 30,48.0561974 C30,45.9326891 31.5966882,44.3503297 33.7929767,44.3503297 C35.7892256,44.3503297 37.2662011,45.9331902 37.2662011,47.8242049 C37.2662011,50.1020409 35.1507576,50.48786 35.1507576,50.912261 C35.1507576,51.6458184 38.4239425,52.5337034 39.0624105,52.26363 L39.0624105,45.7788625 L41.3784117,46.6281657 L41.3784117,46.6281657 Z" id="dollar" fill="#F5A623" fill-rule="evenodd"></path>
</svg>