<?xml version="1.0" encoding="UTF-8" standalone="no"?>
<svg viewBox="0 0 30 30" version="1.1" xmlns="http://www.w3.org/2000/svg" xmlns:xlink="http://www.w3.org/1999/xlink">
  <title>download</title>
  <path d="M15.142,18.85 C15.241,18.95 15.37,19 15.5,19 C15.629,19 15.759,18.95 15.858,18.85 L18.855,15.36 C19.052,15.16 19.052,14.84 18.855,14.64 C18.659,14.45 18.338,14.45 18.142,14.64 L16,17.14 L16,9.5 C16,9.22 15.776,9 15.5,9 C15.224,9 15,9.22 15,9.5 L15,17.14 L12.858,14.64 C12.661,14.45 12.341,14.45 12.145,14.64 C11.948,14.84 11.948,15.16 12.145,15.36 L15.142,18.85 L15.142,18.85 Z M22.5,17 C22.224,17 22,17.22 22,17.5 L22,21 L9,21 L9,17.5 C9,17.22 8.776,17 8.5,17 C8.224,17 8,17.22 8,17.5 L8,21.5 C8,21.78 8.224,22 8.5,22 L22.5,22 C22.776,22 23,21.78 23,21.5 L23,17.5 C23,17.22 22.776,17 22.5,17 L22.5,17 L22.5,17 Z" id="download" fill="#F5A623" fill-rule="evenodd"></path>
</svg>