<?xml version="1.0" encoding="UTF-8" standalone="no"?>
<svg viewBox="0 0 578 223" version="1.1" xmlns="http://www.w3.org/2000/svg" xmlns:xlink="http://www.w3.org/1999/xlink">
  <title>logo</title>
  <g id="Page-1" stroke="none" stroke-width="1" fill="none" fill-rule="evenodd" sketch:type="MSPage">
    <g id="callday_estate_page" sketch:type="MSArtboardGroup" transform="translate(-394.000000, -99.000000)">
      <g id="header" sketch:type="MSLayerGroup" transform="translate(-2.000000, 0.000000)">
        <g id="logo" transform="translate(396.250000, 99.271186)" sketch:type="MSShapeGroup">
          <path d="M0,0 L577.5,0 L577.5,222.012712 L0,222.012712 L0,0 Z" id="border" stroke="#02ACC1"></path>
          <path d="M105.172436,105.334773 C100.171574,109.628592 93.0274856,112.491139 84.7607544,112.491139 C65.6758319,112.491139 52.3061803,99.098511 52.3061803,78.7539846 C52.3061803,59.6362639 64.8593646,45.0168304 83.7401703,45.0168304 C91.8027847,45.0168304 98.3345229,46.6525712 103.64156,50.844157 L105.172436,48.6972472 C99.5592238,44.0967262 92.5171935,42.0520502 83.6381119,42.0520502 C62.8181964,42.0520502 49.1423696,58.2049907 49.1423696,78.7539846 C49.1423696,101.040953 63.6346637,115.455919 84.5566376,115.455919 C92.8233688,115.455919 101.498334,112.593373 106.499196,107.68615 L105.172436,105.334773 Z M117.975097,114.535815 L121.138907,114.535815 L132.569449,87.9550267 L168.289893,87.9550267 L179.822493,114.535815 L183.088362,114.535815 L151.654372,42.2565178 L149.409087,42.2565178 L117.975097,114.535815 Z M150.429671,46.754805 L167.065192,85.0924803 L133.79415,85.0924803 L150.429671,46.754805 Z M204.668046,114.535815 L247.430519,114.535815 L247.430519,111.673268 L207.729798,111.673268 L207.729798,42.9721544 L204.668046,42.9721544 L204.668046,114.535815 Z M268.295794,114.535815 L311.058267,114.535815 L311.058267,111.673268 L271.357546,111.673268 L271.357546,42.9721544 L268.295794,42.9721544 L268.295794,114.535815 Z M331.923542,114.535815 L332.637951,114.535815 C338.149105,114.535815 342.741733,114.740282 348.354946,114.740282 C375.604541,114.740282 389.280368,98.1784067 389.280368,77.6294128 C389.280368,59.1250949 377.747768,42.665453 349.171413,42.665453 C342.537617,42.665453 338.45528,42.9721544 333.046185,42.9721544 L331.923542,42.9721544 L331.923542,114.535815 Z M348.967296,45.5279994 C375.298366,45.5279994 386.116557,60.2496667 386.116557,77.6294128 C386.116557,96.5426659 373.563373,111.877736 348.457004,111.877736 C348.150829,111.877736 341.619091,111.673268 334.985294,111.673268 L334.985294,45.8347008 C339.78204,45.8347008 342.741733,45.5279994 348.967296,45.5279994 L348.967296,45.5279994 Z M402.389204,114.535815 L405.553014,114.535815 L416.983556,87.9550267 L452.704,87.9550267 L464.2366,114.535815 L467.502469,114.535815 L436.068479,42.2565178 L433.823194,42.2565178 L402.389204,114.535815 Z M434.843778,46.754805 L451.479299,85.0924803 L418.208257,85.0924803 L434.843778,46.754805 Z M525.925238,42.9721544 L522.455252,42.9721544 L498.675643,79.8785564 L475.100151,42.9721544 L471.528106,42.9721544 L497.144767,82.7411028 L497.144767,114.535815 L500.104461,114.535815 L500.104461,82.7411028 L525.925238,42.9721544 Z" id="CALLDAY" fill="#02ACC1"></path>
          <path d="M76.0404303,176.302069 L77.5202773,176.302069 L77.5202773,140.520239 L76.0404303,140.520239 L76.0404303,157.337699 L51.4953829,157.337699 L51.4953829,140.520239 L49.9645068,140.520239 L49.9645068,176.302069 L51.4953829,176.302069 L51.4953829,158.768973 L76.0404303,158.768973 L76.0404303,176.302069 Z M92.9027475,176.302069 L112.804137,176.302069 L112.804137,174.870796 L94.4336237,174.870796 L94.4336237,158.820089 L110.762969,158.820089 L110.762969,157.388816 L94.4336237,157.388816 L94.4336237,141.951512 L112.293845,141.951512 L112.293845,140.520239 L92.9027475,140.520239 L92.9027475,176.302069 Z M120.838402,183.305085 L122.26722,183.305085 L122.26722,176.302069 L154.160473,176.302069 L154.160473,183.305085 L155.58929,183.305085 L155.58929,174.870796 L150.741516,174.870796 L150.741516,140.520239 L131.452477,140.520239 L131.044243,147.676605 C130.074688,165.005234 126.196469,172.979471 124.665592,174.870796 L120.838402,174.870796 L120.838402,183.305085 Z M132.473061,148.596709 L132.932324,141.951512 L149.261669,141.951512 L149.261669,174.870796 L126.349556,174.870796 C127.727345,173.235055 131.452477,165.465287 132.473061,148.596709 L132.473061,148.596709 Z M166.991483,176.302069 C169.08368,176.302069 173.166017,176.404303 176.074681,176.404303 C183.21877,176.404303 188.627866,173.541757 188.627866,166.487625 C188.627866,161.375935 185.310967,158.360037 179.493638,157.797751 L179.493638,157.695518 C183.473916,157.030998 187.148019,154.219568 187.148019,149.210112 C187.148019,144.251773 184.545529,140.418005 176.023652,140.418005 C173.114987,140.418005 168.981622,140.520239 166.991483,140.520239 L166.991483,176.302069 Z M176.17674,158.615622 C183.21877,158.615622 187.096989,161.478168 187.096989,166.385391 C187.096989,172.212717 182.912595,174.97303 176.074681,174.97303 C173.625279,174.97303 170.155293,174.870796 168.522359,174.870796 L168.522359,158.615622 L176.17674,158.615622 Z M175.921594,141.849279 C182.708478,141.849279 185.617142,144.507357 185.617142,149.41458 C185.617142,154.270685 181.483777,157.235466 176.482915,157.235466 L168.522359,157.235466 L168.522359,141.951512 C170.104264,141.900395 173.472192,141.849279 175.921594,141.849279 L175.921594,141.849279 Z M203.397985,176.302069 L229.42288,142.97385 L229.42288,176.302069 L230.953756,176.302069 L230.953756,140.520239 L229.575967,140.520239 L203.551073,173.899575 L203.551073,140.520239 L202.020197,140.520239 L202.020197,176.302069 L203.397985,176.302069 Z M284.250925,140.520239 L282.209757,140.520239 L266.543791,157.644401 L282.771078,176.302069 L284.812246,176.302069 L268.431872,157.593284 L284.250925,140.520239 Z M262.716601,176.302069 L264.247477,176.302069 L264.247477,140.520239 L262.716601,140.520239 L262.716601,176.302069 Z M258.532206,157.644401 L242.20286,176.302069 L244.192999,176.302069 L260.420287,157.644401 L244.754321,140.520239 L242.764182,140.520239 L258.532206,157.644401 Z M297.38811,176.302069 L323.413005,142.97385 L323.413005,176.302069 L324.943881,176.302069 L324.943881,140.520239 L323.566092,140.520239 L297.541198,173.899575 L297.541198,140.520239 L296.010322,140.520239 L296.010322,176.302069 L297.38811,176.302069 Z M340.326351,176.302069 L341.857227,176.302069 L341.857227,142.97385 L356.859813,163.471727 L357.114959,163.471727 L371.760341,142.8205 L371.760341,176.302069 L373.240188,176.302069 L373.240188,140.520239 L371.760341,140.520239 L357.06393,161.222584 L341.908256,140.520239 L340.326351,140.520239 L340.326351,176.302069 Z M385.611935,158.411154 C385.611935,168.941236 393.317345,176.762122 403.26804,176.762122 C413.269764,176.762122 420.924145,168.839002 420.924145,158.411154 C420.924145,147.881073 413.269764,140.060187 403.26804,140.060187 C393.215287,140.060187 385.611935,148.034424 385.611935,158.411154 L385.611935,158.411154 Z M387.193841,158.411154 C387.193841,148.75006 394.184842,141.542577 403.26804,141.542577 C412.402268,141.542577 419.34224,148.75006 419.34224,158.411154 C419.34224,168.021132 412.504326,175.279731 403.26804,175.279731 C394.184842,175.279731 387.193841,168.021132 387.193841,158.411154 L387.193841,158.411154 Z M458.351232,171.701548 C455.850801,173.848458 452.278756,175.279731 448.145391,175.279731 C438.602929,175.279731 431.918104,168.583417 431.918104,158.411154 C431.918104,148.852294 438.194696,141.542577 447.635099,141.542577 C451.666406,141.542577 454.932275,142.360448 457.585793,144.456241 L458.351232,143.382786 C455.544625,141.082525 452.02361,140.060187 447.584069,140.060187 C437.174112,140.060187 430.336198,148.136657 430.336198,158.411154 C430.336198,169.554639 437.582345,176.762122 448.043332,176.762122 C452.176698,176.762122 456.51418,175.330848 459.014611,172.877237 L458.351232,171.701548 Z M465.007708,141.951512 L478.836622,141.951512 L478.836622,176.302069 L480.316469,176.302069 L480.316469,141.951512 L494.145384,141.951512 L494.145384,140.520239 L465.007708,140.520239 L465.007708,141.951512 Z M512.028285,156.519829 C519.835753,156.519829 523.86706,159.791311 523.86706,165.311936 C523.86706,171.701548 519.580607,174.97303 511.824168,174.97303 C509.476825,174.97303 507.333598,174.870796 505.649634,174.870796 L505.649634,156.82653 C508.048007,156.570946 510.44638,156.519829 512.028285,156.519829 L512.028285,156.519829 Z M505.649634,140.520239 L504.118758,140.520239 L504.118758,176.302069 C506.210956,176.302069 508.966533,176.404303 511.620051,176.404303 C520.090899,176.404303 525.397937,172.723886 525.397937,165.363053 C525.397937,159.024557 521.162513,155.088556 512.028285,155.088556 C510.497409,155.088556 508.048007,155.139673 505.649634,155.34414 L505.649634,140.520239 Z" id="Type-something" fill="#FFFFFF"></path>
        </g>
      </g>
    </g>
  </g>
</svg>