<?xml version="1.0" encoding="UTF-8" standalone="no"?>
<svg viewBox="0 0 650 153" version="1.1" xmlns="http://www.w3.org/2000/svg" xmlns:xlink="http://www.w3.org/1999/xlink">
  <title>logo</title>
  <g id="Page-1" stroke="none" stroke-width="1" fill="none" fill-rule="evenodd" sketch:type="MSPage">
    <g id="roi.rs_autoconference_page" sketch:type="MSArtboardGroup" transform="translate(-358.000000, -124.000000)">
      <g id="header" sketch:type="MSLayerGroup" transform="translate(-2.000000, 0.000000)">
        <g id="logo" transform="translate(360.500000, 124.500000)" sketch:type="MSShapeGroup">
          <path d="M0,0 L649,0 L649,152 L0,152 L0,0 Z" id="border" stroke="#57F1FF"></path>
          <path d="M38.4107195,82.5418702 L38.4107195,118.600145 L52.2792866,118.600145 C60.1011584,118.600145 64.4836256,114.439574 64.4836256,108.725725 C64.4836256,104.50968 62.2091806,101.12575 57.3829193,99.8498419 C60.9887467,98.5739337 63.0967689,95.5783232 63.0967689,91.6396502 C63.0967689,86.1476976 58.4924046,82.5418702 52.168338,82.5418702 L38.4107195,82.5418702 Z M41.0734844,84.8163152 L52.0019152,84.8163152 C56.8836508,84.8163152 60.5449525,87.47908 60.5449525,91.9170215 C60.5449525,96.1885402 57.5493421,99.0177278 52.7230807,99.0177278 L41.0734844,99.0177278 L41.0734844,84.8163152 Z M41.0734844,101.014801 L52.7230807,101.014801 C59.1580958,101.014801 61.8208607,104.287783 61.8208607,108.559302 C61.8208607,113.052718 58.4924046,116.3257 52.168338,116.3257 L41.0734844,116.3257 L41.0734844,101.014801 Z M120.216774,98.9622536 L95.8080957,98.9622536 L95.8080957,82.5418702 C95.1424045,82.2644988 93.8664964,82.2644988 93.2008051,82.5418702 L93.2008051,118.600145 C93.8664964,118.877516 95.1424045,118.877516 95.8080957,118.600145 L95.8080957,101.236699 L120.216774,101.236699 L120.216774,118.600145 C120.882465,118.877516 122.158373,118.877516 122.824064,118.600145 L122.824064,82.5418702 C122.158373,82.2644988 120.882465,82.2644988 120.216774,82.5418702 L120.216774,98.9622536 Z M140.538847,116.3257 L140.538847,101.236699 L160.287687,101.236699 C160.565058,100.515533 160.565058,99.6279448 160.287687,98.9622536 L140.538847,98.9622536 L140.538847,84.8163152 L161.896441,84.8163152 C162.173812,84.0951497 162.173812,83.2075614 161.896441,82.5418702 L137.931557,82.5418702 L137.931557,118.600145 L161.896441,118.600145 C162.173812,117.934453 162.173812,117.046865 161.896441,116.3257 L140.538847,116.3257 Z M208.957112,116.3257 L204.463696,116.3257 L204.463696,82.5418702 L182.329463,82.5418702 L179.999544,105.619166 C179.500275,110.445427 177.836047,114.439574 175.006859,116.3257 L171.456506,116.3257 L171.456506,125.090634 C172.122197,125.368005 173.398106,125.368005 174.063797,125.090634 L174.063797,118.600145 L206.294347,118.600145 L206.294347,125.090634 C207.015512,125.368005 208.29142,125.368005 208.957112,125.090634 L208.957112,116.3257 Z M201.911879,84.8163152 L201.911879,116.3257 L178.279841,116.3257 C180.720709,114.273152 182.218514,109.946159 182.662308,105.619166 L184.770331,84.8163152 L201.911879,84.8163152 Z M220.958045,82.5418702 L220.958045,118.600145 L234.826612,118.600145 C242.648484,118.600145 247.030951,114.439574 247.030951,108.725725 C247.030951,104.50968 244.756506,101.12575 239.930245,99.8498419 C243.536072,98.5739337 245.644094,95.5783232 245.644094,91.6396502 C245.644094,86.1476976 241.03973,82.5418702 234.715663,82.5418702 L220.958045,82.5418702 Z M223.62081,84.8163152 L234.549241,84.8163152 C239.430976,84.8163152 243.092278,87.47908 243.092278,91.9170215 C243.092278,96.1885402 240.096667,99.0177278 235.270406,99.0177278 L223.62081,99.0177278 L223.62081,84.8163152 Z M223.62081,101.014801 L235.270406,101.014801 C241.705421,101.014801 244.368186,104.287783 244.368186,108.559302 C244.368186,113.052718 241.03973,116.3257 234.715663,116.3257 L223.62081,116.3257 L223.62081,101.014801 Z M288.877041,82.5418702 C288.211349,82.2644988 287.323761,82.2644988 286.65807,82.5418702 L261.861072,114.273152 L261.861072,82.5418702 C261.195381,82.2644988 259.919473,82.2644988 259.253781,82.5418702 L259.253781,118.600145 C259.919473,118.877516 260.807061,118.877516 261.528226,118.600145 L286.26975,86.8688631 L286.26975,118.600145 C286.935441,118.877516 288.211349,118.877516 288.877041,118.600145 L288.877041,82.5418702 Z M325.896869,100.016265 L342.483675,82.5418702 C341.817984,82.2644988 339.987333,82.2644988 339.321642,82.5418702 L323.400527,99.2396249 L323.400527,82.4309216 C322.734836,82.2090246 321.458928,82.2090246 320.737762,82.4309216 L320.737762,99.1841506 L304.872121,82.4309216 C304.150956,82.2090246 302.320305,82.2090246 301.654614,82.4309216 L318.24142,99.9607904 L300.545128,118.489196 C301.21082,118.766567 303.041471,118.766567 303.762636,118.489196 L320.737762,100.73743 L320.737762,118.600145 C321.458928,118.877516 322.734836,118.877516 323.400527,118.600145 L323.400527,100.792904 L340.431127,118.600145 C341.096819,118.877516 342.927469,118.877516 343.593161,118.600145 L325.896869,100.016265 Z M384.995456,82.5418702 C384.329765,82.2644988 383.442177,82.2644988 382.776485,82.5418702 L357.979488,114.273152 L357.979488,82.5418702 C357.313796,82.2644988 356.037888,82.2644988 355.372197,82.5418702 L355.372197,118.600145 C356.037888,118.877516 356.925476,118.877516 357.646642,118.600145 L382.388166,86.8688631 L382.388166,118.600145 C383.053857,118.877516 384.329765,118.877516 384.995456,118.600145 L384.995456,82.5418702 Z M432.61087,82.5418702 C431.945179,82.2644988 430.946642,82.2644988 430.28095,82.5418702 L418.797777,114.605997 L407.314603,82.5418702 C406.648912,82.2644988 405.650375,82.2644988 404.984684,82.5418702 L396.663544,118.600145 C397.329235,118.877516 398.549669,118.877516 399.270835,118.600145 L406.427015,87.1462344 L417.632817,118.600145 C418.353983,118.877516 419.241571,118.877516 419.962737,118.600145 L431.168539,87.1462344 L438.324719,118.600145 C439.045885,118.877516 440.266319,118.877516 440.93201,118.600145 L432.61087,82.5418702 Z M470.240915,81.7097561 C459.146061,81.7097561 451.435138,90.1973192 451.435138,100.571007 C451.435138,110.944696 459.146061,119.432259 470.240915,119.432259 C481.391243,119.432259 489.102166,110.944696 489.102166,100.571007 C489.102166,90.1973192 481.391243,81.7097561 470.240915,81.7097561 L470.240915,81.7097561 Z M470.240915,83.9842011 C479.671541,83.9842011 486.439401,91.195856 486.439401,100.571007 C486.439401,109.946159 479.671541,117.157814 470.240915,117.157814 C460.865764,117.157814 454.097903,109.946159 454.097903,100.571007 C454.097903,91.195856 460.865764,83.9842011 470.240915,83.9842011 L470.240915,83.9842011 Z M520.519094,117.157814 C510.922045,117.157814 504.043236,109.890684 504.043236,100.571007 C504.043236,91.2513303 510.922045,83.9842011 520.519094,83.9842011 C525.067984,83.9842011 529.394976,85.3710578 532.667958,87.8673999 C533.000804,87.5345543 532.94533,85.6484292 532.667958,85.2601093 C529.616874,83.0411386 525.234406,81.7097561 520.463619,81.7097561 C509.091394,81.7097561 501.380471,90.1973192 501.380471,100.571007 C501.380471,110.944696 509.091394,119.432259 520.463619,119.432259 C525.234406,119.432259 529.616874,118.100876 532.667958,115.881905 C532.94533,115.493586 533.000804,113.60746 532.667958,113.274615 C529.394976,115.770957 525.067984,117.157814 520.519094,117.157814 L520.519094,117.157814 Z M544.835314,82.5418702 C544.557943,83.2075614 544.557943,84.0951497 544.835314,84.8163152 L557.372499,84.8163152 L557.372499,118.600145 C558.093665,118.877516 559.369573,118.877516 560.035264,118.600145 L560.035264,84.8163152 L572.627923,84.8163152 C572.84982,84.0951497 572.84982,83.2075614 572.627923,82.5418702 L544.835314,82.5418702 Z M614.196641,82.5418702 C613.53095,82.2644988 612.643362,82.2644988 611.97767,82.5418702 L587.180673,114.273152 L587.180673,82.5418702 C586.514981,82.2644988 585.239073,82.2644988 584.573382,82.5418702 L584.573382,118.600145 C585.239073,118.877516 586.126661,118.877516 586.847827,118.600145 L611.589351,86.8688631 L611.589351,118.600145 C612.255042,118.877516 613.53095,118.877516 614.196641,118.600145 L614.196641,82.5418702 Z" id="В-НЕДВИЖИМОСТИ" fill="#FFFFFF"></path>
          <path d="M49.1003514,32.4724851 C48.4129153,32.2662542 47.5879919,32.2662542 46.9005558,32.4724851 L37.5170525,54.8141594 C38.2044887,55.0203903 39.4762455,55.0203903 40.1636817,54.8141594 L42.775939,48.5928624 L53.2249682,48.5928624 L55.8028537,54.8141594 C56.5246616,55.0203903 57.7620467,55.0203903 58.4838546,54.8141594 L49.1003514,32.4724851 Z M43.5664905,46.3930668 L47.9660818,35.7721785 L52.4000448,46.3930668 L43.5664905,46.3930668 Z M64.6555035,32.4724851 L64.6555035,54.8141594 L73.5234297,54.8141594 C78.3011108,54.8141594 81.0852271,52.3050175 81.0852271,48.661606 C81.0852271,46.0837205 79.6759831,44.0214121 76.9262385,43.1964888 C79.0229187,42.4059372 80.3634192,40.5842314 80.3634192,38.1438332 C80.3634192,34.7753961 77.4761874,32.4724851 73.4546861,32.4724851 L64.6555035,32.4724851 Z M67.233389,34.6379089 L73.2140834,34.6379089 C75.8607125,34.6379089 77.7855337,36.1158966 77.7855337,38.5562948 C77.7855337,40.9279495 76.1700588,42.440309 73.5578015,42.440309 L67.233389,42.440309 L67.233389,34.6379089 Z M67.233389,44.2963866 L73.5578015,44.2963866 C76.9949821,44.2963866 78.4729698,46.0149769 78.4729698,48.3866316 C78.4729698,50.9301453 76.7200077,52.6487356 73.3859424,52.6487356 L67.233389,52.6487356 L67.233389,44.2963866 Z M85.9507474,32.4724851 C85.7445166,33.1599212 85.7445166,33.9504727 85.9507474,34.6379089 L93.306314,34.6379089 L93.306314,54.8141594 C93.9937502,55.0203903 95.1623916,55.0203903 95.8841995,54.8141594 L95.8841995,34.6379089 L103.239766,34.6379089 C103.445997,33.9504727 103.445997,33.1599212 103.239766,32.4724851 L85.9507474,32.4724851 Z M119.860444,31.956908 C112.917339,31.956908 108.139658,37.2157944 108.139658,43.6433222 C108.139658,50.0708501 112.917339,55.3297365 119.860444,55.3297365 C126.769177,55.3297365 131.546859,50.0708501 131.546859,43.6433222 C131.546859,37.2157944 126.769177,31.956908 119.860444,31.956908 L119.860444,31.956908 Z M119.860444,34.1223318 C125.084959,34.1223318 128.934601,38.178205 128.934601,43.6433222 C128.934601,49.1084395 125.084959,53.1643127 119.860444,53.1643127 C114.63593,53.1643127 110.751916,49.1084395 110.751916,43.6433222 C110.751916,38.178205 114.63593,34.1223318 119.860444,34.1223318 L119.860444,34.1223318 Z M159.578977,32.4724851 C158.89154,32.2662542 158.066617,32.2662542 157.379181,32.4724851 L150.779794,50.8270298 L144.214779,32.4724851 C143.492971,32.2662542 142.668048,32.2662542 141.980612,32.4724851 L136.790469,54.8141594 C137.477905,55.0203903 138.612174,55.0203903 139.299611,54.8141594 L143.321112,37.0095635 L149.714268,54.8141594 C150.401704,55.0203903 151.157884,55.0203903 151.84532,54.8141594 L158.238476,37.0095635 L162.259977,54.8141594 C162.947414,55.0203903 164.081683,55.0203903 164.769119,54.8141594 L159.578977,32.4724851 Z M180.805477,32.4724851 C180.118041,32.2662542 179.293117,32.2662542 178.605681,32.4724851 L169.222178,54.8141594 C169.909614,55.0203903 171.181371,55.0203903 171.868807,54.8141594 L174.481064,48.5928624 L184.930094,48.5928624 L187.507979,54.8141594 C188.229787,55.0203903 189.467172,55.0203903 190.18898,54.8141594 L180.805477,32.4724851 Z M175.271616,46.3930668 L179.671207,35.7721785 L184.10517,46.3930668 L175.271616,46.3930668 Z M192.339128,32.4724851 C192.132897,33.1599212 192.132897,33.9504727 192.339128,34.6379089 L199.694694,34.6379089 L199.694694,54.8141594 C200.38213,55.0203903 201.550772,55.0203903 202.27258,54.8141594 L202.27258,34.6379089 L209.628146,34.6379089 C209.834377,33.9504727 209.834377,33.1599212 209.628146,32.4724851 L192.339128,32.4724851 Z M234.669917,32.4724851 C233.982481,32.2662542 233.295045,32.2662542 232.573237,32.4724851 L218.446424,50.5176836 L218.446424,32.4724851 C217.724616,32.2662542 216.555975,32.2662542 215.868539,32.4724851 L215.868539,54.8141594 C216.555975,55.0203903 217.277783,55.0203903 217.965219,54.8141594 L232.092032,36.7689609 L232.092032,54.8141594 C232.81384,55.0203903 233.982481,55.0203903 234.669917,54.8141594 L234.669917,32.4724851 Z M253.696622,43.2308606 C255.862046,42.3371936 257.236918,40.3436288 257.236918,37.9032305 C257.236918,34.7066525 254.624661,31.956908 249.950095,31.956908 C247.234722,31.956908 244.622465,32.8162031 242.869503,34.0192164 C242.663272,34.3973062 242.6289,36.1846402 242.869503,36.4939864 C244.966183,34.9472551 247.544068,34.1223318 249.812608,34.1223318 C252.974814,34.1223318 254.659032,36.047153 254.659032,38.2813204 C254.659032,40.6186032 252.974814,42.3371936 250.4313,42.3371936 L246.581658,42.3371936 C246.409799,43.0590015 246.409799,43.7120659 246.581658,44.399502 L250.465672,44.399502 C253.868481,44.399502 255.346468,46.358695 255.346468,48.6272342 C255.346468,51.4800942 252.940442,53.1643127 249.812608,53.1643127 C247.20035,53.1643127 244.622465,52.3393893 242.525785,50.8270298 C242.285182,51.1020043 242.319554,52.8893382 242.525785,53.2674281 C244.278747,54.5048132 246.925376,55.3297365 249.950095,55.3297365 C254.659032,55.3297365 257.958726,52.8205946 257.958726,48.9022087 C257.958726,46.358695 256.549482,44.0901557 253.696622,43.2308606 L253.696622,43.2308606 Z M274.235686,32.4724851 C273.54825,32.2662542 272.723326,32.2662542 272.03589,32.4724851 L262.652387,54.8141594 C263.339823,55.0203903 264.61158,55.0203903 265.299016,54.8141594 L267.911273,48.5928624 L278.360303,48.5928624 L280.938188,54.8141594 C281.659996,55.0203903 282.897381,55.0203903 283.619189,54.8141594 L274.235686,32.4724851 Z M268.701825,46.3930668 L273.101416,35.7721785 L277.535379,46.3930668 L268.701825,46.3930668 Z M310.895127,52.6487356 L308.111011,52.6487356 L308.111011,32.4724851 C307.423575,32.2662542 306.254933,32.2662542 305.567497,32.4724851 L305.567497,52.6487356 L292.368723,52.6487356 L292.368723,32.4724851 C291.646916,32.2662542 290.478274,32.2662542 289.790838,32.4724851 L289.790838,54.8141594 L308.317242,54.8141594 L308.317242,58.6981736 C309.03905,58.9044044 310.207691,58.9044044 310.895127,58.6981736 L310.895127,52.6487356 Z M335.765039,32.4724851 C335.077603,32.2662542 334.390167,32.2662542 333.668359,32.4724851 L319.541546,50.5176836 L319.541546,32.4724851 C318.819738,32.2662542 317.651097,32.2662542 316.963661,32.4724851 L316.963661,54.8141594 C317.651097,55.0203903 318.372905,55.0203903 319.060341,54.8141594 L333.187154,36.7689609 L333.187154,54.8141594 C333.908961,55.0203903 335.077603,55.0203903 335.765039,54.8141594 L335.765039,32.4724851 Z M359.122591,32.4724851 L350.838986,32.4724851 C345.442612,32.4724851 342.692868,35.6690631 342.692868,39.5530772 C342.692868,42.6809117 344.514573,45.465028 348.364216,46.2555795 L342.039803,54.8141594 C342.727239,55.0203903 344.205227,55.0203903 344.892663,54.8141594 L350.976473,46.5992976 L356.544706,46.6336694 L356.544706,54.8141594 C357.266514,55.0203903 358.435155,55.0203903 359.122591,54.8141594 L359.122591,32.4724851 Z M356.544706,34.6379089 L356.544706,44.4682456 L350.873358,44.4682456 C347.092459,44.4682456 345.305125,42.26845 345.305125,39.5530772 C345.305125,36.8377045 347.092459,34.6379089 350.873358,34.6379089 L356.544706,34.6379089 Z M397.588462,32.4724851 C396.901026,32.2662542 396.076103,32.2662542 395.388667,32.4724851 L388.78928,50.8270298 L382.224265,32.4724851 C381.502457,32.2662542 380.677533,32.2662542 379.990097,32.4724851 L374.799954,54.8141594 C375.48739,55.0203903 376.62166,55.0203903 377.309096,54.8141594 L381.330598,37.0095635 L387.723754,54.8141594 C388.41119,55.0203903 389.16737,55.0203903 389.854806,54.8141594 L396.247962,37.0095635 L400.269463,54.8141594 C400.956899,55.0203903 402.091169,55.0203903 402.778605,54.8141594 L397.588462,32.4724851 Z M418.814962,32.4724851 C418.127526,32.2662542 417.302603,32.2662542 416.615167,32.4724851 L407.231664,54.8141594 C407.9191,55.0203903 409.190857,55.0203903 409.878293,54.8141594 L412.49055,48.5928624 L422.939579,48.5928624 L425.517465,54.8141594 C426.239273,55.0203903 427.476658,55.0203903 428.198466,54.8141594 L418.814962,32.4724851 Z M413.281102,46.3930668 L417.680693,35.7721785 L422.114656,46.3930668 L413.281102,46.3930668 Z M434.370115,32.4724851 L434.370115,54.8141594 C435.057551,55.0203903 436.226192,55.0203903 436.948,54.8141594 L436.948,46.9086439 L442.344374,46.9086439 C447.740747,46.9086439 450.524864,43.6089504 450.524864,39.6905645 C450.524864,35.7721785 447.740747,32.4724851 442.344374,32.4724851 L434.370115,32.4724851 Z M436.948,44.7432201 L436.948,34.6379089 L442.344374,34.6379089 C446.125272,34.6379089 447.912606,36.9408199 447.912606,39.6905645 C447.912606,42.440309 446.125272,44.7432201 442.344374,44.7432201 L436.948,44.7432201 Z M462.952181,43.2996042 L474.260506,32.4724851 C473.538698,32.2662542 471.751364,32.2662542 471.063928,32.4724851 L460.236809,42.8183989 L460.236809,32.4724851 C459.515001,32.2662542 458.346359,32.2662542 457.658923,32.4724851 L457.658923,54.8141594 C458.346359,55.0203903 459.515001,55.0203903 460.236809,54.8141594 L460.236809,43.7808095 L471.648249,54.8141594 C472.370056,55.0203903 474.15739,55.0203903 474.844827,54.8141594 L462.952181,43.2996042 Z M483.628733,52.6487356 L483.628733,44.4682456 L495.040173,44.4682456 C495.212032,43.7808095 495.212032,42.9902579 495.040173,42.3028218 L483.628733,42.3028218 L483.628733,34.6379089 L496.071327,34.6379089 C496.277558,33.9504727 496.277558,33.1599212 496.071327,32.4724851 L481.050847,32.4724851 L481.050847,54.8141594 L496.071327,54.8141594 C496.277558,54.1267233 496.277558,53.3361717 496.071327,52.6487356 L483.628733,52.6487356 Z M501.074334,32.4724851 C500.868103,33.1599212 500.868103,33.9504727 501.074334,34.6379089 L508.429901,34.6379089 L508.429901,54.8141594 C509.117337,55.0203903 510.285978,55.0203903 511.007786,54.8141594 L511.007786,34.6379089 L518.363353,34.6379089 C518.569584,33.9504727 518.569584,33.1599212 518.363353,32.4724851 L501.074334,32.4724851 Z M543.405124,32.4724851 C542.717688,32.2662542 542.030252,32.2662542 541.308444,32.4724851 L527.181631,50.5176836 L527.181631,32.4724851 C526.459823,32.2662542 525.291182,32.2662542 524.603746,32.4724851 L524.603746,54.8141594 C525.291182,55.0203903 526.01299,55.0203903 526.700426,54.8141594 L540.827238,36.7689609 L540.827238,54.8141594 C541.549046,55.0203903 542.717688,55.0203903 543.405124,54.8141594 L543.405124,32.4724851 Z M567.484484,42.3028218 L553.804505,42.3028218 L553.804505,32.4724851 C553.082697,32.2662542 551.914056,32.2662542 551.226619,32.4724851 L551.226619,54.8141594 C551.914056,55.0203903 553.082697,55.0203903 553.804505,54.8141594 L553.804505,44.4682456 L567.484484,44.4682456 L567.484484,54.8141594 C568.17192,55.0203903 569.340562,55.0203903 570.06237,54.8141594 L570.06237,32.4724851 C569.340562,32.2662542 568.17192,32.2662542 567.484484,32.4724851 L567.484484,42.3028218 Z M578.021352,32.4724851 L578.021352,54.8141594 C578.708789,55.0203903 579.87743,55.0203903 580.599238,54.8141594 L580.599238,34.6379089 L592.491883,34.6379089 C592.663742,33.9504727 592.663742,33.1599212 592.491883,32.4724851 L578.021352,32.4724851 Z M605.984727,32.4724851 C605.297291,32.2662542 604.472367,32.2662542 603.784931,32.4724851 L594.401428,54.8141594 C595.088864,55.0203903 596.360621,55.0203903 597.048057,54.8141594 L599.660314,48.5928624 L610.109344,48.5928624 L612.687229,54.8141594 C613.409037,55.0203903 614.646422,55.0203903 615.36823,54.8141594 L605.984727,32.4724851 Z M600.450866,46.3930668 L604.850457,35.7721785 L609.28442,46.3930668 L600.450866,46.3930668 Z" id="АВТОМАТИЗАЦИЯ-МАРКЕТ" fill="#57F1FF"></path>
        </g>
      </g>
    </g>
  </g>
</svg>