<?xml version="1.0" encoding="UTF-8" standalone="no"?>
<svg viewBox="0 0 20 20" version="1.1" xmlns="http://www.w3.org/2000/svg" xmlns:xlink="http://www.w3.org/1999/xlink">
  <title>fb</title>
  <path d="M2,15.0784698 C2,16.6968506 3.30311996,17.999968 4.92150384,17.999968 L10.4265116,17.999968 L10.4265116,11.7449725 L8.77251205,11.7449725 L8.77251205,9.492977 L10.4265116,9.492977 L10.4265116,7.56898086 C10.4265116,6.05738389 11.403776,4.66948266 13.6550082,4.66948266 C14.5664961,4.66948266 15.2405122,4.75698649 15.2405122,4.75698649 L15.187504,6.85999028 C15.187504,6.85999028 14.5000957,6.85349429 13.7499999,6.85349429 C12.938176,6.85349429 12.8079997,7.22754154 12.8079997,7.8485003 L12.8079997,9.492993 L15.2519993,9.492993 L15.1455037,11.7449885 L12.8079997,11.7449885 L12.8079997,17.999984 L15.0784962,17.999984 C16.69688,17.999984 18,16.6968666 18,15.0784858 L18,4.92149816 C18,3.30311739 16.69688,2 15.0784962,2 L4.9214881,2 C3.30311996,1.999984 2,3.30310139 2,4.92148216 L2,15.0784698 Z" id="fb" fill="#000000" fill-rule="evenodd"></path>
</svg>