<?xml version="1.0" encoding="UTF-8" standalone="no"?>
<svg viewBox="0 0 80 80" version="1.1" xmlns="http://www.w3.org/2000/svg" xmlns:xlink="http://www.w3.org/1999/xlink">
  <title>globe</title>
  <path d="M46.475,39 C46.43,37.08 46.255,35.27 45.982,33.6 C48.367,33.23 50.412,32.64 51.898,31.9 C53.346,33.93 54.269,36.359 54.456,39 L46.475,39 L46.475,39 Z M51.939,48.04 C50.426,47.31 48.37,46.74 45.983,46.39 C46.256,44.72 46.43,42.91 46.475,41 L54.456,41 C54.271,43.61 53.363,46.02 51.939,48.04 L51.939,48.04 L51.939,48.04 Z M43.625,53.64 C44.442,52.299 45.126,50.459 45.622,48.279 C47.124,48.45 48.462,48.7 49.557,49 L51.203,49 C49.279,51.279 46.64,52.95 43.625,53.64 L43.625,53.64 L43.625,53.64 Z M40.5,54 C39.156,54 37.97,51.67 37.246,48.11 C38.283,48.04 39.369,48 40.5,48 C41.629,48 42.716,48.04 43.753,48.11 C43.03,51.67 41.844,54 40.5,54 L40.5,54 L40.5,54 Z M29.796,49 L31.443,49 C32.538,48.7 33.875,48.45 35.378,48.279 C35.873,50.459 36.557,52.299 37.374,53.64 C34.359,52.95 31.72,51.279 29.796,49 L29.796,49 L29.796,49 Z M34.524,41 C34.569,42.91 34.743,44.72 35.016,46.39 C32.629,46.74 30.573,47.31 29.06,48.04 C27.637,46.02 26.728,43.61 26.543,41 L34.524,41 L34.524,41 Z M29.101,31.9 C30.588,32.64 32.633,33.23 35.018,33.6 C34.744,35.27 34.569,37.08 34.524,39 L26.543,39 C26.73,36.359 27.653,33.93 29.101,31.9 L29.101,31.9 L29.101,31.9 Z M37.374,26.36 C36.558,27.689 35.875,29.529 35.38,31.709 C33.929,31.54 32.635,31.29 31.574,31 L29.795,31 C31.72,28.709 34.359,27.05 37.374,26.36 L37.374,26.36 L37.374,26.36 Z M40.5,26 C41.844,26 43.029,28.32 43.752,31.88 C42.717,31.96 41.63,32 40.5,32 C39.369,32 38.283,31.96 37.247,31.88 C37.971,28.32 39.156,26 40.5,26 L40.5,26 L40.5,26 Z M36.514,39 C36.551,37.15 36.692,35.41 36.913,33.83 C38.059,33.94 39.258,34 40.5,34 C41.741,34 42.94,33.94 44.086,33.83 C44.308,35.41 44.448,37.15 44.485,39 L36.514,39 L36.514,39 Z M36.514,41 L44.485,41 C44.448,42.84 44.308,44.58 44.086,46.16 C42.94,46.06 41.74,46 40.5,46 C39.259,46 38.059,46.06 36.913,46.16 C36.691,44.58 36.551,42.84 36.514,41 L36.514,41 L36.514,41 Z M51.204,31 L49.426,31 C48.365,31.29 47.07,31.54 45.62,31.709 C45.125,29.529 44.442,27.689 43.626,26.36 C46.641,27.05 49.28,28.709 51.204,31 L51.204,31 L51.204,31 Z M56.449,39 C55.93,30.629 48.999,24 40.5,24 C32.001,24 25.069,30.629 24.55,39 L24.5,39 L24.5,41 L24.55,41 C25.069,49.37 32.001,56 40.5,56 C48.999,56 55.93,49.37 56.449,41 L56.5,41 L56.5,39 L56.449,39 L56.449,39 Z" id="globe" fill="#9F9184" fill-rule="evenodd"></path>
</svg>