<?xml version="1.0" encoding="UTF-8" standalone="no"?>
<svg viewBox="0 0 54 24" version="1.1" xmlns="http://www.w3.org/2000/svg" xmlns:xlink="http://www.w3.org/1999/xlink">
  <title>google</title>
  <path d="M38.588035,12.7077365 C38.991809,12.3028535 39.026888,11.7414422 39.026888,11.4249018 C39.026888,10.1599845 38.271833,8.19230769 36.814466,8.19230769 C36.357452,8.19230769 35.866107,8.4207543 35.584237,8.7723829 C35.285947,9.14168003 35.198375,9.61524636 35.198375,10.0726373 C35.198375,11.249212 35.883522,13.1994691 37.394378,13.1994691 C37.832981,13.1994691 38.306414,12.9891887 38.588035,12.7077365 L38.588035,12.7077365 L38.588035,12.7077365 Z M38.078529,16.0458442 C37.938465,16.0279268 37.850644,16.0279268 37.675502,16.0279268 C37.517276,16.0279268 36.568171,16.0632638 35.830531,16.309379 C35.444421,16.4499806 34.320422,16.8710391 34.320422,18.1187856 C34.320422,19.3662832 35.532739,20.26265 37.411792,20.26265 C39.097293,20.26265 39.993905,19.4531328 39.993905,18.3653984 C39.993905,17.4677874 39.414242,16.9947188 38.078529,16.0458442 L38.078529,16.0458442 L38.078529,16.0458442 Z M39.326173,8.24506443 C39.729947,8.5790245 40.572573,9.28128629 40.572573,10.6168777 C40.572573,11.9166344 39.834933,12.5325444 39.097293,13.1116242 C38.868911,13.3395731 38.605699,13.5861859 38.605699,13.9731516 C38.605699,14.358873 38.868911,14.5696511 39.061966,14.728419 L39.695117,15.219405 C40.467587,15.8696566 41.16965,16.4674003 41.16965,17.6800586 C41.16965,19.331195 39.571224,21 36.550756,21 C34.003722,21 32.774737,19.7880883 32.774737,18.4873362 C32.774737,17.8545042 33.090193,16.9598794 34.127616,16.3439695 C35.215541,15.676547 36.691567,15.5891998 37.4817,15.5354477 C37.235406,15.219405 36.95453,14.8859426 36.95453,14.3414533 C36.95453,14.0430791 37.042848,13.8668916 37.130419,13.6561135 C36.936618,13.673782 36.74406,13.6912017 36.568171,13.6912017 C34.706781,13.6912017 33.65269,12.3028535 33.65269,10.9334181 C33.65269,10.125394 34.022132,9.22852956 34.776689,8.5790245 C35.778038,7.75333186 36.971945,7.61273019 37.92105,7.61273019 L41.538595,7.61273019 L40.414596,8.24506443 L39.326173,8.24506443 L39.326173,8.24506443 Z M30.460314,14.3439418 C30.882249,13.7822817 30.987733,13.0812642 30.987733,12.3964221 C30.987733,10.8530388 30.251088,7.90662501 28.076481,7.90662501 C27.497814,7.90662501 26.919146,8.13507161 26.498703,8.50362219 C25.814801,9.11704363 25.691405,9.88898413 25.691405,10.643505 C25.691405,12.3795001 26.550699,15.2380689 28.672813,15.2380689 C29.356467,15.2380689 30.058033,14.9051042 30.460314,14.3439418 L30.460314,14.3439418 Z M28.269039,15.7646408 C25.481183,15.7646408 23.990479,13.5899187 23.990479,11.6247304 C23.990479,9.32707515 25.866796,7.36288227 28.532748,7.36288227 C31.109636,7.36288227 32.723239,9.37983189 32.723239,11.5025438 C32.723239,13.5715036 31.128046,15.7646408 28.269039,15.7646408 L28.269039,15.7646408 Z M20.956578,14.3439418 C21.377767,13.7822817 21.483001,13.0812642 21.483001,12.3964221 C21.483001,10.8530388 20.746357,7.90662501 18.571999,7.90662501 C17.99358,7.90662501 17.414663,8.13507161 16.993723,8.50362219 C16.30982,9.11704363 16.187419,9.88898413 16.187419,10.643505 C16.187419,12.3795001 17.046216,15.2380689 19.168579,15.2380689 C19.852482,15.2380689 20.554048,14.9051042 20.956578,14.3439418 L20.956578,14.3439418 Z M18.764556,15.7646408 C15.976452,15.7646408 14.485748,13.5899187 14.485748,11.6247304 C14.485748,9.32707515 16.362562,7.36288227 19.028017,7.36288227 C21.605154,7.36288227 23.218756,9.37983189 23.218756,11.5025438 C23.218756,13.5715036 21.623066,15.7646408 18.764556,15.7646408 L18.764556,15.7646408 Z M13.146303,15.4894099 L10.625142,16.071476 C9.602149,16.2302439 8.685884,16.3710944 7.716627,16.3710944 C2.850444,16.3710944 1,12.791351 1,9.98703202 C1,6.56630537 3.626645,3.39293812 8.122391,3.39293812 C9.074482,3.39293812 9.990747,3.53353979 10.818944,3.76273295 C12.141471,4.13327435 12.758451,4.59166068 13.146303,4.8561909 L11.682716,6.24951612 L11.065985,6.39011779 L11.506578,5.68412321 C10.90751,5.10280374 9.813863,4.02726318 7.734042,4.02726318 C4.948674,4.02726318 2.850444,6.14425151 2.850444,9.22977382 C2.850444,12.5442404 5.248208,15.6653487 9.090901,15.6653487 C10.220373,15.6653487 10.801031,15.4371509 11.329943,15.2246309 L11.329943,12.3859702 L8.668469,12.5268208 L10.078319,11.7685672 L13.816025,11.7685672 L13.358017,12.2090361 C13.233626,12.3145496 13.216709,12.350882 13.181382,12.490986 C13.16322,12.6500028 13.146303,13.1616435 13.146303,13.3378311 L13.146303,15.4894099 L13.146303,15.4894099 Z M44.89865,14.9819997 C44.316001,14.9289941 44.194098,14.8234806 44.194098,14.1356523 L44.194098,4.15442681 C44.197332,4.11610352 44.200318,4.07728253 44.204298,4.04070121 C44.274704,3.42354698 44.45109,3.31803351 44.997665,3 L42.476256,3 L41.153728,3.63507161 L42.501631,3.63507161 L42.501631,3.64303489 L42.500636,3.63706243 L42.500636,14.5236133 C42.500636,14.8759885 42.430728,14.9289941 42.024964,15.4575568 L45.145442,15.4575568 L45.797998,15.0700935 C45.498215,15.0345075 45.198433,15.0170879 44.89865,14.9819997 L44.89865,14.9819997 Z M50.426595,9.92481889 C50.758968,9.8021346 50.933862,9.69736769 50.933862,9.45224797 C50.933862,8.75222585 50.146217,7.9459437 49.200844,7.9459437 C48.499526,7.9459437 47.187199,8.48918874 47.187199,10.3804678 C47.187199,10.6783443 47.222029,10.9936404 47.24019,11.3089366 L50.426595,9.92481889 L50.426595,9.92481889 Z M52.072042,15.1442515 C51.879982,15.2492673 51.687175,15.3722004 51.495115,15.4595476 C50.916447,15.722087 50.321111,15.7920146 49.795931,15.7920146 C49.236171,15.7920146 48.360706,15.7566775 47.467079,15.1091633 C46.225158,14.2332025 45.681817,12.727147 45.681817,11.4137035 C45.681817,8.69946911 47.888268,7.36860587 49.690945,7.36860587 C50.321111,7.36860587 50.969936,7.52588066 51.495115,7.85909418 C52.369834,8.43618316 52.597221,9.18896201 52.719622,9.59185423 L48.606005,11.2561798 L47.257107,11.3611956 C47.694467,13.5851905 49.200844,14.8809655 50.863954,14.8809655 C51.757083,14.8809655 52.404664,14.5661671 53,14.2685395 L52.072042,15.1442515 L52.072042,15.1442515 Z" id="google" fill="#9F9184" fill-rule="evenodd"></path>
    </g>
</svg>