<?xml version="1.0" encoding="UTF-8" standalone="no"?>
<svg viewBox="0 0 80 80" version="1.1" xmlns="http://www.w3.org/2000/svg" xmlns:xlink="http://www.w3.org/1999/xlink">
  <title>lamp</title>
  <path d="M44.7368421,48 C44.7368421,48.5866667 44.2631579,49.0666667 43.6842105,49.0666667 L36.3157895,49.0666667 C35.7368421,49.0666667 35.2631579,48.5866667 35.2631579,48 C35.2631579,47.4133333 35.7368421,46.9333333 36.3157895,46.9333333 L43.6842105,46.9333333 C44.2631579,46.9333333 44.7368421,47.4133333 44.7368421,48 L44.7368421,48 Z M44.7368421,51.2 C44.7368421,51.7866667 44.2631579,52.2666667 43.6842105,52.2666667 L36.3157895,52.2666667 C35.7368421,52.2666667 35.2631579,51.7866667 35.2631579,51.2 C35.2631579,50.6133333 35.7368421,50.1333333 36.3157895,50.1333333 L43.6842105,50.1333333 C44.2631579,50.1333333 44.7368421,50.6133333 44.7368421,51.2 L44.7368421,51.2 Z M37.3684211,53.3333333 C37.3684211,54.8064 38.5463158,56 40,56 C41.4536842,56 42.6315789,54.8064 42.6315789,53.3333333 L37.3684211,53.3333333 L37.3684211,53.3333333 Z M38.4631579,45.8592 L38.4647368,45.7258667 C38.4921053,43.6197333 37.8210526,42.5093333 35.3531579,40.6032 L35.34,40.5898667 L35.2378947,40.512 C33.2468421,38.9877333 32.1052632,36.6629333 32.1052632,34.1333333 C32.1052632,29.7221333 35.6468421,26.1333333 40,26.1333333 C44.3531579,26.1333333 47.8947368,29.7221333 47.8947368,34.1333333 C47.8947368,36.6629333 46.7531579,38.9877333 44.7626316,40.5114667 L44.6605263,40.5893333 L44.6473684,40.6026667 C42.1794737,42.5088 41.5084211,43.6192 41.5357895,45.7253333 L41.5368421,45.8666667 L43.6421053,45.8666667 L43.6421053,45.84 C43.6315789,44.688 43.5157895,44.1493333 45.9789474,42.256 C45.9942105,42.24 46.0152632,42.2288 46.0315789,42.2133333 C48.4421053,40.368 50,37.4346667 50,34.1333333 C50,28.5386667 45.5210526,24 40,24 C34.4789474,24 30,28.5386667 30,34.1333333 C30,37.4346667 31.5578947,40.368 33.9684211,42.2133333 C33.9842105,42.2288 34.0052632,42.24 34.0210526,42.256 C36.4847368,44.1493333 36.3684211,44.688 36.3578947,45.84 L36.3578947,45.8666667 L38.4636842,45.8666667 C38.4636842,45.864 38.4631579,45.8618667 38.4631579,45.8592 L38.4631579,45.8592 Z" id="lamp" fill="#F6A623" fill-rule="evenodd"></path>
</svg>