<?xml version="1.0" encoding="UTF-8" standalone="no"?>
<svg viewBox="0 0 47 64" version="1.1" xmlns="http://www.w3.org/2000/svg" xmlns:xlink="http://www.w3.org/1999/xlink">
  <title>list</title>
  <g id="Page-1" stroke="none" stroke-width="1" fill="none" fill-rule="evenodd">
    <g id="roi.rs_medconference_page" transform="translate(-516.000000, -1188.000000)" fill="#1E8C76">
      <g id="right" transform="translate(516.000000, 36.000000)">
        <g id="program" transform="translate(0.000000, 1142.000000)">
          <g id="list" transform="translate(0.000000, 10.000000)">
            <path d="M45.6971324,63.826087 L1.30217647,63.826087 C0.729191176,63.826087 0.265411765,63.3586087 0.265411765,62.7826087 L0.265411765,3.98469565 C0.265411765,3.408 0.729191176,2.94121739 1.30217647,2.94121739 L45.6971324,2.94121739 C46.2694265,2.94121739 46.7338971,3.408 46.7338971,3.98469565 L46.7338971,62.7826087 C46.7338971,63.3586087 46.2694265,63.826087 45.6971324,63.826087 L45.6971324,63.826087 Z M2.33894118,61.7391304 L44.6603676,61.7391304 L44.6603676,5.02817391 L2.33894118,5.02817391 L2.33894118,61.7391304 L2.33894118,61.7391304 Z" id="Shape"></path>
            <rect id="Rectangle-path" x="16.0145588" y="0.173913043" width="14.9701912" height="7.62086957"></rect>
            <path d="M38.5545147,16.6949565 L14.6356618,16.6949565 C14.0626765,16.6949565 13.5988971,16.2281739 13.5988971,15.6514783 C13.5988971,15.0747826 14.0626765,14.608 14.6356618,14.608 L38.5545147,14.608 C39.1268088,14.608 39.5912794,15.0747826 39.5912794,15.6514783 C39.5912794,16.2281739 39.1268088,16.6949565 38.5545147,16.6949565 L38.5545147,16.6949565 Z" id="Shape"></path>
            <ellipse id="Oval" cx="8.95626471" cy="15.6514783" rx="1.54892647" ry="1.55895652"></ellipse>
            <path d="M38.5545147,25.84 L14.6356618,25.84 C14.0626765,25.84 13.5988971,25.3732174 13.5988971,24.7965217 C13.5988971,24.2198261 14.0626765,23.7530435 14.6356618,23.7530435 L38.5545147,23.7530435 C39.1268088,23.7530435 39.5912794,24.2198261 39.5912794,24.7965217 C39.5912794,25.3732174 39.1268088,25.84 38.5545147,25.84 L38.5545147,25.84 Z" id="Shape"></path>
            <ellipse id="Oval" cx="8.95626471" cy="24.7965217" rx="1.54892647" ry="1.55895652"></ellipse>
            <path d="M38.5545147,53.2758261 L14.6356618,53.2758261 C14.0626765,53.2758261 13.5988971,52.8083478 13.5988971,52.2323478 C13.5988971,51.6563478 14.0626765,51.1888696 14.6356618,51.1888696 L38.5545147,51.1888696 C39.1268088,51.1888696 39.5912794,51.6563478 39.5912794,52.2323478 C39.5912794,52.8083478 39.1268088,53.2758261 38.5545147,53.2758261 L38.5545147,53.2758261 Z" id="Shape"></path>
            <ellipse id="Oval" cx="8.95626471" cy="52.2323478" rx="1.54892647" ry="1.55895652"></ellipse>
            <path d="M38.5545147,44.1307826 L14.6356618,44.1307826 C14.0626765,44.1307826 13.5988971,43.6633043 13.5988971,43.0873043 C13.5988971,42.5113043 14.0626765,42.0438261 14.6356618,42.0438261 L38.5545147,42.0438261 C39.1268088,42.0438261 39.5912794,42.5113043 39.5912794,43.0873043 C39.5912794,43.6633043 39.1268088,44.1307826 38.5545147,44.1307826 L38.5545147,44.1307826 Z" id="Shape"></path>
            <ellipse id="Oval" cx="8.95626471" cy="43.0873043" rx="1.54892647" ry="1.55895652"></ellipse>
            <path d="M38.5545147,34.9850435 L14.6356618,34.9850435 C14.0626765,34.9850435 13.5988971,34.5175652 13.5988971,33.9415652 C13.5988971,33.3655652 14.0626765,32.898087 14.6356618,32.898087 L38.5545147,32.898087 C39.1268088,32.898087 39.5912794,33.3655652 39.5912794,33.9415652 C39.5912794,34.5175652 39.1268088,34.9850435 38.5545147,34.9850435 L38.5545147,34.9850435 Z" id="Shape"></path>
            <ellipse id="Oval" cx="8.95626471" cy="33.9415652" rx="1.54892647" ry="1.55895652"></ellipse>
          </g>
        </g>
      </g>
    </g>
  </g>
</svg>