<?xml version="1.0" encoding="UTF-8" standalone="no"?>
<svg viewBox="0 0 30 30" version="1.1" xmlns="http://www.w3.org/2000/svg" xmlns:xlink="http://www.w3.org/1999/xlink">
  <title>login</title>
  <path d="M16.143,19.17 C15.952,19.36 15.952,19.67 16.143,19.86 C16.333,20.05 16.642,20.05 16.833,19.86 L20.789,15.9 C20.811,15.88 20.836,15.88 20.857,15.86 C20.955,15.76 21.001,15.63 20.999,15.5 L21,15.5 L20.999,15.5 C21.001,15.37 20.955,15.24 20.857,15.14 C20.835,15.12 20.808,15.11 20.785,15.09 L16.833,11.14 C16.642,10.95 16.333,10.95 16.143,11.14 C15.952,11.33 15.952,11.64 16.143,11.83 L19.31,15 L7.5,15 C7.224,15 7,15.22 7,15.5 C7,15.78 7.224,16 7.5,16 L19.309,16 L16.143,19.17 L16.143,19.17 Z M22,8 L10,8 C9.448,8 9,8.45 9,9 L9,12 L10,12 L10,9.5 C10,9.22 10.224,9 10.5,9 L21.5,9 C21.776,9 22,9.22 22,9.5 L22,21.5 C22,21.78 21.776,22 21.5,22 L10.5,22 C10.224,22 10,21.78 10,21.5 L10,19 L9,19 L9,22 C9,22.55 9.448,23 10,23 L22,23 C22.552,23 23,22.55 23,22 L23,9 C23,8.45 22.552,8 22,8 L22,8 L22,8 Z" id="login" fill="#9F9184" fill-rule="evenodd"></path>
</svg>