<?xml version="1.0" encoding="UTF-8" standalone="no"?>
<svg viewBox="0 0 150 150" version="1.1" xmlns="http://www.w3.org/2000/svg" xmlns:xlink="http://www.w3.org/1999/xlink">
  <title>logo_single</title>
  <path d="M44.0375666,76.0724446 C44.0375666,95.6203066 56.8722601,110.362377 75,110.362377 C93.1277399,110.362377 105.962433,95.6203066 105.962433,76.0724446 C105.962433,70.799143 104.946719,65.8936523 102.605045,60.5219984 L120.156809,36.3973849 C129.640858,46.8604559 135,60.6742424 135,76.0724446 C135,109.721066 110.614757,136 75,136 C39.3852431,136 15,109.721066 15,76.0724446 C15,43.222767 39.3852431,17.5851445 75,17.5851445 C88.3904364,17.5851445 100.193229,21.2093604 109.746071,27.4257664 L122.803332,14 L107.722736,39.3897208 L98.8537803,54.4632255 L84.3505092,78.7373885 C83.1041343,81.7149041 79.8978215,83.9837441 76.1613948,83.9837441 C71.179942,83.9837441 67.1413637,79.9499514 67.1413637,74.9744014 C67.1413637,72.4859528 68.1503339,70.2332803 69.7110002,68.682547 L90.5203345,47.1959316 C85.9422,44.6347292 80.7354826,43.222767 75,43.222767 C56.8722601,43.222767 44.0375666,57.3248741 44.0375666,76.0724446 Z" id="logo_single" fill="$fill" fill-rule="evenodd"></path>
</svg>