<?xml version="1.0" encoding="UTF-8" standalone="no"?>
<svg viewBox="0 0 110 30" version="1.1" xmlns="http://www.w3.org/2000/svg" xmlns:xlink="http://www.w3.org/1999/xlink">
  <title>logo</title>
  <path d="M-7.10542736e-15,29.6181944 L6.94369909,29.6181944 L6.94369909,20.0330568 L10.1973935,20.0330568 L15.2368932,29.6181944 L22.9743934,29.6181944 L17.458679,19.6750521 C16.7842613,18.4817031 16.3875256,17.9646954 16.3875256,17.9646954 L16.3875256,17.8853592 C19.2045799,16.4533404 20.6332241,13.1522925 20.6332241,10.1295825 C20.6332241,5.99319031 18.6096412,3.08981521 15.3955215,1.85679812 C14.16541,1.37945853 12.7766702,1.18045684 9.88013683,1.18045684 L-7.10542736e-15,1.18045684 L-7.10542736e-15,29.6181944 L-7.10542736e-15,29.6181944 Z M6.94369909,14.066973 L6.94369909,7.14654061 L9.2848684,7.14654061 C10.4355008,7.14654061 11.2688767,7.26587551 11.9037197,7.54421341 C13.2133103,8.06122112 13.5701415,9.1352352 13.5701415,10.5669234 C13.5701415,12.8339559 12.1814017,14.066973 9.9592861,14.066973 L6.94369909,14.066973 L6.94369909,14.066973 Z M66.5552981,29.6181944 L73.4993269,29.6181944 L73.4993269,20.0330568 L76.7530213,20.0330568 L81.7921912,29.6181944 L89.5296915,29.6181944 L84.0143068,19.6750521 C83.3398891,18.4817031 82.9428237,17.9646954 82.9428237,17.9646954 L82.9428237,17.8853592 C85.7602077,16.4533404 87.1885222,13.1522925 87.1885222,10.1295825 C87.1885222,5.99319031 85.1649393,3.08981521 81.9508195,1.85679812 C80.7210378,1.37945853 79.332298,1.18045684 76.4354349,1.18045684 L66.5552981,1.18045684 L66.5552981,29.6181944 L66.5552981,29.6181944 Z M73.4993269,14.066973 L73.4993269,7.14654061 L75.8404962,7.14654061 C76.9911287,7.14654061 77.8241747,7.26587551 78.4593476,7.54421341 C79.7686083,8.06122112 80.1257694,9.1352352 80.1257694,10.5669234 C80.1257694,12.8339559 78.7370296,14.066973 76.5149139,14.066973 L73.4993269,14.066973 L73.4993269,14.066973 Z M55.3480919,20.7821229 L62.2921208,20.8145185 L62.2921208,1.18839047 L55.3480919,1.18839047 L55.3480919,20.7821229 L55.3480919,20.7821229 Z M55.3480919,29.5950547 L62.2921208,29.6029883 L62.2921208,24.4745628 L55.3480919,24.4745628 L55.3480919,29.5950547 L55.3480919,29.5950547 Z M89.7539477,25.9650921 C92.4377674,28.6549205 96.3051984,30 99.9757455,30 C106.487422,30 110,25.925424 110,21.1784734 C110,12.2379425 97.5287141,13.1873327 97.5287141,9.15242471 C97.5287141,8.00502463 98.4366221,7.13464018 100.528141,7.13464018 C102.738385,7.13464018 105.185086,8.24237215 106.763784,9.62711976 L109.684392,3.97011669 C107.237361,1.79432085 104.001145,0.765594526 100.843749,0.765594526 C94.9240437,0.765594526 90.6222811,4.20746422 90.6222811,9.42910978 C90.6222811,18.290635 103.093567,17.6575981 103.093567,21.6531685 C103.093567,22.7605699 102.10684,23.6309543 100.172959,23.6309543 C97.6471082,23.6309543 94.9636183,22.0881954 93.3849203,20.7037784 L89.7539477,25.9650921 L89.7539477,25.9650921 Z M41.0464792,8.14485472 C39.9271767,7.51644574 38.6541927,7.17001091 37.2519315,7.17001091 C32.8199024,7.17001091 29.6819639,10.6300618 29.6819639,15.2299098 C29.6819639,20.0261148 32.8199024,23.6431853 37.2519315,23.6431853 C41.6839606,23.6431853 44.8218992,20.0261148 44.8218992,15.2299098 C44.8218992,13.9360682 44.5735683,12.7324717 44.0010553,11.4144987 L48.2922647,5.49535553 C50.6110083,8.06254339 51.9212585,11.4518528 51.9212585,15.2299098 C51.9212585,23.4858352 45.9593401,29.9335559 37.2519315,29.9335559 C28.544523,29.9335559 22.5826046,23.4858352 22.5826046,15.2299098 C22.5826046,7.17001091 28.544523,0.879640342 37.2519315,0.879640342 C40.525743,0.879640342 43.4113933,1.76886714 45.7469562,3.29410598 L48.9393099,0 L45.2522733,6.22954613 L43.0839132,9.92793627 L43.0720408,9.91273016 L39.5380261,15.8837724 C39.2333015,16.6143268 38.4493939,17.1710026 37.5358795,17.1710026 C36.3179702,17.1710026 35.3305831,16.1812833 35.3305831,14.9604972 C35.3305831,14.3499388 35.577265,13.7972298 35.9588304,13.4167466 L35.9472878,13.4071601 L41.0464792,8.14485472 L41.0464792,8.14485472 Z" id="logo" fill="#F6A623" fill-rule="evenodd"></path>
</svg>