<?xml version="1.0" encoding="UTF-8" standalone="no"?>
<svg viewBox="0 0 30 30" version="1.1" xmlns="http://www.w3.org/2000/svg" xmlns:xlink="http://www.w3.org/1999/xlink">
  <title>mail</title>
  <path d="M21.471,21.0014806 L8.497,21.0014806 C8.221,21.0014806 7.998,20.7714806 7.998,20.5014806 L7.998,10.5214806 L14.602,15.8114806 C14.612,15.8314806 14.616,15.8414806 14.626,15.8514806 C14.725,15.9514806 14.855,16.0014806 14.985,15.9914806 C15.114,16.0014806 15.244,15.9514806 15.342,15.8514806 C15.353,15.8414806 15.357,15.8314806 15.367,15.8114806 L21.971,10.5214806 L21.971,20.5014806 C21.971,20.7714806 21.748,21.0014806 21.471,21.0014806 L21.471,21.0014806 L21.471,21.0014806 Z M21.057,10.0014806 L14.985,14.8714806 L8.912,10.0014806 L21.057,10.0014806 L21.057,10.0014806 Z M22.825,9.14148058 C22.72,9.03148058 22.582,8.99148058 22.446,9.00148058 L7.523,9.00148058 C7.387,8.99148058 7.249,9.03148058 7.144,9.14148058 C7.046,9.23148058 7,9.36148058 7.001,9.49148058 C7,9.49148058 7,9.50148058 7,9.50148058 L7,21.5014806 C7,21.7714806 7.223,22.0014806 7.499,22.0014806 L22.469,22.0014806 C22.746,22.0014806 22.968,21.7714806 22.968,21.5014806 L22.968,9.50148058 C22.968,9.50148058 22.967,9.50148058 22.967,9.49148058 C22.969,9.36148058 22.923,9.23148058 22.825,9.14148058 L22.825,9.14148058 L22.825,9.14148058 Z" id="mail" fill="#9F9184" fill-rule="evenodd"></path>
</svg>