<?xml version="1.0" encoding="UTF-8" standalone="no"?>
<svg viewBox="0 0 30 60" version="1.1" xmlns="http://www.w3.org/2000/svg" xmlns:xlink="http://www.w3.org/1999/xlink">
  <title>mouse</title>
  <g id="mouse" transform="translate(3.000000, 8.000000)" fill="#FFFFFF" fill-rule="evenodd">
    <path d="M12,14.3570435 C11.0509565,14.3570435 10.2782609,15.1292174 10.2782609,16.0787826 C10.2782609,17.0283478 11.0504348,17.8005217 12,17.8005217 C12.9495652,17.8005217 13.7217391,17.0283478 13.7217391,16.0787826 C13.7217391,15.1292174 12.9490435,14.3570435 12,14.3570435 L12,14.3570435 L12,14.3570435 Z" id="mouse-scroll"></path>
    <path d="M12.9913043,9.22173913 L12.9913043,1.35704348 C12.9913043,0.773217391 12.5838261,0.36573913 11.9994783,0.36573913 C11.4161739,0.36573913 11.0086957,0.773217391 11.0086957,1.35704348 L11.0086957,5.22173913 C4.8453913,5.71478261 0.052173913,10.8763478 0.052173913,17.0787826 L0.052173913,31.6874783 C0.052173913,38.2749565 5.41147826,43.6347826 11.9994783,43.6347826 C18.588,43.6347826 23.9478261,38.2749565 23.9478261,31.6869565 L23.9478261,17.0782609 C23.9478261,10.8805217 19.1551304,5.71895652 12.9913043,5.22173913 L12.9913043,9.22173913 L12.9913043,9.22173913 Z M11.9994783,41.6526957 C6.50504348,41.6526957 2.03426087,37.1824348 2.03426087,31.6869565 L2.03426087,17.0782609 C2.03426087,11.5833043 6.50452174,7.11304348 11.9994783,7.11304348 C17.4944348,7.11304348 21.9652174,11.5833043 21.9652174,17.0782609 L21.9652174,31.6869565 C21.9652174,37.1824348 17.4944348,41.6526957 11.9994783,41.6526957 L11.9994783,41.6526957 L11.9994783,41.6526957 Z" id="mouse-shape"></path>
  </g>
</svg>