<?xml version="1.0" encoding="UTF-8" standalone="no"?>
<svg viewBox="0 0 30 30" version="1.1" xmlns="http://www.w3.org/2000/svg" xmlns:xlink="http://www.w3.org/1999/xlink">
  <title>phone</title>
  <path d="M22.048,10.1702848 C21.637,10.4502848 19.347,11.9602848 18.92,12.2302848 C18.875,12.2302848 18.76,12.2202848 18.596,12.1302848 C18.423,12.0402848 17.915,11.7602848 17.205,11.3502848 L16.653,11.0402848 L16.133,11.4002848 C15.746,11.6702848 14.904,12.3202848 13.623,13.5902848 C12.337,14.8802848 11.69,15.7102848 11.419,16.1002848 L11.053,16.6102848 L11.369,17.1602848 C11.675,17.7002848 12.042,18.3402848 12.152,18.5502848 C12.241,18.7202848 12.248,18.8302848 12.248,18.8702848 L12.248,18.8802848 C12.007,19.2602848 10.454,21.5902848 10.17,22.0002848 C10.13,22.0102848 10.043,22.0002848 9.934,21.9302848 C9.053,21.2902848 8.134,20.4002848 8.003,20.0402848 C8.091,18.1702848 9.743,15.5502848 12.661,12.6402848 C15.581,9.7302848 18.215,8.0902848 20.088,8.0002848 C20.442,8.1302848 21.349,9.0402848 21.98,9.9102848 C22.025,9.9702848 22.05,10.0502848 22.05,10.1302848 C22.05,10.1402848 22.05,10.1602848 22.048,10.1702848 L22.048,10.1702848 L22.048,10.1702848 Z M22.771,9.3402848 C22.755,9.3202848 21.077,6.9702848 20.104,7.0002848 C17.374,7.0902848 14.164,9.7302848 11.953,11.9302848 C9.742,14.1402848 7.087,17.3302848 7,20.0602848 L7,20.0902848 C7,21.0402848 9.327,22.7202848 9.35,22.7402848 C9.983,23.1802848 10.678,23.0202848 10.962,22.6202848 C11.133,22.3702848 12.918,19.7002848 13.119,19.3702848 C13.207,19.2302848 13.25,19.0602848 13.25,18.8702848 C13.25,18.6202848 13.178,18.3502848 13.039,18.0902848 C12.903,17.8302848 12.458,17.0502848 12.239,16.6702848 C12.476,16.3302848 13.083,15.5502848 14.332,14.3002848 C15.571,13.0702848 16.37,12.4602848 16.709,12.2202848 C17.091,12.4402848 17.874,12.8802848 18.131,13.0102848 C18.616,13.2702848 19.101,13.3002848 19.427,13.0902848 C19.736,12.9002848 22.399,11.1302848 22.653,10.9402848 C22.892,10.7702848 23.021,10.4602848 23.021,10.1302848 C23.021,9.8602848 22.941,9.5802848 22.771,9.3402848 L22.771,9.3402848 L22.771,9.3402848 Z" id="phone" fill="#9F9184" fill-rule="evenodd"></path>
</svg>