<?xml version="1.0" encoding="UTF-8" standalone="no"?>
<svg viewBox="0 0 80 80" version="1.1" xmlns="http://www.w3.org/2000/svg" xmlns:xlink="http://www.w3.org/1999/xlink">
  <title>report</title>
  <path d="M51.5,34 L39.5,34 C38.948,34 38.5,34.45 38.5,35 C38.5,35.55 38.948,36 39.5,36 L51.5,36 C52.052,36 52.5,35.55 52.5,35 C52.5,34.45 52.052,34 51.5,34 L51.5,34 L51.5,34 Z M51.5,40 L39.5,40 C38.948,40 38.5,40.45 38.5,41 C38.5,41.55 38.948,42 39.5,42 L51.5,42 C52.052,42 52.5,41.55 52.5,41 C52.5,40.45 52.052,40 51.5,40 L51.5,40 L51.5,40 Z M54.5,53 C54.5,53.55 54.052,54 53.5,54 L37.5,54 C36.948,54 36.5,53.55 36.5,53 L36.5,29 C36.5,28.45 36.948,28 37.5,28 L53.5,28 C54.052,28 54.5,28.45 54.5,29 L54.5,53 L54.5,53 Z M54.5,26 L52.5,26 L52.5,24 L50.5,24 L50.5,26 L46.5,26 L46.5,24 L44.5,24 L44.5,26 L40.5,26 L40.5,24 L38.5,24 L38.5,26 L36.5,26 C35.395,26 34.5,26.89 34.5,28 L34.5,54 C34.5,55.1 35.395,56 36.5,56 L54.5,56 C55.604,56 56.5,55.1 56.5,54 L56.5,28 C56.5,26.89 55.604,26 54.5,26 L54.5,26 L54.5,26 Z M51.5,46 L39.5,46 C38.948,46 38.5,46.45 38.5,47 C38.5,47.55 38.948,48 39.5,48 L51.5,48 C52.052,48 52.5,47.55 52.5,47 C52.5,46.45 52.052,46 51.5,46 L51.5,46 L51.5,46 Z M30.5,38 L26.5,38 L26.5,27 C26.5,26.45 26.948,26 27.5,26 L29.5,26 C30.052,26 30.5,26.45 30.5,27 L30.5,38 L30.5,38 Z M30.5,53 C30.5,53.55 30.052,54 29.5,54 L27.5,54 C26.948,54 26.5,53.55 26.5,53 L26.5,40 L30.5,40 L30.5,53 L30.5,53 Z M30.5,24 L26.5,24 C25.395,24 24.5,24.89 24.5,26 L24.5,54 C24.5,55.1 25.395,56 26.5,56 L30.5,56 C31.604,56 32.5,55.1 32.5,54 L32.5,26 C32.5,24.89 31.604,24 30.5,24 L30.5,24 L30.5,24 Z" id="report" fill="#9F9184" fill-rule="evenodd"></path>
</svg>