<?xml version="1.0" encoding="UTF-8" standalone="no"?>
<svg viewBox="0 0 42 48" version="1.1" xmlns="http://www.w3.org/2000/svg" xmlns:xlink="http://www.w3.org/1999/xlink">
  <title>time</title>
  <g id="Page-1" stroke="none" stroke-width="1" fill="none" fill-rule="evenodd">
    <g id="roi.rs_medconference_page" transform="translate(-518.000000, -355.000000)" fill="#CFC6BC">
      <g id="right" transform="translate(516.000000, 36.000000)">
        <g id="info">
          <g id="time" transform="translate(2.000000, 313.000000)">
            <g transform="translate(0.000000, 6.000000)" id="Shape">
              <path d="M20.643,15.3043478 C19.6798,15.3043478 18.9,16.0793043 18.9,17.0372174 L18.9,27.1624348 C18.9,28.1203478 19.6798,28.8946087 20.643,28.8946087 C21.6069,28.8946087 22.3867,28.1203478 22.3867,27.1624348 L22.3867,17.0372174 C22.3867,16.0793043 21.6069,15.3043478 20.643,15.3043478 L20.643,15.3043478 Z"></path>
              <path d="M20.6955,6.26086957 C9.2841,6.26086957 3.55271368e-15,15.485913 3.55271368e-15,26.8257391 C3.55271368e-15,38.1676522 9.2848,47.394087 20.6955,47.394087 C32.1062,47.394087 41.391,38.1669565 41.391,26.8257391 C41.3917,15.4852174 32.1069,6.26086957 20.6955,6.26086957 L20.6955,6.26086957 Z M20.6955,42.1968696 C12.1688,42.1968696 5.2304,35.3015652 5.2304,26.8257391 C5.2304,18.352 12.1688,11.4587826 20.6955,11.4587826 C29.2222,11.4587826 36.1606,18.352 36.1606,26.8257391 C36.1606,35.3015652 29.2222,42.1968696 20.6955,42.1968696 L20.6955,42.1968696 Z"></path>
              <path d="M21.8477,-1.33226763e-15 L18.9742,-1.33226763e-15 C17.3852,-1.33226763e-15 16.1,1.27721739 16.1,2.85565217 L16.1,4.10295652 L18.9742,4.10295652 L21.8477,4.10295652 L24.7212,4.10295652 L24.7212,2.85565217 C24.7219,1.27721739 23.4367,-1.33226763e-15 21.8477,-1.33226763e-15 L21.8477,-1.33226763e-15 Z"></path>
            </g>
          </g>
        </g>
      </g>
    </g>
  </g>
</svg>