<?xml version="1.0" encoding="UTF-8" standalone="no"?>
<svg viewBox="0 0 20 20" version="1.1" xmlns="http://www.w3.org/2000/svg" xmlns:xlink="http://www.w3.org/1999/xlink">
  <title>twitter</title>
  <path d="M20,3.8952461 C19.443056,4.71110662 18.759776,5.40658859 17.95016,5.98169202 C17.958153,6.13593186 17.962149,6.31026236 17.962149,6.5046835 C17.962149,7.58492775 17.802232,8.6664787 17.482397,9.7493363 C17.162562,10.8322045 16.67401,11.8686995 16.01674,12.8588211 C15.35947,13.8489428 14.576541,14.7261046 13.667952,15.4903065 C12.759364,16.2545084 11.667197,16.8638411 10.391454,17.3183047 C9.11571,17.7727682 7.748457,18 6.289694,18 C4.01305,18 1.916486,17.3947046 0,16.1841138 C0.340154,16.2213938 0.666389,16.2400338 0.978708,16.2400338 C2.880658,16.2400338 4.579406,15.6630903 6.074951,14.5092035 C5.188153,14.4931928 4.39396,14.2243451 3.69237,13.7026603 C2.990781,13.1809862 2.507963,12.5143842 2.243918,11.7028543 C2.504909,11.7518142 2.762499,11.7762942 3.016688,11.7762942 C3.382576,11.7762942 3.742604,11.7292969 4.096773,11.6353024 C3.150395,11.4486359 2.365294,10.984423 1.74147,10.2426638 C1.117667,9.5009152 0.805766,8.6447934 0.805766,7.67429833 L0.805766,7.62428238 C1.386657,7.94103939 2.006268,8.1095299 2.664599,8.1297539 C2.103973,7.7616689 1.65948,7.28167472 1.331122,6.68977131 C1.002741,6.0978679 0.838551,5.45732454 0.838551,4.76814123 C0.838551,4.04128329 1.023493,3.3644413 1.393377,2.73761526 C2.422546,3.98142202 3.669599,4.97551169 5.134535,5.71988428 C6.599494,6.46426754 8.171114,6.87767512 9.849397,6.96010704 C9.777816,6.66631533 9.741961,6.35972897 9.741831,6.04034796 C9.741831,4.92519174 10.142539,3.97301136 10.943957,3.18380682 C11.745385,2.39460227 12.71226,2 13.844582,2 C15.030083,2 16.028643,2.42512491 16.840263,3.27537472 C17.767579,3.09447891 18.63585,2.76728457 19.445076,2.29379171 C19.13331,3.26008407 18.532561,4.00551266 17.642829,4.53007747 C18.46058,4.43437623 19.246292,4.22276578 19.999968,3.8952461 L20,3.8952461 L20,3.8952461 Z" id="twitter" fill="#000000" fill-rule="evenodd"></path>
</svg>