<?xml version="1.0" encoding="UTF-8" standalone="no"?>
<svg viewBox="0 0 20 20" version="1.1" xmlns="http://www.w3.org/2000/svg" xmlns:xlink="http://www.w3.org/1999/xlink">
  <title>vk</title>
  <path d="M5.135109,2 C3.410862,2 2,3.41086223 2,5.13510898 L2,14.864891 C2,16.5891378 3.410862,18 5.135109,18 L14.864891,18 C16.589138,18 18,16.5891378 18,14.864891 L18,5.13510898 C18,3.41086223 16.589138,2 14.864891,2 L5.135109,2 L5.135109,2 Z M6.929891,5.61004113 L10.085989,5.61004113 C10.741459,5.61004113 11.239348,5.63402211 11.577305,5.68553562 C11.915263,5.73447346 12.232711,5.83937224 12.527682,5.99900013 C12.846889,6.17096246 13.086667,6.40253328 13.244599,6.68940913 C13.402499,6.97798077 13.482569,7.30966698 13.482569,7.68678746 C13.482569,8.1226365 13.373815,8.5100597 13.154611,8.8501449 C12.937518,9.19023 12.636292,9.4403105 12.25322,9.6020501 L12.25322,9.6485403 C12.804415,9.7655975 13.246487,10.0010719 13.578061,10.3594587 C13.910131,10.7182615 14.075998,11.2012406 14.075998,11.8077722 C14.075998,12.2517163 13.992185,12.6432989 13.82403,12.9791286 C13.655939,13.3149583 13.430848,13.5916914 13.146116,13.8130236 C12.810286,14.0769263 12.441676,14.2631588 12.037759,14.3759606 C11.636386,14.4883305 11.12653,14.5444354 10.505952,14.5444354 L6.929907,14.5444354 L6.929907,5.61005713 L6.929891,5.61004113 L6.929891,5.61004113 Z M9.162106,7.24783477 L9.162106,9.1386045 L9.444566,9.1386045 C9.827638,9.1386045 10.098308,9.134669 10.251968,9.126606 C10.405629,9.1185431 10.565545,9.0773803 10.729412,9.0016138 C10.907326,8.9177684 11.032622,8.801351 11.099861,8.6536576 C11.167533,8.5042525 11.202345,8.3317302 11.202345,8.1372267 C11.202345,7.992093 11.165421,7.84430362 11.09135,7.69278671 C11.017712,7.5412538 10.90331,7.43049976 10.745394,7.36282828 C10.598117,7.29728454 10.423979,7.2627289 10.220964,7.2563457 C10.018366,7.24994651 9.717316,7.24785077 9.31807,7.24785077 L9.16209,7.24785077 L9.162106,7.24783477 L9.162106,7.24783477 Z M9.162106,10.6689077 L9.162106,12.9056339 L9.283098,12.9056339 C9.867073,12.9056339 10.270414,12.9012344 10.493442,12.8931395 C10.71647,12.8850765 10.946233,12.8321072 11.177356,12.7316558 C11.382514,12.6435549 11.529807,12.5144512 11.624307,12.3442006 C11.718375,12.174366 11.765298,11.9817183 11.765298,11.7667694 C11.765298,11.4901002 11.710616,11.2751353 11.597815,11.119347 C11.485445,10.9618628 11.317338,10.8449175 11.093878,10.7648956 C10.958519,10.7116863 10.769951,10.682858 10.532445,10.6769067 C10.294939,10.6709555 9.975731,10.6689077 9.576069,10.6689077 L9.162122,10.6689077 L9.162106,10.6689077 L9.162106,10.6689077 Z" id="vk" fill="#000000" fill-rule="evenodd"></path>
</svg>