<?xml version="1.0" encoding="UTF-8" standalone="no"?>
<svg viewBox="0 0 40 24" version="1.1" xmlns="http://www.w3.org/2000/svg" xmlns:xlink="http://www.w3.org/1999/xlink">
  <title>yandex</title>
  <path d="M6.007822,11.7018086 L5.261627,11.7018086 C4.089648,11.7018086 2.95311,10.7957653 2.95311,8.53046821 C2.95311,6.17052114 4.018525,5.20801563 5.10178,5.20801563 L6.007822,5.20801563 L6.007822,11.7018086 L6.007822,11.7018086 Z M7.179802,4 L5.155062,4 C3.16636,4 1.479156,5.60451194 1.479156,8.71926397 C1.479156,10.5880648 2.296354,11.9659714 3.752112,12.6455353 L1.03553,17.8555675 C0.946805,18.0255845 1.03553,18.1574138 1.177181,18.1574138 L2.438005,18.1574138 C2.54457,18.1574138 2.615693,18.1197303 2.651136,18.0255845 L5.119501,12.9096982 L6.007822,12.9096982 L6.007822,18.0255845 C6.007822,18.0820468 6.061105,18.1574138 6.131633,18.1574138 L7.233084,18.1574138 C7.33965,18.1574138 7.375211,18.1008255 7.375211,18.0068057 L7.375211,4.1889218 C7.375211,4.05646229 7.304088,4 7.179802,4 L7.179802,4 Z M13.854699,8.69322579 L12.753723,8.69322579 C12.664879,8.69322579 12.611596,8.76859285 12.611596,8.82492911 L12.611596,12.4305753 L10.569136,12.4305753 L10.569136,8.82492911 C10.569136,8.73090932 10.534169,8.69322579 10.445325,8.69322579 L9.343754,8.69322579 C9.255624,8.69322579 9.202222,8.74968807 9.202222,8.82492911 L9.202222,17.9994203 C9.202222,18.0935661 9.237784,18.1501544 9.326033,18.1501544 L10.445325,18.1501544 C10.516329,18.1501544 10.569136,18.0935661 10.569136,17.9994203 L10.569136,13.6201903 L12.611596,13.6201903 L12.611596,17.9994203 C12.611596,18.0935661 12.664879,18.1501544 12.753723,18.1501544 L13.854699,18.1501544 C13.943543,18.1501544 13.978986,18.0747873 13.978986,17.9994203 L13.978986,8.82492911 C13.978986,8.74968807 13.925703,8.69322579 13.854699,8.69322579 L13.854699,8.69322579 Z M38.993654,17.5464112 L38.851528,16.9045308 C38.834282,16.8480686 38.816442,16.8292898 38.763159,16.8292898 C38.674434,16.8292898 38.194772,17.0363602 37.502336,17.0363602 C36.152668,17.0363602 35.495317,15.6589577 35.495317,13.4690277 C35.495317,11.5432604 36.046102,9.63702817 36.96939,9.63702817 C37.218201,9.63702817 37.520176,9.7122692 37.999244,10.1847627 C38.052645,10.241225 38.088207,10.2601298 38.14137,10.2601298 C38.194772,10.2601298 38.247935,10.2218161 38.301456,10.1276703 L38.781119,9.29749827 C38.816442,9.24040582 38.834282,9.18331338 38.834282,9.12685109 C38.834282,9.05148403 38.763159,8.99502174 38.656594,8.93855946 C37.928121,8.54206314 37.431213,8.46669607 37.004952,8.46669607 C35.335469,8.46669607 34.039084,10.5806289 34.039084,13.8837986 C34.039084,16.7345138 35.282306,18.3765833 37.058234,18.3765833 C37.804548,18.3765833 38.60343,17.9994959 38.923007,17.7536077 C38.993654,17.6970193 39.011257,17.6217783 38.993654,17.5464112 L38.993654,17.5464112 Z M31.27569,12.9589262 L33.406519,8.82495431 C33.442081,8.76849203 33.424122,8.69325099 33.353118,8.69325099 L32.305425,8.69325099 C32.00345,8.69325099 31.896885,8.80617556 31.790914,9.05155964 L30.192079,12.5817128 C30.10371,12.7894133 30.014748,12.9212427 29.926022,12.9783351 L29.926022,8.82495431 C29.926022,8.74971328 29.89058,8.69325099 29.819457,8.69325099 L28.665199,8.69325099 C28.612035,8.69325099 28.558514,8.74971328 28.558514,8.82495431 L28.558514,18.0183502 C28.558514,18.0748125 28.594076,18.1500536 28.665199,18.1500536 L29.819457,18.1500536 C29.89058,18.1500536 29.926022,18.0935913 29.926022,18.0183502 L29.926022,13.2801815 C29.979305,13.317865 30.014748,13.3743273 30.050309,13.4501985 L32.074573,17.8669859 C32.181138,18.0935913 32.340986,18.1500536 32.572076,18.1500536 L33.708494,18.1500536 C33.779617,18.1500536 33.797219,18.0748125 33.761658,18.0183502 L31.27569,12.9589262 L31.27569,12.9589262 Z M19.182248,16.9609931 L16.607317,16.9609931 C17.51336,15.3189237 17.868141,13.4690277 17.992428,11.2038566 C18.027989,10.7130884 18.04571,10.2029113 18.04571,9.88228622 L19.182248,9.88228622 L19.182248,16.9609931 L19.182248,16.9609931 Z M21.100422,16.9609931 L20.887173,16.9609931 C20.62076,16.9609931 20.549637,16.8480686 20.549637,16.6215893 L20.549637,8.82500473 C20.549637,8.73085891 20.514075,8.69317537 20.443072,8.69317537 L16.891571,8.69317537 C16.802608,8.69317537 16.749444,8.74976369 16.749444,8.82500473 L16.749444,9.50456866 C16.749444,11.7886445 16.625039,14.7333795 15.48862,16.9609931 L15.097683,16.9609931 C14.991117,16.9609931 14.955556,17.0180856 14.955556,17.1122314 L14.955556,19.8681706 C14.955556,19.9628206 15.026679,20 15.079961,20 L15.932721,20 C16.127536,20 16.198659,19.8492659 16.198659,19.7169324 L16.198659,18.150104 L19.999446,18.150104 L19.999446,19.8681706 C19.999446,19.9434117 20.052134,20 20.123257,20 L21.029299,20 C21.135389,20 21.241835,19.9058542 21.241835,19.7169324 L21.241835,17.1122314 C21.241835,17.0180856 21.188671,16.9609931 21.100422,16.9609931 L21.100422,16.9609931 Z M24.527553,12.5629214 C24.118776,12.5629214 23.47986,12.6382885 23.47986,12.6382885 C23.47986,12.6382885 23.47986,12.3552209 23.515421,12.0528704 C23.674674,10.4483584 24.047891,9.63696515 24.669561,9.63696515 C25.238186,9.63696515 25.592849,10.4671372 25.681693,11.921041 C25.699533,12.2228874 25.699533,12.5629214 25.699533,12.5629214 L24.527553,12.5629214 L24.527553,12.5629214 Z M24.722962,8.46675909 C22.805383,8.46675909 21.952623,11.0337765 21.952623,13.8273993 C21.952623,16.6779885 23.160045,18.3765203 24.936212,18.3765203 C25.806098,18.3765203 26.570014,18.0183376 26.960238,17.7535446 C27.031361,17.7158611 27.049082,17.6593988 27.031361,17.5840318 L26.889234,16.9421514 C26.871513,16.8669103 26.835951,16.8292268 26.747107,16.8292268 C26.676579,16.8292268 26.161355,17.0362972 25.433001,17.0362972 C24.065612,17.0362972 23.426577,15.7719453 23.426577,14.1109711 L23.426577,13.663936 C23.426577,13.663936 24.118776,13.7520323 24.527553,13.7520323 L27.120205,13.7520323 L27.120205,12.9589136 C27.120205,10.0335875 26.143039,8.46675909 24.722962,8.46675909 L24.722962,8.46675909 L24.722962,8.46675909 Z" id="yandex" fill="#9F9184" fill-rule="evenodd"></path>
</svg>